<svg width="171" height="171" viewBox="0 0 171 171" fill="none" xmlns="http://www.w3.org/2000/svg">
<g clip-path="url(#clip0_109_2971)">
<rect x="149.578" y="149.159" width="21.25" height="21.25" fill="white"/>
<rect x="128.328" y="149.159" width="21.25" height="21.25" fill="#34E29F"/>
<rect x="107.078" y="149.159" width="21.25" height="21.25" fill="#34E29F"/>
<rect x="85.8284" y="149.159" width="21.25" height="21.25" fill="white"/>
<rect x="64.5784" y="149.159" width="21.25" height="21.25" fill="#34E29F"/>
<rect x="43.3284" y="149.159" width="21.25" height="21.25" fill="#008DFF"/>
<rect x="22.0784" y="149.159" width="21.25" height="21.25" fill="white"/>
<rect x="0.828369" y="149.159" width="21.25" height="21.25" fill="white"/>
<rect x="149.578" y="127.909" width="21.25" height="21.25" fill="#34E29F"/>
<rect x="128.328" y="127.909" width="21.25" height="21.25" fill="#FFC108"/>
<rect x="107.078" y="127.909" width="21.25" height="21.25" fill="#FFC108"/>
<rect x="85.8284" y="127.909" width="21.25" height="21.25" fill="#FFC108"/>
<rect x="64.5784" y="127.909" width="21.25" height="21.25" fill="#008DFF"/>
<rect x="43.3284" y="127.909" width="21.25" height="21.25" fill="#008DFF"/>
<rect x="22.0784" y="127.909" width="21.25" height="21.25" fill="#34E29F"/>
<rect x="0.828369" y="127.909" width="21.25" height="21.25" fill="#FFC108"/>
<rect x="149.578" y="106.659" width="21.25" height="21.25" fill="#34E29F"/>
<rect x="128.328" y="106.659" width="21.25" height="21.25" fill="white"/>
<rect x="107.078" y="106.659" width="21.25" height="21.25" fill="#FFC108"/>
<rect x="85.8284" y="106.659" width="21.25" height="21.25" fill="#008DFF"/>
<rect x="64.5784" y="106.659" width="21.25" height="21.25" fill="#34E29F"/>
<rect x="43.3284" y="106.659" width="21.25" height="21.25" fill="white"/>
<rect x="22.0784" y="106.659" width="21.25" height="21.25" fill="#FFC108"/>
<rect x="0.828369" y="106.659" width="21.25" height="21.25" fill="#008DFF"/>
<rect x="149.578" y="85.4092" width="21.25" height="21.25" fill="#FFC108"/>
<rect x="128.328" y="85.4092" width="21.25" height="21.25" fill="#008DFF"/>
<rect x="107.078" y="85.4092" width="21.25" height="21.25" fill="white"/>
<rect x="85.8284" y="85.4092" width="21.25" height="21.25" fill="#34E29F"/>
<rect x="64.5784" y="85.4092" width="21.25" height="21.25" fill="#FFC108"/>
<rect x="43.3284" y="85.4092" width="21.25" height="21.25" fill="#FFC108"/>
<rect x="22.0784" y="85.4092" width="21.25" height="21.25" fill="#FFC108"/>
<rect x="0.828369" y="85.4092" width="21.25" height="21.25" fill="#FFC108"/>
<rect x="149.578" y="64.1592" width="21.25" height="21.25" fill="white"/>
<rect x="128.328" y="64.1592" width="21.25" height="21.25" fill="#FFC108"/>
<rect x="107.078" y="64.1592" width="21.25" height="21.25" fill="white"/>
<rect x="85.8284" y="64.1592" width="21.25" height="21.25" fill="white"/>
<rect x="64.5784" y="64.1592" width="21.25" height="21.25" fill="#008DFF"/>
<rect x="43.3284" y="64.1592" width="21.25" height="21.25" fill="#34E29F"/>
<rect x="22.0784" y="64.1592" width="21.25" height="21.25" fill="#34E29F"/>
<rect x="0.828369" y="64.1592" width="21.25" height="21.25" fill="#FFC108"/>
<rect x="149.578" y="42.9092" width="21.25" height="21.25" fill="#34E29F"/>
<rect x="128.328" y="42.9092" width="21.25" height="21.25" fill="#FFC108"/>
<rect x="107.078" y="42.9092" width="21.25" height="21.25" fill="#FFC108"/>
<rect x="85.8284" y="42.9092" width="21.25" height="21.25" fill="#008DFF"/>
<rect x="64.5784" y="42.9092" width="21.25" height="21.25" fill="#FFC108"/>
<rect x="43.3284" y="42.9092" width="21.25" height="21.25" fill="#FFC108"/>
<rect x="22.0784" y="42.9092" width="21.25" height="21.25" fill="white"/>
<rect x="0.828369" y="42.9092" width="21.25" height="21.25" fill="#34E29F"/>
<rect x="149.578" y="21.6592" width="21.25" height="21.25" fill="#FFC108"/>
<rect x="128.328" y="21.6592" width="21.25" height="21.25" fill="#FFC108"/>
<rect x="107.078" y="21.6592" width="21.25" height="21.25" fill="#34E29F"/>
<rect x="85.8284" y="21.6592" width="21.25" height="21.25" fill="#FFC108"/>
<rect x="64.5784" y="21.6592" width="21.25" height="21.25" fill="#34E29F"/>
<rect x="43.3284" y="21.6592" width="21.25" height="21.25" fill="#FFC108"/>
<rect x="22.0784" y="21.6592" width="21.25" height="21.25" fill="#008DFF"/>
<rect x="0.828369" y="21.6592" width="21.25" height="21.25" fill="#FFC108"/>
<rect x="149.578" y="0.40918" width="21.25" height="21.25" fill="#008DFF"/>
<rect x="128.328" y="0.40918" width="21.25" height="21.25" fill="#FFC108"/>
<rect x="107.078" y="0.40918" width="21.25" height="21.25" fill="white"/>
<rect x="85.8284" y="0.40918" width="21.25" height="21.25" fill="#34E29F"/>
<rect x="64.5784" y="0.40918" width="21.25" height="21.25" fill="#008DFF"/>
<rect x="43.3284" y="0.40918" width="21.25" height="21.25" fill="#FFC108"/>
<rect x="22.0784" y="0.40918" width="21.25" height="21.25" fill="white"/>
<rect x="0.828369" y="0.40918" width="21.25" height="21.25" fill="white"/>
</g>
<defs>
<clipPath id="clip0_109_2971">
<rect x="0.828369" y="0.40918" width="170" height="170" rx="85" fill="white"/>
</clipPath>
</defs>
</svg>
