<svg width="32" height="32" viewBox="0 0 32 32" fill="none" xmlns="http://www.w3.org/2000/svg">
<path d="M22.0187 31V26.7008C22.075 25.9865 21.9783 25.2684 21.735 24.5943C21.4916 23.9202 21.1074 23.3054 20.6076 22.791C25.3211 22.2667 30.2748 20.4841 30.2748 12.305C30.2744 10.2136 29.4683 8.20234 28.0231 6.68757C28.7073 4.85778 28.659 2.83525 27.888 1.04014C27.888 1.04014 26.1167 0.515839 22.0187 3.25716C18.5781 2.32664 14.9514 2.32664 11.5109 3.25716C7.41284 0.515839 5.64152 1.04014 5.64152 1.04014C4.87051 2.83525 4.82213 4.85778 5.50642 6.68757C4.05052 8.21357 3.24353 10.243 3.25475 12.35C3.25475 20.4691 8.20841 22.2517 12.9219 22.8359C12.428 23.3453 12.0472 23.9525 11.804 24.6184C11.5609 25.2843 11.461 25.9939 11.5109 26.7008V31" stroke="#03191E" stroke-width="2" stroke-linecap="round" stroke-linejoin="round"/>
<path d="M11.5078 27.9979C7.00445 29.4557 3.25167 27.9979 1 23.5039" stroke="#03191E" stroke-width="2" stroke-linecap="round" stroke-linejoin="round"/>
</svg>
