<svg width="64" height="66" viewBox="0 0 64 66" fill="none" xmlns="http://www.w3.org/2000/svg">
<path d="M44.9146 62.8213V54.2228C45.0265 52.7943 44.8343 51.3581 44.3508 50.0099C43.8672 48.6617 43.1036 47.4321 42.1105 46.4033C51.4773 45.3547 61.3215 41.7895 61.3215 25.4314C61.3206 21.2485 59.7187 17.226 56.8469 14.1964C58.2066 10.5369 58.1105 6.4918 56.5784 2.90156C56.5784 2.90156 53.0584 1.85297 44.9146 7.33562C38.0774 5.47457 30.8703 5.47457 24.0331 7.33562C15.8893 1.85297 12.3693 2.90156 12.3693 2.90156C10.8371 6.4918 10.7409 10.5369 12.1008 14.1964C9.20759 17.2484 7.60389 21.3073 7.62621 25.5212C7.62621 41.7595 17.4703 45.3247 26.8371 46.4932C25.8557 47.5118 25.0988 48.7264 24.6157 50.0581C24.1326 51.3898 23.934 52.809 24.0331 54.2228V62.8213" stroke="#EBEBEB" stroke-width="5" stroke-linecap="round" stroke-linejoin="round"/>
<path d="M24.0269 56.817C15.0777 59.7327 7.62005 56.817 3.14545 47.8291" stroke="#EBEBEB" stroke-width="5" stroke-linecap="round" stroke-linejoin="round"/>
</svg>
