<svg width="112" height="126" viewBox="0 0 112 126" fill="none" xmlns="http://www.w3.org/2000/svg">
<path fill-rule="evenodd" clip-rule="evenodd" d="M56.9726 27.2358C67.1625 35.3885 78.8503 40.958 89.4987 48.3003C92.164 50.1381 100.468 53.9538 100.387 57.3628C100.341 59.3559 97.8451 61.8551 96.7524 63.2365C94.8805 65.6028 93.1195 67.9939 91.392 70.4972C83.4849 81.9604 76.0385 93.5316 67.4689 104.419C66.1785 106.057 62.2918 113.876 61.037 109.993C60.4683 108.232 60.9368 106.253 59.4545 104.611C58.6917 103.766 55.7434 103.3 56.6022 101.486C57.1745 101.776 57.7475 102.066 58.3206 102.355C57.8755 100.906 57.9082 99.3181 57.2414 97.948C56.8269 97.0967 56.0171 96.6939 55.7363 95.7354C55.3481 94.4109 56.0065 92.8718 55.8963 91.5065C55.7875 90.1451 55.1611 88.8583 54.7872 87.5738C52.5698 79.96 51.7743 72.2845 50.6389 64.4288C49.5156 56.6557 47.766 49.1259 47.0792 41.2663C46.3533 32.9646 45.464 24.6797 44.2774 16.4444C46.3953 16.7792 48.0233 19.3713 49.5213 20.8367C51.8759 23.1398 54.4324 25.2034 56.9726 27.2358ZM48.9845 107.608C48.4982 107.178 48.1179 106.649 47.8435 106.023C52.8378 103.236 49.8241 107.991 48.9845 107.608ZM45.9474 101.664C43.7705 102.34 42.2065 102.477 40.5279 101.468C40.3687 101.373 40.5521 100.635 40.2649 100.484C40.0139 100.353 39.6307 100.515 39.416 100.392C38.6852 99.9731 37.4055 100.891 37.2811 99.2877C40.0594 98.3299 42.7916 96.5626 45.7249 96.2647C49.8014 95.8515 49.613 100.526 45.9474 101.664ZM36.4095 92.4234C33.4392 93.2057 30.9921 95.0331 27.8363 94.5558C24.8738 94.109 22.2995 92.3785 19.9627 90.3846C25.8087 88.5204 31.9391 88.184 37.7801 86.3807C39.6819 85.7937 42.1808 84.2458 44.2305 84.8696C46.5076 85.5631 46.6512 87.9654 47.3337 90.1516C43.6895 90.8899 40.0175 91.4736 36.4095 92.4234ZM17.832 83.1471C14.9783 83.9151 12.0613 85.5943 9.67537 82.6963C9.29004 82.2286 8.95308 82.6955 8.99858 81.2549C9.04621 79.7358 10.2704 78.7572 11.3233 78.2223C13.7988 76.9651 17.2689 77.7779 19.898 77.5929C24.0918 77.299 28.3602 76.3172 32.5086 75.5613C35.3807 75.0384 38.3475 73.8773 41.2829 74.1063C43.5494 74.2833 46.2837 76.459 42.9806 78.0461C39.9727 79.4923 35.4625 79.2705 32.2035 79.8967C27.3862 80.8224 22.586 81.8675 17.832 83.1471ZM15.0444 68.0252C15.2292 68.2374 15.4141 68.4496 15.5989 68.6618C15.5684 68.6538 16.6931 67.628 16.9909 67.5983C18.4377 67.4566 19.893 67.5687 21.3419 67.4766C24.6804 67.2644 28.0453 66.6094 31.3241 65.8879C33.9951 65.3001 36.7159 64.2871 39.4651 64.541C41.8453 64.7604 42.0955 65.3097 42.2512 67.897C36.1756 67.897 29.9172 67.7529 23.946 69.2015C20.0586 70.144 15.7745 72.9516 13.8273 67.8906C14.2332 67.9355 14.6384 67.9803 15.0444 68.0252ZM18.8429 57.0713C20.3494 58.3637 24.4565 56.2144 26.2622 55.9998C28.223 55.766 30.0679 55.5234 31.9682 54.9732C33.6532 54.4848 39.2276 52.0456 40.5201 54.3782C42.5015 57.9521 34.4786 58.608 33.2067 58.7849C27.8725 59.5273 22.3379 60.1855 17.1473 61.7614C17.7125 60.1983 18.2777 58.6352 18.8429 57.0713ZM26.1599 44.9322C26.5495 46.5842 38.6127 40.4967 38.8324 44.921C39.0016 48.3155 26.8971 50.0068 24.721 49.7089C25.2307 48.1458 26.5864 46.746 26.1599 44.9322ZM30.2101 34.5485C30.4668 31.2164 30.8634 31.2357 33.2358 30.9218C35.0452 30.6823 37.532 29.4876 37.0614 33.1199C36.6583 36.2301 29.952 37.911 30.2101 34.5485ZM34.5219 23.0837C35.0928 21.2948 36.3775 23.7027 36.4045 24.6124C36.4763 27.0332 34.8468 26.5094 33.2785 26.5094C33.715 25.3787 34.1302 24.2352 34.5219 23.0837ZM54.3763 9.6554C54.0564 9.22138 52.2605 9.05562 51.7494 8.84502C50.4924 8.32611 50.6709 7.22023 49.0628 8.31089C48.9824 8.2196 49.1352 7.3996 49.0478 7.36197C49.0037 7.34275 47.8769 6.86388 47.5107 6.59963C46.6271 5.96221 45.8308 5.33839 45.0189 4.53841C44.1558 3.68878 43.2914 2.45558 42.3053 1.77892C41.8894 1.49384 41.5496 1.08945 41.0483 1.00216C39.748 0.776341 40.1206 1.79654 38.9838 1.99914C38.2835 2.12406 37.7737 1.20316 36.8581 1.60035C36.0668 1.94309 35.6075 3.19311 35.2549 3.93703C33.9731 6.64447 32.9842 9.55851 31.7294 12.2948C25.3124 26.2868 18.0189 39.748 11.8032 53.8705C8.80943 60.674 5.6856 67.5247 3.57838 74.7549C2.0591 79.9696 -1.37186 87.5874 1.57995 92.7981C3.72627 96.5866 8.02386 98.2226 11.4527 100.053C16.612 102.808 21.3682 106.408 26.5843 109.079C32.8043 112.264 38.8444 115.595 44.9073 119.151C47.493 120.668 49.8263 122.852 52.4034 124.289C53.9796 125.167 56.4138 123.668 56.9271 125.682C58.9028 122.987 62.1006 124.784 64.3863 122.886C65.7307 121.77 66.7132 119.571 67.8343 118.196C69.5164 116.134 71.3421 114.222 73.0583 112.197C79.8698 104.153 86.1595 95.7754 92.3567 87.1358C98.276 78.8854 105.191 71.0906 110.191 62.0593C112.177 58.4742 112.537 54.7146 111.226 50.7539C110.269 47.8647 107.965 43.502 104.672 45.4151C105.921 43.08 101.105 40.5864 99.6438 40.1299C99.6218 40.1235 99.3339 41.9173 98.9265 41.8724C99.0715 41.8885 97.7022 37.8982 97.1008 37.3865C95.3149 35.8642 93.1423 34.0881 91.1936 32.8348C89.4063 31.6857 87.5202 31.1163 85.7891 29.8303C83.6904 28.272 81.7637 26.4238 79.6572 24.8759C77.6232 23.3816 75.356 21.6151 73.1081 20.5877C71.1587 19.6964 69.4084 19.5218 67.6545 18.0612C65.4847 16.2539 63.5922 15.0279 61.0897 13.7826C58.9249 12.7056 55.9247 11.7647 54.3763 9.6554Z" fill="black"/>
</svg>
