<svg width="689" height="560" viewBox="0 0 689 560" fill="none" xmlns="http://www.w3.org/2000/svg">
<path fill-rule="evenodd" clip-rule="evenodd" d="M677.437 144.279C676.904 143.891 675.638 143.754 675.05 143.637C672.602 143.155 670.081 142.945 667.586 142.945C659.893 142.957 652.075 143.712 644.51 145.019C639.706 145.848 633.899 148.641 629.121 147.124C620.797 144.482 612.384 144.612 604.486 148.384C597.265 151.833 591.784 158.384 588.585 165.462C588.102 166.531 586.144 170.464 585.59 173.115C585.353 173.657 585.125 174.202 584.92 174.756C584.338 176.329 583.815 177.929 583.33 179.533C583.122 180.217 582.601 181.727 583.22 182.019C582.231 183.846 581.353 185.728 580.623 187.671C578.498 193.323 576.174 199.523 575.427 205.513C575.151 207.731 575.14 209.962 575.397 212.184C575.524 213.283 575.472 215.491 576.216 216.327C577.797 218.099 578.608 215.618 578.43 214.436C577.07 205.43 579.697 196.972 582.81 188.506C584.824 183.032 588.132 178.023 591.838 173.488C594.837 169.816 598.054 166.925 602.165 164.491C607.193 161.514 612.568 159.108 617.893 156.694C621.396 155.106 624.903 153.56 628.503 152.192C629.304 151.887 630.563 151.106 631.451 151.103C633.328 151.097 635.989 152.482 637.802 152.997C643.766 154.693 649.806 156.864 655.97 157.73C659.924 158.286 663.628 157.66 667.325 156.343C667.703 156.209 668.337 155.863 669.113 155.369C671.858 154.313 674.455 152.984 676.716 151.066C678.018 149.962 679.201 148.534 680.279 147.227C680.601 146.837 680.744 146.389 680.749 145.963C680.993 145.836 681.155 145.686 681.192 145.512C681.461 144.226 679.008 144.203 677.437 144.279Z" fill="#3A6EA5"/>
<path fill-rule="evenodd" clip-rule="evenodd" d="M52.4855 251.486C50.9762 252.708 49.4959 253.956 48.0517 255.255C46.951 256.245 45.0032 257.43 44.608 258.93C44.1973 260.489 45.494 261.948 46.5184 262.89C51.9354 267.874 58.0352 271.243 65.5414 271.804C77.0992 272.667 87.1578 269.715 97.1861 263.908C104.23 259.828 108.896 253.794 109.915 245.646C118.304 249.132 126.417 253.938 133.312 259.836C136.714 262.746 139.644 265.97 142.354 269.544C144.09 271.834 145.769 274.16 147.327 276.576C148.004 277.625 148.693 279.487 149.811 280.091C151.124 280.801 152.711 279.688 152.646 278.229C152.591 277.014 151.28 275.605 150.666 274.612C149.648 272.963 148.614 271.324 147.525 269.721C145.763 267.124 143.942 264.565 141.956 262.135C137.492 256.675 131.813 252.166 125.926 248.32C114.632 240.942 102.237 236.294 88.4951 235.9C80.0453 235.658 72.9369 238.545 65.7109 242.856C61.212 245.54 56.5679 248.18 52.4855 251.486Z" fill="#DDE3E9"/>
<path fill-rule="evenodd" clip-rule="evenodd" d="M162.095 215.8C153.289 206.732 144.453 197.777 134.615 189.791C128.817 185.086 122.707 180.807 116.723 176.346C117.413 176.951 118.09 177.573 118.751 178.211C116.883 176.943 114.438 176.226 112.458 175.052C110.249 173.743 108.137 172.245 106.066 170.736C102.023 167.79 98.0411 164.788 93.8851 161.996C89.2551 158.885 84.4567 156.011 79.7478 153.017C75.7513 150.477 71.706 147.696 67.4306 145.619C65.1004 144.487 62.7647 143.146 60.425 141.965C59.6419 141.57 51.6962 136.553 51.7162 136.537C52.1554 136.207 56.1539 138.085 56.7722 138.338C58.5785 139.076 60.3059 139.958 62.0425 140.838C61.0893 138.958 60.3348 136.982 59.9241 134.903C59.7972 134.261 58.7806 129.589 59.3008 129.197C59.5606 129.001 62.0956 137.361 62.2254 138.164C62.3309 138.817 62.3154 139.757 62.5291 140.375C62.8741 141.374 62.8567 141.072 63.6168 141.635C65.0098 142.666 66.8589 143.31 68.3666 144.171C69.1796 144.625 71.6968 146.425 73.2129 146.938C77.8004 149.166 82.4503 152.594 86.8091 155.44C85.6652 153.29 84.7946 151.042 84.1598 148.686C84.0087 148.127 82.3796 143.11 82.7749 142.812C83.2196 142.476 86.3238 150.14 86.5077 150.865C86.8493 152.213 86.9202 153.712 87.3481 155.024C87.8171 156.463 89.2821 156.973 90.6021 157.812C95.4591 160.898 100.15 164.177 104.762 167.607C109.795 158.656 103.992 147.848 99.1021 140.338C95.5761 134.925 90.8311 130.285 85.8198 126.234C79.1324 120.827 71.4811 116.508 63.8392 112.557C54.9348 107.954 45.3108 105.101 35.3054 103.784C30.0724 103.094 24.7188 103.114 19.4329 103.335C16.8508 103.442 14.3723 103.784 11.8978 104.627C10.7825 105.007 9.70462 105.486 8.65422 106.022C7.85612 106.429 5.92552 106.859 5.46662 107.466C1.68932 112.383 -0.243084 117.282 0.0520164 123.46C0.331016 129.308 2.17802 135.159 4.68462 140.376C7.47612 146.184 11.0663 151.456 15.7618 155.881C19.3442 159.257 23.3493 162.195 27.328 165.095C41.4791 175.408 59.4203 184.378 77.7484 182.073C83.6813 181.328 89.3241 179.253 94.5971 176.433C95.8401 175.769 97.0751 175.097 98.2481 174.313C99.0391 173.784 101.153 171.401 101.948 171.314C103.039 171.196 105.387 173.413 106.41 174.088C114.184 179.22 121.754 184.63 129.165 190.258C137.051 196.246 144.549 202.642 151.827 209.338C154.922 212.186 157.998 215.041 161.003 217.985C161.703 218.67 163.414 221.192 164.683 221.306C165.485 221.379 166.026 220.693 165.912 219.951C165.713 218.66 162.997 216.729 162.095 215.8Z" fill="#004E98" fill-opacity="0.3"/>
<path fill-rule="evenodd" clip-rule="evenodd" d="M668.192 180.605C664.782 179.86 661.015 179.917 657.541 179.978C638.907 180.232 620.609 189.054 608.701 203.15C598.563 215.15 595.775 230.07 593.772 245.152C593.574 246.649 593.489 248.137 593.377 249.638C593.353 249.96 593.317 250.247 593.278 250.518C592.491 251.222 592.077 252.043 592.544 252.945C590.809 256.742 589.341 260.635 588.081 264.651C584.374 276.471 580.604 288.516 582.926 300.945C583.469 294.105 584.611 287.111 585.976 280.383C586.054 279.997 586.139 279.614 586.227 279.232C586.237 279.192 586.245 279.151 586.254 279.111C586.737 277.051 587.365 275.053 588.129 273.086C588.137 273.064 588.145 273.043 588.153 273.022C588.254 272.763 588.361 272.505 588.467 272.248C588.686 271.715 588.911 271.183 589.149 270.654C589.23 270.473 589.307 270.291 589.382 270.108C590.494 267.382 590.963 264.31 591.96 261.49C592.198 260.849 592.447 260.21 592.708 259.574C592.724 259.537 592.739 259.5 592.755 259.463C593.461 257.752 594.24 256.063 595.065 254.391C595.513 254.054 595.752 253.219 596.139 252.46C596.218 252.31 596.843 251.313 597.029 250.738C597.515 249.799 597.998 248.86 598.487 247.922C598.473 247.928 598.458 247.933 598.443 247.939C598.932 247.038 599.423 246.142 599.91 245.249C600.017 245.053 600.125 244.857 600.233 244.66C600.408 244.347 600.583 244.034 600.757 243.722C602.389 240.801 604.12 237.939 605.917 235.112C606.559 234.103 608.091 232.656 608.385 231.524C608.396 231.481 608.398 231.442 608.405 231.402C612.305 225.924 616.794 220.872 622.179 216.869C621.528 217.573 620.144 219.96 619.779 220.433C618.659 221.88 617.444 223.227 616.225 224.591C614.04 227.034 611.908 229.554 610.013 232.219C606.547 237.093 603.558 242.222 600.731 247.455C600.705 247.485 600.675 247.514 600.65 247.546C599.229 249.297 598.335 251.943 597.313 253.946C601.359 252.072 605.834 250.851 609.986 249.187C614.128 247.528 618.156 245.68 622.046 243.511C627.215 240.627 632.578 237.372 637.462 233.688C643.059 230.216 647.763 225.437 651.915 220.422C656.827 214.488 661.329 208.503 664.113 201.298C665.481 197.758 666.557 194.066 667.195 190.331C667.223 190.169 667.258 189.992 667.297 189.809C667.95 188.519 668.533 187.2 669.023 185.851C669.8 183.711 671.637 181.357 668.192 180.605Z" fill="#004E98"/>
<path fill-rule="evenodd" clip-rule="evenodd" d="M90.2202 205.675C89.1522 204.518 87.9522 203.474 86.5429 202.729C86.1866 202.541 83.533 201.281 83.3602 201.557C82.9576 202.201 89.8992 205.305 90.2202 205.675ZM102.802 197.946C102.793 197.995 103.713 199.556 103.964 200.036C104.497 201.057 104.989 202.097 105.452 203.14C104.767 201.299 104.062 199.591 102.802 197.946ZM38.4573 210.655C37.5711 210.94 36.5057 209.815 37.6551 209.538C38.5852 209.316 38.5396 209.264 38.9572 208.514C39.2963 207.906 39.5052 207.164 39.8028 206.526C40.434 205.172 41.15 203.88 42.0289 202.67C43.9125 200.076 46.2074 197.841 48.7814 195.957C53.2734 192.671 58.3101 189.666 63.653 188.157C72.1481 185.757 81.8168 185.609 90.3252 187.273C95.5952 188.303 100.41 190.095 103.909 194.338C105.658 196.458 107.031 198.942 107.631 201.677C107.788 202.392 107.758 203.187 107.954 203.887C108.256 204.964 108.123 204.677 109.382 204.886C110.756 205.115 112.129 205.348 113.502 205.586C117.097 206.208 120.713 206.868 124.216 207.877C125.369 208.209 126.496 208.615 127.598 209.086C128.431 209.442 131.748 210.561 132.151 211.643C132.822 213.444 130.574 212.628 129.875 212.235C129.263 211.892 128.635 211.571 127.998 211.276C126.393 210.534 124.721 209.959 123.011 209.502C121.163 209.008 119.278 208.639 117.399 208.269C115.648 207.925 113.89 207.612 112.129 207.312C111.151 207.146 110.173 206.984 109.194 206.823C108.859 206.767 108.27 206.478 108.314 206.913C106.256 206.516 104.031 206.573 101.935 206.464C99.3682 206.33 96.7912 206.22 94.2152 206.3C92.3572 206.358 90.4982 206.48 88.6492 206.73C87.5692 206.876 86.5064 207.089 85.4467 207.359C84.8646 207.508 82.5692 207.823 82.2521 208.33C82.3883 208.112 84.9216 208.324 85.2441 208.311C86.5338 208.263 87.8132 208.135 89.0982 207.992C91.4832 207.725 93.8682 207.586 96.2602 207.606C96.2512 208.026 94.6172 208.774 94.2182 209.052C93.3242 209.677 92.4672 210.357 91.6682 211.104C90.2612 212.419 88.5752 214.048 87.6022 215.607C87.8892 215.147 89.3042 214.55 89.8062 214.199C90.6112 213.637 91.4002 213.037 92.1462 212.396C92.8342 211.804 93.4772 211.164 94.1092 210.511C94.7412 209.858 95.5982 208.499 96.4292 208.064C96.4792 208.037 96.8412 208.323 97.0462 208.226C97.2542 208.128 97.5122 207.638 97.5642 207.618C98.3372 207.32 99.8052 207.691 100.618 207.729C102.725 207.826 104.831 207.953 106.936 208.069C107.589 208.105 108.143 207.956 108.39 208.437C108.652 208.951 108.171 210.3 108.034 210.859C107.526 212.935 106.625 214.796 105.205 216.405C102.547 219.418 99.2682 221.426 95.5652 222.77C81.3809 227.916 66.2905 229.977 52.1103 224.624C46.2398 222.407 37.3987 218.447 38.4573 210.655Z" fill="#3A6EA5"/>
<g opacity="0.6">
<path fill-rule="evenodd" clip-rule="evenodd" d="M687.923 453.098C697.573 518.422 463.549 561.031 262.12 531.295C60.6903 501.56 -31.716 385.439 64.4028 323.566C160.522 261.692 678.273 387.774 687.923 453.098Z" fill="#DDE3E9"/>
</g>
<path d="M276.212 24.9453H133.212C128.794 24.9453 125.212 28.527 125.212 32.9453V318.945C125.212 323.364 128.794 326.945 133.212 326.945H276.212C280.63 326.945 284.212 323.364 284.212 318.945V32.9453C284.212 28.527 280.63 24.9453 276.212 24.9453Z" fill="#F2F2F2"/>
<path fill-rule="evenodd" clip-rule="evenodd" d="M204.212 307.945C212.496 307.945 219.212 301.229 219.212 292.945C219.212 284.661 212.496 277.945 204.212 277.945C195.928 277.945 189.212 284.661 189.212 292.945C189.212 301.229 195.928 307.945 204.212 307.945Z" fill="white"/>
<path fill-rule="evenodd" clip-rule="evenodd" d="M191.212 44.9453C192.317 44.9453 193.212 44.0499 193.212 42.9453C193.212 41.8407 192.317 40.9453 191.212 40.9453C190.107 40.9453 189.212 41.8407 189.212 42.9453C189.212 44.0499 190.107 44.9453 191.212 44.9453Z" fill="white"/>
<path d="M217.212 40.9453H200.212C199.108 40.9453 198.212 41.8407 198.212 42.9453C198.212 44.0499 199.108 44.9453 200.212 44.9453H217.212C218.317 44.9453 219.212 44.0499 219.212 42.9453C219.212 41.8407 218.317 40.9453 217.212 40.9453Z" fill="white"/>
<path d="M266.212 52.9453H143.212C141.003 52.9453 139.212 54.7362 139.212 56.9453V102.945C139.212 105.154 141.003 106.945 143.212 106.945H266.212C268.421 106.945 270.212 105.154 270.212 102.945V56.9453C270.212 54.7362 268.421 52.9453 266.212 52.9453Z" fill="white"/>
<mask id="mask0_65_7101" style="mask-type:luminance" maskUnits="userSpaceOnUse" x="178" y="69" width="74" height="22">
<path d="M251.212 69.1455H178.212V90.7455H251.212V69.1455Z" fill="white"/>
</mask>
<g mask="url(#mask0_65_7101)">
<path d="M248.212 69.1455H181.212C179.555 69.1455 178.212 70.4887 178.212 72.1455V74.2455C178.212 75.9024 179.555 77.2455 181.212 77.2455H248.212C249.869 77.2455 251.212 75.9024 251.212 74.2455V72.1455C251.212 70.4887 249.869 69.1455 248.212 69.1455Z" fill="#DDE3E9"/>
<path d="M224.212 82.6455H181.212C179.555 82.6455 178.212 83.9887 178.212 85.6455V87.7455C178.212 89.4024 179.555 90.7455 181.212 90.7455H224.212C225.869 90.7455 227.212 89.4024 227.212 87.7455V85.6455C227.212 83.9887 225.869 82.6455 224.212 82.6455Z" fill="#DDE3E9"/>
</g>
<path fill-rule="evenodd" clip-rule="evenodd" d="M160.212 91.9453C166.839 91.9453 172.212 86.5723 172.212 79.9453C172.212 73.3183 166.839 67.9453 160.212 67.9453C153.585 67.9453 148.212 73.3183 148.212 79.9453C148.212 86.5723 153.585 91.9453 160.212 91.9453Z" fill="#C5CFD6"/>
<path d="M266.212 114.945H143.212C141.003 114.945 139.212 116.736 139.212 118.945V152.945C139.212 155.154 141.003 156.945 143.212 156.945H266.212C268.421 156.945 270.212 155.154 270.212 152.945V118.945C270.212 116.736 268.421 114.945 266.212 114.945Z" fill="white"/>
<mask id="mask1_65_7101" style="mask-type:luminance" maskUnits="userSpaceOnUse" x="178" y="127" width="74" height="18">
<path d="M251.212 127.545H178.212V144.345H251.212V127.545Z" fill="white"/>
</mask>
<g mask="url(#mask1_65_7101)">
<path d="M248.212 127.545H181.212C179.555 127.545 178.212 128.888 178.212 130.545V130.845C178.212 132.502 179.555 133.845 181.212 133.845H248.212C249.869 133.845 251.212 132.502 251.212 130.845V130.545C251.212 128.888 249.869 127.545 248.212 127.545Z" fill="#DDE3E9"/>
<path d="M224.212 138.045H181.212C179.555 138.045 178.212 139.388 178.212 141.045V141.345C178.212 143.002 179.555 144.345 181.212 144.345H224.212C225.869 144.345 227.212 143.002 227.212 141.345V141.045C227.212 139.388 225.869 138.045 224.212 138.045Z" fill="#DDE3E9"/>
</g>
<path fill-rule="evenodd" clip-rule="evenodd" d="M160.212 147.945C166.839 147.945 172.212 142.572 172.212 135.945C172.212 129.318 166.839 123.945 160.212 123.945C153.585 123.945 148.212 129.318 148.212 135.945C148.212 142.572 153.585 147.945 160.212 147.945Z" fill="#C5CFD6"/>
<path d="M266.212 164.945H143.212C141.003 164.945 139.212 166.736 139.212 168.945V202.945C139.212 205.154 141.003 206.945 143.212 206.945H266.212C268.421 206.945 270.212 205.154 270.212 202.945V168.945C270.212 166.736 268.421 164.945 266.212 164.945Z" fill="white"/>
<mask id="mask2_65_7101" style="mask-type:luminance" maskUnits="userSpaceOnUse" x="178" y="177" width="74" height="18">
<path d="M251.212 177.545H178.212V194.345H251.212V177.545Z" fill="white"/>
</mask>
<g mask="url(#mask2_65_7101)">
<path d="M248.212 177.545H181.212C179.555 177.545 178.212 178.888 178.212 180.545V180.845C178.212 182.502 179.555 183.845 181.212 183.845H248.212C249.869 183.845 251.212 182.502 251.212 180.845V180.545C251.212 178.888 249.869 177.545 248.212 177.545Z" fill="#DDE3E9"/>
<path d="M224.212 188.045H181.212C179.555 188.045 178.212 189.388 178.212 191.045V191.345C178.212 193.002 179.555 194.345 181.212 194.345H224.212C225.869 194.345 227.212 193.002 227.212 191.345V191.045C227.212 189.388 225.869 188.045 224.212 188.045Z" fill="#DDE3E9"/>
</g>
<path fill-rule="evenodd" clip-rule="evenodd" d="M160.212 197.945C166.839 197.945 172.212 192.572 172.212 185.945C172.212 179.318 166.839 173.945 160.212 173.945C153.585 173.945 148.212 179.318 148.212 185.945C148.212 192.572 153.585 197.945 160.212 197.945Z" fill="#AFB9C5"/>
<path d="M266.212 214.945H143.212C141.003 214.945 139.212 216.736 139.212 218.945V252.945C139.212 255.154 141.003 256.945 143.212 256.945H266.212C268.421 256.945 270.212 255.154 270.212 252.945V218.945C270.212 216.736 268.421 214.945 266.212 214.945Z" fill="white"/>
<mask id="mask3_65_7101" style="mask-type:luminance" maskUnits="userSpaceOnUse" x="178" y="227" width="74" height="18">
<path d="M251.212 227.545H178.212V244.345H251.212V227.545Z" fill="white"/>
</mask>
<g mask="url(#mask3_65_7101)">
<path d="M248.212 227.545H181.212C179.555 227.545 178.212 228.888 178.212 230.545V230.845C178.212 232.502 179.555 233.845 181.212 233.845H248.212C249.869 233.845 251.212 232.502 251.212 230.845V230.545C251.212 228.888 249.869 227.545 248.212 227.545Z" fill="#DDE3E9"/>
<path d="M224.212 238.045H181.212C179.555 238.045 178.212 239.388 178.212 241.045V241.345C178.212 243.002 179.555 244.345 181.212 244.345H224.212C225.869 244.345 227.212 243.002 227.212 241.345V241.045C227.212 239.388 225.869 238.045 224.212 238.045Z" fill="#DDE3E9"/>
</g>
<path fill-rule="evenodd" clip-rule="evenodd" d="M160.212 247.945C166.839 247.945 172.212 242.572 172.212 235.945C172.212 229.318 166.839 223.945 160.212 223.945C153.585 223.945 148.212 229.318 148.212 235.945C148.212 242.572 153.585 247.945 160.212 247.945Z" fill="#C5CFD6"/>
<path fill-rule="evenodd" clip-rule="evenodd" d="M155.352 268.945C154.027 268.945 152.706 268.972 151.383 269.04C150.374 269.093 148.833 268.884 147.98 269.513C147.093 270.166 147.154 271.502 147.293 272.446C148.025 277.438 149.812 281.864 153.551 285.401C159.308 290.846 165.907 293.613 173.716 294.845C179.202 295.711 184.266 294.509 188.304 290.608C191.255 296.084 193.493 302.144 194.616 308.26C195.17 311.278 195.339 314.26 195.242 317.333C195.179 319.301 195.071 321.265 194.86 323.224C194.768 324.075 194.334 325.363 194.667 326.168C195.058 327.112 196.377 327.204 196.969 326.398C197.462 325.728 197.372 324.411 197.473 323.618C197.641 322.3 197.796 320.981 197.907 319.657C198.088 317.514 198.221 315.365 198.212 313.213C198.189 308.38 197.114 303.528 195.644 298.94C192.824 290.137 188.249 282.314 181.133 276.176C176.757 272.402 171.749 270.874 166.068 270.053C162.53 269.542 158.935 268.945 155.352 268.945Z" fill="#3A6EA5"/>
<path fill-rule="evenodd" clip-rule="evenodd" d="M175.783 303.945C161.484 303.945 151.854 315.469 147.301 327.447C145.584 331.961 145.182 336.919 144.52 341.659C144.308 343.181 144.387 345.499 143.769 346.854C143.545 347.346 143.031 347.522 143.277 348.192C143.426 348.597 143.717 348.846 144.156 348.926C145.055 349.092 146.327 348.112 147.098 347.726C153.494 344.518 157.696 339.558 161.124 333.49C163.25 329.729 165.406 325.824 166.668 321.695C167.439 319.172 167.888 316.516 168.152 313.899C168.256 312.868 168.356 311.813 168.35 310.777C168.344 309.748 167.865 309.204 167.521 308.309C172.292 306.503 177.678 306.011 182.511 307.882C186.981 309.613 190.694 312.958 192.773 317.161C193.313 318.253 193.73 319.405 194.033 320.581C194.232 321.351 194.241 322.349 194.61 323.045C195.502 324.733 197.38 323.605 197.2 322.034C196.697 317.653 194.191 313.254 190.987 310.208C186.946 306.366 181.47 303.945 175.783 303.945Z" fill="#3A6EA5"/>
<path d="M342.212 50.9453H199.212C194.794 50.9453 191.212 54.527 191.212 58.9453V344.945C191.212 349.364 194.794 352.945 199.212 352.945H342.212C346.63 352.945 350.212 349.364 350.212 344.945V58.9453C350.212 54.527 346.63 50.9453 342.212 50.9453Z" fill="#DDE3E9"/>
<path fill-rule="evenodd" clip-rule="evenodd" d="M270.212 333.945C278.496 333.945 285.212 327.229 285.212 318.945C285.212 310.661 278.496 303.945 270.212 303.945C261.928 303.945 255.212 310.661 255.212 318.945C255.212 327.229 261.928 333.945 270.212 333.945Z" fill="white"/>
<path fill-rule="evenodd" clip-rule="evenodd" d="M257.212 70.9453C258.317 70.9453 259.212 70.0503 259.212 68.9453C259.212 67.8403 258.317 66.9453 257.212 66.9453C256.107 66.9453 255.212 67.8403 255.212 68.9453C255.212 70.0503 256.107 70.9453 257.212 70.9453Z" fill="white"/>
<path d="M283.212 66.9453H266.212C265.107 66.9453 264.212 67.8407 264.212 68.9453C264.212 70.0499 265.107 70.9453 266.212 70.9453H283.212C284.317 70.9453 285.212 70.0499 285.212 68.9453C285.212 67.8407 284.317 66.9453 283.212 66.9453Z" fill="white"/>
<path d="M332.212 78.9453H209.212C207.003 78.9453 205.212 80.7362 205.212 82.9453V128.945C205.212 131.154 207.003 132.945 209.212 132.945H332.212C334.421 132.945 336.212 131.154 336.212 128.945V82.9453C336.212 80.7362 334.421 78.9453 332.212 78.9453Z" fill="white"/>
<mask id="mask4_65_7101" style="mask-type:luminance" maskUnits="userSpaceOnUse" x="214" y="95" width="74" height="22">
<path d="M287.212 95.1455H214.212V116.746H287.212V95.1455Z" fill="white"/>
</mask>
<g mask="url(#mask4_65_7101)">
<path d="M284.212 95.1455H217.212C215.555 95.1455 214.212 96.4887 214.212 98.1455V100.246C214.212 101.902 215.555 103.246 217.212 103.246H284.212C285.869 103.246 287.212 101.902 287.212 100.246V98.1455C287.212 96.4887 285.869 95.1455 284.212 95.1455Z" fill="#DDE3E9"/>
<path d="M260.212 108.646H217.212C215.555 108.646 214.212 109.989 214.212 111.646V113.746C214.212 115.402 215.555 116.746 217.212 116.746H260.212C261.869 116.746 263.212 115.402 263.212 113.746V111.646C263.212 109.989 261.869 108.646 260.212 108.646Z" fill="#DDE3E9"/>
</g>
<path fill-rule="evenodd" clip-rule="evenodd" d="M322.212 112.945C326.078 112.945 329.212 109.811 329.212 105.945C329.212 102.079 326.078 98.9453 322.212 98.9453C318.346 98.9453 315.212 102.079 315.212 105.945C315.212 109.811 318.346 112.945 322.212 112.945Z" fill="#DDE3E9"/>
<path fill-rule="evenodd" clip-rule="evenodd" d="M322.212 108.945C323.869 108.945 325.212 107.602 325.212 105.945C325.212 104.288 323.869 102.945 322.212 102.945C320.555 102.945 319.212 104.288 319.212 105.945C319.212 107.602 320.555 108.945 322.212 108.945Z" fill="#F2F2F2"/>
<path d="M332.212 140.945H209.212C207.003 140.945 205.212 142.736 205.212 144.945V178.945C205.212 181.154 207.003 182.945 209.212 182.945H332.212C334.421 182.945 336.212 181.154 336.212 178.945V144.945C336.212 142.736 334.421 140.945 332.212 140.945Z" fill="white"/>
<mask id="mask5_65_7101" style="mask-type:luminance" maskUnits="userSpaceOnUse" x="244" y="153" width="74" height="18">
<path d="M317.212 153.545H244.212V170.345H317.212V153.545Z" fill="white"/>
</mask>
<g mask="url(#mask5_65_7101)">
<path d="M314.212 153.545H247.212C245.555 153.545 244.212 154.888 244.212 156.545V156.845C244.212 158.502 245.555 159.845 247.212 159.845H314.212C315.869 159.845 317.212 158.502 317.212 156.845V156.545C317.212 154.888 315.869 153.545 314.212 153.545Z" fill="#DDE3E9"/>
<path d="M290.212 164.045H247.212C245.555 164.045 244.212 165.388 244.212 167.045V167.345C244.212 169.002 245.555 170.345 247.212 170.345H290.212C291.869 170.345 293.212 169.002 293.212 167.345V167.045C293.212 165.388 291.869 164.045 290.212 164.045Z" fill="#DDE3E9"/>
</g>
<path fill-rule="evenodd" clip-rule="evenodd" d="M226.212 173.945C232.839 173.945 238.212 168.572 238.212 161.945C238.212 155.318 232.839 149.945 226.212 149.945C219.585 149.945 214.212 155.318 214.212 161.945C214.212 168.572 219.585 173.945 226.212 173.945Z" fill="#C5CFD6"/>
<path d="M332.212 190.945H209.212C207.003 190.945 205.212 192.736 205.212 194.945V228.945C205.212 231.154 207.003 232.945 209.212 232.945H332.212C334.421 232.945 336.212 231.154 336.212 228.945V194.945C336.212 192.736 334.421 190.945 332.212 190.945Z" fill="white"/>
<mask id="mask6_65_7101" style="mask-type:luminance" maskUnits="userSpaceOnUse" x="214" y="203" width="74" height="18">
<path d="M287.212 203.545H214.212V220.345H287.212V203.545Z" fill="white"/>
</mask>
<g mask="url(#mask6_65_7101)">
<path d="M284.212 203.545H217.212C215.555 203.545 214.212 204.888 214.212 206.545V206.845C214.212 208.502 215.555 209.845 217.212 209.845H284.212C285.869 209.845 287.212 208.502 287.212 206.845V206.545C287.212 204.888 285.869 203.545 284.212 203.545Z" fill="#DDE3E9"/>
<path d="M260.212 214.045H217.212C215.555 214.045 214.212 215.388 214.212 217.045V217.345C214.212 219.002 215.555 220.345 217.212 220.345H260.212C261.869 220.345 263.212 219.002 263.212 217.345V217.045C263.212 215.388 261.869 214.045 260.212 214.045Z" fill="#AFB9C5"/>
</g>
<path fill-rule="evenodd" clip-rule="evenodd" d="M322.212 218.945C326.078 218.945 329.212 215.811 329.212 211.945C329.212 208.079 326.078 204.945 322.212 204.945C318.346 204.945 315.212 208.079 315.212 211.945C315.212 215.811 318.346 218.945 322.212 218.945Z" fill="#DDE3E9"/>
<path fill-rule="evenodd" clip-rule="evenodd" d="M322.212 214.945C323.869 214.945 325.212 213.602 325.212 211.945C325.212 210.288 323.869 208.945 322.212 208.945C320.555 208.945 319.212 210.288 319.212 211.945C319.212 213.602 320.555 214.945 322.212 214.945Z" fill="#F2F2F2"/>
<path d="M332.212 240.945H209.212C207.003 240.945 205.212 242.736 205.212 244.945V278.945C205.212 281.154 207.003 282.945 209.212 282.945H332.212C334.421 282.945 336.212 281.154 336.212 278.945V244.945C336.212 242.736 334.421 240.945 332.212 240.945Z" fill="white"/>
<mask id="mask7_65_7101" style="mask-type:luminance" maskUnits="userSpaceOnUse" x="244" y="253" width="74" height="18">
<path d="M317.212 253.545H244.212V270.345H317.212V253.545Z" fill="white"/>
</mask>
<g mask="url(#mask7_65_7101)">
<path d="M314.212 253.545H247.212C245.555 253.545 244.212 254.888 244.212 256.545V256.845C244.212 258.502 245.555 259.845 247.212 259.845H314.212C315.869 259.845 317.212 258.502 317.212 256.845V256.545C317.212 254.888 315.869 253.545 314.212 253.545Z" fill="#DDE3E9"/>
<path d="M290.212 264.045H247.212C245.555 264.045 244.212 265.388 244.212 267.045V267.345C244.212 269.002 245.555 270.345 247.212 270.345H290.212C291.869 270.345 293.212 269.002 293.212 267.345V267.045C293.212 265.388 291.869 264.045 290.212 264.045Z" fill="#DDE3E9"/>
</g>
<path fill-rule="evenodd" clip-rule="evenodd" d="M226.212 273.945C232.839 273.945 238.212 268.572 238.212 261.945C238.212 255.318 232.839 249.945 226.212 249.945C219.585 249.945 214.212 255.318 214.212 261.945C214.212 268.572 219.585 273.945 226.212 273.945Z" fill="#C5CFD6"/>
<path d="M584.212 75.9453H265.212C260.794 75.9453 257.212 79.527 257.212 83.9453V413.945C257.212 418.364 260.794 421.945 265.212 421.945H584.212C588.63 421.945 592.212 418.364 592.212 413.945V83.9453C592.212 79.527 588.63 75.9453 584.212 75.9453Z" fill="#F2F2F2"/>
<path d="M568.212 118.945H514.212C509.794 118.945 506.212 122.527 506.212 126.945V191.945C506.212 196.364 509.794 199.945 514.212 199.945H568.212C572.63 199.945 576.212 196.364 576.212 191.945V126.945C576.212 122.527 572.63 118.945 568.212 118.945Z" fill="white"/>
<path fill-rule="evenodd" clip-rule="evenodd" d="M541.212 165.945C550.049 165.945 557.212 158.782 557.212 149.945C557.212 141.108 550.049 133.945 541.212 133.945C532.375 133.945 525.212 141.108 525.212 149.945C525.212 158.782 532.375 165.945 541.212 165.945Z" fill="#DDE3E9"/>
<path d="M563.212 169.945H519.212C517.555 169.945 516.212 171.288 516.212 172.945C516.212 174.602 517.555 175.945 519.212 175.945H563.212C564.869 175.945 566.212 174.602 566.212 172.945C566.212 171.288 564.869 169.945 563.212 169.945Z" fill="#DDE3E9"/>
<path d="M555.212 179.945H527.212C525.555 179.945 524.212 181.288 524.212 182.945C524.212 184.602 525.555 185.945 527.212 185.945H555.212C556.869 185.945 558.212 184.602 558.212 182.945C558.212 181.288 556.869 179.945 555.212 179.945Z" fill="#DDE3E9"/>
<path d="M257.212 83.9453C257.212 79.5273 260.794 75.9453 265.212 75.9453H584.212C588.63 75.9453 592.212 79.5273 592.212 83.9453V102.945H257.212V83.9453Z" fill="#C5CFD6"/>
<path fill-rule="evenodd" clip-rule="evenodd" d="M270.212 93.9453C272.421 93.9453 274.212 92.1543 274.212 89.9453C274.212 87.7363 272.421 85.9453 270.212 85.9453C268.003 85.9453 266.212 87.7363 266.212 89.9453C266.212 92.1543 268.003 93.9453 270.212 93.9453Z" fill="#F2F2F2"/>
<path fill-rule="evenodd" clip-rule="evenodd" d="M282.212 93.9453C284.421 93.9453 286.212 92.1543 286.212 89.9453C286.212 87.7363 284.421 85.9453 282.212 85.9453C280.003 85.9453 278.212 87.7363 278.212 89.9453C278.212 92.1543 280.003 93.9453 282.212 93.9453Z" fill="#F2F2F2"/>
<path fill-rule="evenodd" clip-rule="evenodd" d="M294.212 93.9453C296.421 93.9453 298.212 92.1543 298.212 89.9453C298.212 87.7363 296.421 85.9453 294.212 85.9453C292.003 85.9453 290.212 87.7363 290.212 89.9453C290.212 92.1543 292.003 93.9453 294.212 93.9453Z" fill="#F2F2F2"/>
<path d="M568.212 207.945H514.212C509.794 207.945 506.212 211.527 506.212 215.945V393.945C506.212 398.364 509.794 401.945 514.212 401.945H568.212C572.63 401.945 576.212 398.364 576.212 393.945V215.945C576.212 211.527 572.63 207.945 568.212 207.945Z" fill="white"/>
<path d="M554.212 225.945H528.212C526.003 225.945 524.212 227.736 524.212 229.945V247.945C524.212 250.154 526.003 251.945 528.212 251.945H554.212C556.421 251.945 558.212 250.154 558.212 247.945V229.945C558.212 227.736 556.421 225.945 554.212 225.945Z" fill="#DDE3E9"/>
<path d="M554.212 259.945H528.212C526.003 259.945 524.212 261.736 524.212 263.945V280.945C524.212 283.154 526.003 284.945 528.212 284.945H554.212C556.421 284.945 558.212 283.154 558.212 280.945V263.945C558.212 261.736 556.421 259.945 554.212 259.945Z" fill="#AFB9C5"/>
<path d="M554.212 292.945H528.212C526.003 292.945 524.212 294.736 524.212 296.945V313.945C524.212 316.154 526.003 317.945 528.212 317.945H554.212C556.421 317.945 558.212 316.154 558.212 313.945V296.945C558.212 294.736 556.421 292.945 554.212 292.945Z" fill="#DDE3E9"/>
<path d="M554.212 358.945H528.212C526.003 358.945 524.212 360.736 524.212 362.945V379.945C524.212 382.154 526.003 383.945 528.212 383.945H554.212C556.421 383.945 558.212 382.154 558.212 379.945V362.945C558.212 360.736 556.421 358.945 554.212 358.945Z" fill="#DDE3E9"/>
<path d="M554.212 325.945H528.212C526.003 325.945 524.212 327.736 524.212 329.945V346.945C524.212 349.154 526.003 350.945 528.212 350.945H554.212C556.421 350.945 558.212 349.154 558.212 346.945V329.945C558.212 327.736 556.421 325.945 554.212 325.945Z" fill="#C5CFD6"/>
<path d="M494.212 119.945H277.212C275.003 119.945 273.212 121.736 273.212 123.945V162.945C273.212 165.154 275.003 166.945 277.212 166.945H494.212C496.421 166.945 498.212 165.154 498.212 162.945V123.945C498.212 121.736 496.421 119.945 494.212 119.945Z" fill="white"/>
<mask id="mask8_65_7101" style="mask-type:luminance" maskUnits="userSpaceOnUse" x="282" y="134" width="168" height="19">
<path d="M449.212 134.045H282.212V152.845H449.212V134.045Z" fill="white"/>
</mask>
<g mask="url(#mask8_65_7101)">
<path d="M446.212 134.045H285.212C283.555 134.045 282.212 135.388 282.212 137.045V138.095C282.212 139.752 283.555 141.095 285.212 141.095H446.212C447.869 141.095 449.212 139.752 449.212 138.095V137.045C449.212 135.388 447.869 134.045 446.212 134.045Z" fill="#DDE3E9"/>
<path d="M391.308 145.795H285.212C283.555 145.795 282.212 147.138 282.212 148.795V149.845C282.212 151.502 283.555 152.845 285.212 152.845H391.308C392.965 152.845 394.308 151.502 394.308 149.845V148.795C394.308 147.138 392.965 145.795 391.308 145.795Z" fill="#DDE3E9"/>
</g>
<path fill-rule="evenodd" clip-rule="evenodd" d="M474.166 150.445C478.032 150.445 481.166 147.311 481.166 143.445C481.166 139.579 478.032 136.445 474.166 136.445C470.3 136.445 467.166 139.579 467.166 143.445C467.166 147.311 470.3 150.445 474.166 150.445Z" fill="#DDE3E9"/>
<path fill-rule="evenodd" clip-rule="evenodd" d="M474.166 146.445C475.823 146.445 477.166 145.102 477.166 143.445C477.166 141.788 475.823 140.445 474.166 140.445C472.509 140.445 471.166 141.788 471.166 143.445C471.166 145.102 472.509 146.445 474.166 146.445Z" fill="#F2F2F2"/>
<path d="M494.212 174.945H277.212C275.003 174.945 273.212 176.736 273.212 178.945V209.945C273.212 212.154 275.003 213.945 277.212 213.945H494.212C496.421 213.945 498.212 212.154 498.212 209.945V178.945C498.212 176.736 496.421 174.945 494.212 174.945Z" fill="white"/>
<mask id="mask9_65_7101" style="mask-type:luminance" maskUnits="userSpaceOnUse" x="282" y="186" width="168" height="17">
<path d="M449.212 186.646H282.212V202.246H449.212V186.646Z" fill="white"/>
</mask>
<g mask="url(#mask9_65_7101)">
<path d="M446.287 186.646H285.137C283.522 186.646 282.212 187.955 282.212 189.571C282.212 191.186 283.522 192.496 285.137 192.496H446.287C447.903 192.496 449.212 191.186 449.212 189.571C449.212 187.955 447.903 186.646 446.287 186.646Z" fill="#DDE3E9"/>
<path d="M391.383 196.396H285.137C283.522 196.396 282.212 197.705 282.212 199.321C282.212 200.936 283.522 202.246 285.137 202.246H391.383C392.999 202.246 394.308 200.936 394.308 199.321C394.308 197.705 392.999 196.396 391.383 196.396Z" fill="#DDE3E9"/>
</g>
<path fill-rule="evenodd" clip-rule="evenodd" d="M474.166 201.445C478.032 201.445 481.166 198.311 481.166 194.445C481.166 190.579 478.032 187.445 474.166 187.445C470.3 187.445 467.166 190.579 467.166 194.445C467.166 198.311 470.3 201.445 474.166 201.445Z" fill="#DDE3E9"/>
<path fill-rule="evenodd" clip-rule="evenodd" d="M474.166 197.445C475.823 197.445 477.166 196.102 477.166 194.445C477.166 192.788 475.823 191.445 474.166 191.445C472.509 191.445 471.166 192.788 471.166 194.445C471.166 196.102 472.509 197.445 474.166 197.445Z" fill="#F2F2F2"/>
<path d="M494.212 221.945H277.212C275.003 221.945 273.212 223.736 273.212 225.945V256.945C273.212 259.154 275.003 260.945 277.212 260.945H494.212C496.421 260.945 498.212 259.154 498.212 256.945V225.945C498.212 223.736 496.421 221.945 494.212 221.945Z" fill="white"/>
<mask id="mask10_65_7101" style="mask-type:luminance" maskUnits="userSpaceOnUse" x="282" y="233" width="168" height="17">
<path d="M449.212 233.646H282.212V249.246H449.212V233.646Z" fill="white"/>
</mask>
<g mask="url(#mask10_65_7101)">
<path d="M446.287 233.646H285.137C283.522 233.646 282.212 234.955 282.212 236.57C282.212 238.186 283.522 239.495 285.137 239.495H446.287C447.903 239.495 449.212 238.186 449.212 236.57C449.212 234.955 447.903 233.646 446.287 233.646Z" fill="#DDE3E9"/>
<path d="M391.383 243.396H285.137C283.522 243.396 282.212 244.705 282.212 246.32C282.212 247.936 283.522 249.245 285.137 249.245H391.383C392.999 249.245 394.308 247.936 394.308 246.32C394.308 244.705 392.999 243.396 391.383 243.396Z" fill="#DDE3E9"/>
</g>
<path fill-rule="evenodd" clip-rule="evenodd" d="M474.166 248.445C478.032 248.445 481.166 245.311 481.166 241.445C481.166 237.579 478.032 234.445 474.166 234.445C470.3 234.445 467.166 237.579 467.166 241.445C467.166 245.311 470.3 248.445 474.166 248.445Z" fill="#DDE3E9"/>
<path fill-rule="evenodd" clip-rule="evenodd" d="M474.166 244.445C475.823 244.445 477.166 243.102 477.166 241.445C477.166 239.788 475.823 238.445 474.166 238.445C472.509 238.445 471.166 239.788 471.166 241.445C471.166 243.102 472.509 244.445 474.166 244.445Z" fill="#AFB9C5"/>
<path d="M494.212 362.945H277.212C275.003 362.945 273.212 364.736 273.212 366.945V397.945C273.212 400.154 275.003 401.945 277.212 401.945H494.212C496.421 401.945 498.212 400.154 498.212 397.945V366.945C498.212 364.736 496.421 362.945 494.212 362.945Z" fill="white"/>
<mask id="mask11_65_7101" style="mask-type:luminance" maskUnits="userSpaceOnUse" x="282" y="374" width="168" height="17">
<path d="M449.212 374.646H282.212V390.246H449.212V374.646Z" fill="white"/>
</mask>
<g mask="url(#mask11_65_7101)">
<path d="M446.287 374.646H285.137C283.522 374.646 282.212 375.955 282.212 377.57C282.212 379.186 283.522 380.495 285.137 380.495H446.287C447.903 380.495 449.212 379.186 449.212 377.57C449.212 375.955 447.903 374.646 446.287 374.646Z" fill="#DDE3E9"/>
<path d="M391.383 384.396H285.137C283.522 384.396 282.212 385.705 282.212 387.32C282.212 388.936 283.522 390.245 285.137 390.245H391.383C392.999 390.245 394.308 388.936 394.308 387.32C394.308 385.705 392.999 384.396 391.383 384.396Z" fill="#DDE3E9"/>
</g>
<path fill-rule="evenodd" clip-rule="evenodd" d="M474.166 389.445C478.032 389.445 481.166 386.311 481.166 382.445C481.166 378.579 478.032 375.445 474.166 375.445C470.3 375.445 467.166 378.579 467.166 382.445C467.166 386.311 470.3 389.445 474.166 389.445Z" fill="#DDE3E9"/>
<path fill-rule="evenodd" clip-rule="evenodd" d="M474.166 385.445C475.823 385.445 477.166 384.102 477.166 382.445C477.166 380.788 475.823 379.445 474.166 379.445C472.509 379.445 471.166 380.788 471.166 382.445C471.166 384.102 472.509 385.445 474.166 385.445Z" fill="#F2F2F2"/>
<path d="M494.212 315.945H277.212C275.003 315.945 273.212 317.736 273.212 319.945V350.945C273.212 353.154 275.003 354.945 277.212 354.945H494.212C496.421 354.945 498.212 353.154 498.212 350.945V319.945C498.212 317.736 496.421 315.945 494.212 315.945Z" fill="white"/>
<mask id="mask12_65_7101" style="mask-type:luminance" maskUnits="userSpaceOnUse" x="282" y="327" width="168" height="17">
<path d="M449.212 327.646H282.212V343.246H449.212V327.646Z" fill="white"/>
</mask>
<g mask="url(#mask12_65_7101)">
<path d="M446.287 327.646H285.137C283.522 327.646 282.212 328.955 282.212 330.57C282.212 332.186 283.522 333.495 285.137 333.495H446.287C447.903 333.495 449.212 332.186 449.212 330.57C449.212 328.955 447.903 327.646 446.287 327.646Z" fill="#DDE3E9"/>
<path d="M391.383 337.396H285.137C283.522 337.396 282.212 338.705 282.212 340.32C282.212 341.936 283.522 343.245 285.137 343.245H391.383C392.999 343.245 394.308 341.936 394.308 340.32C394.308 338.705 392.999 337.396 391.383 337.396Z" fill="#DDE3E9"/>
</g>
<path fill-rule="evenodd" clip-rule="evenodd" d="M474.166 342.445C478.032 342.445 481.166 339.311 481.166 335.445C481.166 331.579 478.032 328.445 474.166 328.445C470.3 328.445 467.166 331.579 467.166 335.445C467.166 339.311 470.3 342.445 474.166 342.445Z" fill="#DDE3E9"/>
<path fill-rule="evenodd" clip-rule="evenodd" d="M474.166 338.445C475.823 338.445 477.166 337.102 477.166 335.445C477.166 333.788 475.823 332.445 474.166 332.445C472.509 332.445 471.166 333.788 471.166 335.445C471.166 337.102 472.509 338.445 474.166 338.445Z" fill="#F2F2F2"/>
<path d="M494.212 268.945H277.212C275.003 268.945 273.212 270.736 273.212 272.945V303.945C273.212 306.154 275.003 307.945 277.212 307.945H494.212C496.421 307.945 498.212 306.154 498.212 303.945V272.945C498.212 270.736 496.421 268.945 494.212 268.945Z" fill="white"/>
<mask id="mask13_65_7101" style="mask-type:luminance" maskUnits="userSpaceOnUse" x="282" y="280" width="168" height="17">
<path d="M449.212 280.646H282.212V296.246H449.212V280.646Z" fill="white"/>
</mask>
<g mask="url(#mask13_65_7101)">
<path d="M446.287 280.646H285.137C283.522 280.646 282.212 281.955 282.212 283.57C282.212 285.186 283.522 286.495 285.137 286.495H446.287C447.903 286.495 449.212 285.186 449.212 283.57C449.212 281.955 447.903 280.646 446.287 280.646Z" fill="#DDE3E9"/>
<path d="M391.383 290.396H285.137C283.522 290.396 282.212 291.705 282.212 293.32C282.212 294.936 283.522 296.245 285.137 296.245H391.383C392.999 296.245 394.308 294.936 394.308 293.32C394.308 291.705 392.999 290.396 391.383 290.396Z" fill="#DDE3E9"/>
</g>
<path fill-rule="evenodd" clip-rule="evenodd" d="M474.166 295.445C478.032 295.445 481.166 292.311 481.166 288.445C481.166 284.579 478.032 281.445 474.166 281.445C470.3 281.445 467.166 284.579 467.166 288.445C467.166 292.311 470.3 295.445 474.166 295.445Z" fill="#DDE3E9"/>
<path fill-rule="evenodd" clip-rule="evenodd" d="M474.166 291.445C475.823 291.445 477.166 290.102 477.166 288.445C477.166 286.788 475.823 285.445 474.166 285.445C472.509 285.445 471.166 286.788 471.166 288.445C471.166 290.102 472.509 291.445 474.166 291.445Z" fill="#F2F2F2"/>
<path fill-rule="evenodd" clip-rule="evenodd" d="M675.198 246.321C671.253 243.646 666.008 242.945 661.288 242.945C642.852 242.945 625.523 249.785 610.553 259.977C602.35 265.561 595.012 272.673 588.534 280.077C584.794 284.352 581.46 288.975 579.099 294.118C577.506 297.589 576.413 301.206 575.672 304.936C574.769 309.482 574.051 314.12 573.727 318.742C573.599 320.562 572.542 330.219 575.568 330.383C575.55 330.621 575.546 330.848 575.565 331.051C568.994 341.325 564.935 353.365 561.17 364.78C557.895 374.714 554.976 384.731 553.082 395.008C550.587 408.537 548.949 422.271 548.17 435.995C548.003 438.944 547.888 441.895 547.789 444.848C547.705 447.367 547.62 449.886 547.537 452.406C547.445 455.229 546.948 458.479 547.397 461.285C547.788 463.729 549.903 463.359 549.997 460.927C550.11 457.99 550.091 455.047 550.22 452.108C550.391 448.207 550.567 444.306 550.758 440.406C552.087 413.314 557.072 386.62 566.273 361.029C569.997 350.673 574.263 340.87 579.747 331.29C584.568 322.867 590.368 314.712 596.296 307.118C602.057 299.737 608.048 292.528 615.107 286.275C620.836 281.201 627.138 276.78 633.616 272.667C641.843 267.443 650.055 262.346 658.967 258.336C663.6 256.252 668.32 254.386 672.989 252.385C673.829 252.026 674.729 251.677 675.537 251.26C678.232 249.87 677.345 247.777 675.198 246.321Z" fill="#004E98" fill-opacity="0.3"/>
<path fill-rule="evenodd" clip-rule="evenodd" d="M601.03 340.945C608.507 340.945 615.161 341.917 622.05 344.888C627.997 347.453 633.417 350.848 638.679 354.544C646.08 359.743 651.91 365.793 655.991 373.81C658.429 378.599 660.218 385.376 658.58 390.6C656.652 396.752 651.356 401.884 644.381 400.8C640.068 400.13 636.115 397.275 632.837 394.588C628.915 391.373 625.776 387.508 623.184 383.215C618.956 376.212 616.472 368.296 612.88 360.978C611.176 357.505 609.529 354.008 607.487 350.707C606.477 349.073 605.401 347.454 603.868 346.239C603.048 345.589 599.59 344.465 600.912 343.006C581.522 343.26 564.344 358.152 560.621 376.586C560.275 378.304 560.004 380.036 559.717 381.765C559.537 382.856 559.61 386.882 558.634 387.579C556.482 389.117 557.386 384.444 557.479 383.771C557.718 382.032 557.972 380.295 558.239 378.56C559.693 369.126 563.893 360.356 570.897 353.628C578.906 345.935 589.713 340.945 601.03 340.945Z" fill="#3A6EA5"/>
<path fill-rule="evenodd" clip-rule="evenodd" d="M62.1501 317.681C80.8165 348.997 102.557 379.319 115.613 413.558C115.087 409.522 114.529 405.49 113.904 401.465C110.592 380.124 106.474 358.939 102.148 337.78C99.9452 327.007 97.6142 316.272 95.2242 305.539C93.9392 299.774 92.6692 294.006 91.3572 288.247C91.0392 286.851 90.7662 284.414 90.3692 281.945C103.057 323.582 115.293 365.25 124.243 407.887C125.417 413.483 126.417 419.069 127.236 424.645C127.516 423.373 127.792 422.101 128.093 420.832C131.715 405.625 137.147 390.539 143.615 376.319C146.707 369.52 150.258 362.869 154.44 356.671C157.048 352.808 163.198 348.216 165.576 344.259C152.567 368.121 147.869 397.977 140.357 423.918C138.524 430.249 136.679 436.569 134.871 442.9C146.199 420.182 163.775 401.516 188.212 393.428C158.632 412.972 140.89 447.199 128.934 482.205C128.895 482.62 128.848 483.035 128.807 483.451C132.326 476.774 136.757 470.734 142.763 466.505C155.619 457.449 169.879 460.087 182.349 467.855C172.562 461.634 154.875 467.299 146.64 473.622C140.745 478.148 135.707 484.22 131.332 490.145C130.284 491.565 128.853 493.222 127.342 494.989C125.224 508.74 121.772 522.397 116.884 535.945C117.691 532.056 117.108 525.837 117.332 522.938C117.356 522.625 117.376 522.31 117.4 521.998C116.657 524.964 115.939 527.896 115.248 530.782C116.622 525.276 117.368 519.528 117.951 513.721C118.101 511.226 118.248 508.73 118.402 506.235C118.353 501.498 118.158 496.744 117.828 491.981C116.659 487.353 115.349 482.987 114.268 479.356C110.371 466.255 104.656 453.705 97.6232 441.996C91.2062 431.311 83.5246 421.633 74.657 412.88C69.8765 408.162 64.8736 403.67 59.9411 399.115C58.1575 397.468 54.9694 393.419 52.2122 391.308C72.2927 402.379 92.9612 414.355 107.61 432.193C105.892 425.598 104.027 419.096 102.054 412.725C92.0432 380.399 79.4035 346.898 62.1501 317.681Z" fill="#DDE3E9"/>
<path fill-rule="evenodd" clip-rule="evenodd" d="M82.2122 494.945C82.2122 530.844 85.055 559.945 123.212 559.945C161.369 559.945 164.212 530.844 164.212 494.945" fill="#C5CFD6"/>
<path d="M513.212 35.9453C513.212 34.2885 511.869 32.9453 510.212 32.9453C508.555 32.9453 507.212 34.2885 507.212 35.9453V54.9453C507.212 56.6022 508.555 57.9453 510.212 57.9453C511.869 57.9453 513.212 56.6022 513.212 54.9453V35.9453Z" fill="#DDE3E9"/>
<path d="M527.212 19.9453C527.212 18.2885 525.869 16.9453 524.212 16.9453C522.555 16.9453 521.212 18.2885 521.212 19.9453V54.9453C521.212 56.6022 522.555 57.9453 524.212 57.9453C525.869 57.9453 527.212 56.6022 527.212 54.9453V19.9453Z" fill="#DDE3E9"/>
<path d="M541.212 11.9453C541.212 10.2885 539.869 8.94531 538.212 8.94531C536.555 8.94531 535.212 10.2885 535.212 11.9453V54.9453C535.212 56.6022 536.555 57.9453 538.212 57.9453C539.869 57.9453 541.212 56.6022 541.212 54.9453V11.9453Z" fill="#DDE3E9"/>
<path d="M555.212 19.9453C555.212 18.2885 553.869 16.9453 552.212 16.9453C550.555 16.9453 549.212 18.2885 549.212 19.9453V54.9453C549.212 56.6022 550.555 57.9453 552.212 57.9453C553.869 57.9453 555.212 56.6022 555.212 54.9453V19.9453Z" fill="#DDE3E9"/>
<path d="M569.212 3.94531C569.212 2.28846 567.869 0.945312 566.212 0.945312C564.555 0.945312 563.212 2.28846 563.212 3.94531V54.9453C563.212 56.6022 564.555 57.9453 566.212 57.9453C567.869 57.9453 569.212 56.6022 569.212 54.9453V3.94531Z" fill="#C5CFD6"/>
<path fill-rule="evenodd" clip-rule="evenodd" d="M15.2122 307.201C15.2122 296.062 24.2142 286.945 35.2122 286.945V307.201L21.5442 321.945C17.6562 318.34 15.2122 313.052 15.2122 307.201Z" fill="#F2F2F2"/>
<path fill-rule="evenodd" clip-rule="evenodd" d="M34.6828 306.945H54.8801C54.8801 312.166 52.7503 317.058 49.3834 320.613C45.6802 324.501 40.4067 326.945 34.6828 326.945C29.4104 326.945 24.5842 324.836 20.8801 321.502L34.6828 306.945Z" fill="#AFB9C5"/>
<path fill-rule="evenodd" clip-rule="evenodd" d="M55.2122 306.945C55.2122 295.947 46.2102 286.945 35.2122 286.945V306.945H55.2122ZM25.2122 286.945L33.2122 304.945L15.2122 296.945C16.9922 292.279 20.9892 288.725 25.2122 286.945Z" fill="#C5CFD6"/>
<path fill-rule="evenodd" clip-rule="evenodd" d="M665.978 316.124C664.057 318.164 661.335 319.445 658.307 319.445C652.49 319.445 647.774 314.744 647.774 308.945C647.774 303.146 652.49 298.445 658.307 298.445V278.945C641.758 278.945 628.212 292.448 628.212 308.945C628.212 325.442 641.758 338.945 658.307 338.945C667 338.945 674.857 335.279 680.212 329.447L665.978 316.124Z" fill="#F2F2F2"/>
<path fill-rule="evenodd" clip-rule="evenodd" d="M658.212 278.945V298.445C664.011 298.445 668.712 303.146 668.712 308.945H688.212C688.212 292.448 674.709 278.945 658.212 278.945Z" fill="#AFB9C5"/>
<path fill-rule="evenodd" clip-rule="evenodd" d="M668.309 308.945C668.309 312.352 666.704 315.38 664.212 317.336L676.474 332.945C683.611 327.357 688.212 318.694 688.212 308.945H668.309Z" fill="#C5CFD6"/>
<path fill-rule="evenodd" clip-rule="evenodd" d="M475.263 40.4492C473.785 42.0132 471.691 42.9953 469.362 42.9953C464.887 42.9953 461.26 39.3912 461.26 34.9453C461.26 30.4994 464.887 26.8953 469.362 26.8953V11.9453C456.632 11.9453 446.212 22.2976 446.212 34.9453C446.212 47.593 456.632 57.9453 469.362 57.9453C476.049 57.9453 482.092 55.1343 486.212 50.6633L475.263 40.4492Z" fill="#F2F2F2"/>
<path fill-rule="evenodd" clip-rule="evenodd" d="M469.212 11.9453V26.8953C473.658 26.8953 477.262 30.4994 477.262 34.9453H492.212C492.212 22.2976 481.86 11.9453 469.212 11.9453Z" fill="#AFB9C5"/>
<path fill-rule="evenodd" clip-rule="evenodd" d="M477.285 34.9453C477.285 37.5005 476.081 39.7719 474.212 41.2384L483.408 52.9453C488.762 48.7541 492.212 42.2573 492.212 34.9453H477.285Z" fill="#C5CFD6"/>
<path fill-rule="evenodd" clip-rule="evenodd" d="M111.219 57.9314C111.215 57.9414 111.211 57.9514 111.205 57.9634C111.211 57.9534 111.219 57.9134 111.219 57.9314Z" fill="#C5CFD6"/>
<path fill-rule="evenodd" clip-rule="evenodd" d="M111.21 57.9466C111.21 57.9486 111.208 57.9526 111.208 57.9566C111.208 57.9466 111.226 57.9166 111.21 57.9466Z" fill="#C5CFD6"/>
<path fill-rule="evenodd" clip-rule="evenodd" d="M111.279 57.7773C111.265 57.8173 111.247 57.8553 111.231 57.8953C111.239 57.8753 111.247 57.8593 111.255 57.8393C111.047 58.3593 111.179 58.0213 111.279 57.7773Z" fill="#C5CFD6"/>
<path fill-rule="evenodd" clip-rule="evenodd" d="M111.234 57.8984C111.226 57.9164 111.218 57.9364 111.21 57.9544C111.152 58.0664 111.234 57.8984 111.234 57.8984Z" fill="#C5CFD6"/>
<path fill-rule="evenodd" clip-rule="evenodd" d="M111.202 57.9609C111.19 57.9849 111.258 57.8689 111.202 57.9609V57.9609Z" fill="#C5CFD6"/>
<path fill-rule="evenodd" clip-rule="evenodd" d="M111.21 57.9474L111.214 57.9434C111.212 57.9454 111.212 57.9474 111.21 57.9474Z" fill="#C5CFD6"/>
<path d="M154.212 5.94531H67.2122C65.003 5.94531 63.2122 7.73617 63.2122 9.94531V64.9453C63.2122 67.1545 65.003 68.9453 67.2122 68.9453H154.212C156.421 68.9453 158.212 67.1545 158.212 64.9453V9.94531C158.212 7.73617 156.421 5.94531 154.212 5.94531Z" fill="#DDE3E9"/>
<path fill-rule="evenodd" clip-rule="evenodd" d="M99.2122 23.9453L71.2122 68.9453H127.212L99.2122 23.9453Z" fill="#AFB9C5"/>
<path fill-rule="evenodd" clip-rule="evenodd" d="M126.712 35.9453L102.212 68.9453H151.212L126.712 35.9453Z" fill="#C5CFD6"/>
<path fill-rule="evenodd" clip-rule="evenodd" d="M137.212 35.9453C142.183 35.9453 146.212 31.9159 146.212 26.9453C146.212 21.9747 142.183 17.9453 137.212 17.9453C132.241 17.9453 128.212 21.9747 128.212 26.9453C128.212 31.9159 132.241 35.9453 137.212 35.9453Z" fill="white"/>
<path fill-rule="evenodd" clip-rule="evenodd" d="M588.205 484.931C588.209 484.941 588.213 484.951 588.219 484.963C588.213 484.953 588.205 484.913 588.205 484.931Z" fill="#C5CFD6"/>
<path fill-rule="evenodd" clip-rule="evenodd" d="M588.214 484.947C588.214 484.949 588.216 484.953 588.216 484.957C588.216 484.947 588.198 484.917 588.214 484.947Z" fill="#C5CFD6"/>
<path fill-rule="evenodd" clip-rule="evenodd" d="M588.145 484.777C588.159 484.817 588.177 484.855 588.193 484.895C588.185 484.875 588.177 484.859 588.169 484.839C588.377 485.359 588.245 485.021 588.145 484.777Z" fill="#C5CFD6"/>
<path fill-rule="evenodd" clip-rule="evenodd" d="M588.19 484.898C588.198 484.916 588.206 484.936 588.214 484.954C588.272 485.066 588.19 484.898 588.19 484.898Z" fill="#C5CFD6"/>
<path fill-rule="evenodd" clip-rule="evenodd" d="M588.222 484.961C588.166 484.869 588.234 484.985 588.222 484.961V484.961Z" fill="#C5CFD6"/>
<path fill-rule="evenodd" clip-rule="evenodd" d="M588.214 484.947L588.21 484.943C588.212 484.945 588.212 484.947 588.214 484.947Z" fill="#C5CFD6"/>
<path d="M521.212 407.945H655.212C657.421 407.945 659.212 409.736 659.212 411.945V497.945C659.212 500.154 657.421 501.945 655.212 501.945H521.212C519.003 501.945 517.212 500.154 517.212 497.945V411.945C517.212 409.736 519.003 407.945 521.212 407.945Z" fill="#DDE3E9"/>
<path fill-rule="evenodd" clip-rule="evenodd" d="M606.486 434.945L647.541 501.945H565.431L606.486 434.945Z" fill="#AFB9C5"/>
<path fill-rule="evenodd" clip-rule="evenodd" d="M564.156 452.893L600.451 501.946H527.861L564.156 452.893Z" fill="#C5CFD6"/>
<path fill-rule="evenodd" clip-rule="evenodd" d="M548.712 452.945C541.256 452.945 535.212 446.901 535.212 439.445C535.212 431.989 541.256 425.945 548.712 425.945C556.168 425.945 562.212 431.989 562.212 439.445C562.212 446.901 556.168 452.945 548.712 452.945Z" fill="white"/>
</svg>
