<svg width="24" height="34" viewBox="0 0 24 34" fill="none" xmlns="http://www.w3.org/2000/svg">
<path fill-rule="evenodd" clip-rule="evenodd" d="M22.3596 6.26056C19.1121 8.02148 15.8645 9.78241 12.6177 11.5433C11.5441 8.956 9.73055 1.88751 7.00766 0.98503C2.59985 -0.476396 5.40663 7.22873 6.16733 8.99045C6.79224 10.4375 8.24185 12.6796 7.88994 14.4045C7.41787 16.7284 4.50729 17.5516 2.98375 18.7504C-0.786348 21.7181 -0.756495 27.9505 4.70351 25.3096C7.79324 23.8145 11.6188 19.6689 13.9869 24.3758C15.0803 26.5476 17.671 38.681 20.3768 30.7461C22.0511 25.8333 13.9926 20.7291 17.9653 16.573C19.2443 15.2357 20.7415 15.1228 22.0191 14.3541C25.1046 12.4971 23.3649 9.0657 22.3596 6.26056Z" fill="black"/>
</svg>
