<svg width="729" height="615" viewBox="0 0 729 615" fill="none" xmlns="http://www.w3.org/2000/svg">
<g opacity="0.8">
<path fill-rule="evenodd" clip-rule="evenodd" d="M373.526 75.8809C371.326 82.4398 369.127 88.9998 366.927 95.559C365.516 99.7623 364.107 103.965 362.697 108.168C362.197 109.658 361.919 111.187 360.952 112.222C358.673 114.658 354.582 116.208 351.843 117.922C350.008 119.07 348.172 120.218 346.337 121.367C345.391 121.959 343.293 122.703 342.63 123.686C341.9 124.77 342.245 126.76 342.245 128.258V141.194V165.568C351.724 164.233 361.204 162.899 370.683 161.564C358.054 177.978 345.425 194.391 332.796 210.804C329.684 214.849 325.905 218.742 323.586 223.449C318.651 233.466 313.826 243.556 308.948 253.609C304.406 262.966 299.865 272.324 295.323 281.681L336.18 279.723C346.758 279.216 357.625 279.978 367.817 276.601C376.219 273.818 384.62 271.035 393.022 268.251C394.139 267.881 397.62 267.462 398.412 266.449C399.154 265.5 399.138 261.915 399.348 260.701C403.313 237.743 408.362 212.443 419.936 192.68C428.234 178.514 439.431 166.11 449.686 153.757C453.688 148.935 457.761 144.171 461.621 139.203C462.61 137.931 464.038 136.487 464.692 134.941C465.114 133.943 465.705 132.04 465.442 131.154C465.328 130.769 462.69 129.39 462.312 129.117C459.638 127.181 456.988 125.205 454.332 123.238C446.868 117.711 439.412 112.17 431.906 106.717C426.054 102.465 420.219 97.9566 414.046 94.3026C407.649 90.5149 400.603 87.8491 393.895 84.8566C387.117 81.832 380.326 78.8421 373.526 75.8809Z" fill="white" fill-opacity="0.01"/>
<path fill-rule="evenodd" clip-rule="evenodd" d="M603.58 426.289C600.325 429.744 594.398 434.38 589.713 432.272C587.36 431.213 585.35 428.889 583.207 427.39C580.689 425.628 578.321 423.865 576.186 421.517C571.927 416.831 568.702 409.985 563.672 406.317C561.981 405.084 558.681 404.82 557.508 402.85C556.982 401.967 556.933 400.627 557.03 399.606C557.24 397.408 558.295 397.537 556.533 395.923H559.27C559.322 394.732 558.267 394.634 557.481 394.787C557.846 392.9 558.219 385.514 555.165 388.862C552.517 391.763 553.841 396.576 551.967 399.719C550.531 402.125 546.722 400.177 546.208 397.529C545.977 396.34 547.14 394.483 547.279 393.317C547.583 390.731 546.558 388.496 545.069 386.538C541.803 388.989 543.654 394.062 541.793 397.283C540.109 400.197 536.358 398.837 533.794 398.324C530.72 397.709 527.244 398.332 524.303 397.514C519.862 396.279 521.52 390.406 521.081 386.615C520.609 382.555 516.966 376.919 518.061 372.822C519.237 368.423 526.111 367.473 529.397 366.405C536.906 363.965 547.618 363.496 553.201 356.665C557.641 362.244 561.213 368.631 565.871 374.001C570.901 379.801 576.274 385.156 581.104 391.189C586.13 397.469 591.319 403.628 596.162 410.09C598.276 412.908 600.131 415.946 602.317 418.697C604.261 421.143 606.31 423.393 603.58 426.289ZM380.372 317.805C382.68 316.423 382.973 317.289 382.973 320.136C382.309 318.769 381.65 318.403 380.372 317.805ZM360.807 373.144V368.126C363.032 368.061 361.664 372.353 360.807 373.144ZM360.263 380.617C360.263 378.395 360.21 376.279 360.779 374.118C361.077 376.473 361.647 378.512 360.263 380.617ZM369.828 533.263C371.871 533.479 375.02 531.893 376.738 533.699C378.504 535.554 378.362 540.955 378.78 543.461C379.471 547.604 380.083 551.76 380.666 555.922C381.047 558.651 381.519 561.423 378.78 562.467C374.732 564.009 368.948 561.808 364.729 561.608C356.394 561.213 348.062 560.664 339.72 560.473C331.634 560.289 323.53 560.435 315.482 561.382C311.846 561.81 308.291 562.565 304.692 563.249C302.795 563.611 297.713 565.12 295.999 563.319C292.776 559.929 298.135 552.013 300.44 549.777C304.718 545.628 310.801 542.636 316.165 540.835C319.032 539.871 323.811 537.167 326.068 540.192C327.801 542.512 327.732 545.608 330.215 547.366C335.967 551.439 332.601 539.756 329.007 538.318C331.42 531.955 336.021 540.939 337.929 543.097C338.608 543.865 340.816 546.397 341.775 545.124C342.493 544.171 341.059 540.756 340.793 539.827C340.39 538.416 339.368 536.27 339.662 534.74C340.193 531.971 343.641 531.217 345.707 530.986C348.909 530.629 352.051 531.772 355.218 532.154C360.073 532.74 364.967 532.749 369.828 533.263ZM337.671 272.44C331.349 273.007 324.986 271.918 318.679 272.809C312.711 273.653 307.088 276.121 301.462 278.388C309.826 256.294 320.646 236.181 333.835 217.339C340.402 207.955 347.466 198.635 354.563 189.754C357.865 185.622 361.28 181.627 364.69 177.611C367.732 174.028 369.911 167.944 373.561 165.268C376.676 162.984 382.12 164.613 385.573 164.755C389.475 164.915 394.224 165.315 398.03 163.852C400.787 162.791 401.546 159.962 398.094 159.869C394.022 159.757 390.017 160.235 385.892 159.805C375.205 158.693 364.903 156.865 354.128 157.902C351.66 158.139 348.411 159.323 345.989 158.968C344.247 158.711 345.392 159.697 344.182 158.123C343.718 157.521 343.159 156.105 343.022 155.305C342.251 150.812 344.441 144.391 344.965 139.867C345.45 135.681 345.021 131.08 345.928 127.003C346.754 123.293 349.272 122.798 352.373 122.402C360.857 121.317 369.515 120.739 378.037 119.922C397.485 118.056 417.551 115.241 436.867 119.852C443.842 121.517 452.347 124.091 458.578 128.214C460.527 129.502 462.492 131.02 461.784 133.689C461.049 136.461 457.444 139.389 455.659 141.214C442.465 154.706 429.721 168.467 420.453 185.779C408.632 207.854 401.849 231.695 397.87 256.991C397.014 262.433 396.219 265.282 391.248 266.848C385.912 268.531 380.761 269.624 375.228 270.135C362.719 271.293 350.173 271.317 337.671 272.44ZM341.907 126.249C340.949 134.285 339.652 142.303 339.524 150.403C339.475 153.462 339.218 154.994 336.33 155.677C332.925 156.481 329.464 157.079 326.044 157.914C309.536 161.943 293.341 166.892 277.192 172.462C261.496 177.877 246.059 183.969 230.011 187.98C223.108 189.706 215.03 190.868 208.742 194.689C201.979 198.8 202.869 205.54 202.262 212.944C201.45 222.835 198.846 232.412 197.931 242.299C197.493 247.024 197.094 251.777 197.16 256.531C197.216 260.584 197.731 265.065 195.313 268.475C190.461 261.169 188.161 251.979 187.205 243.024C186.74 238.671 186.924 234.283 186.791 229.91C186.684 226.389 186.753 220.788 184.717 217.848C180.291 211.457 174.534 237.066 173.987 239.801C173.066 244.404 172.307 249.045 171.39 253.649C170.983 255.689 170.461 263.107 168.034 263.846C163.004 265.379 164.108 249.458 164.029 247.034C163.87 242.142 163.761 237.243 163.863 232.347C163.937 228.812 164.544 224.976 164.184 221.44C163.299 212.757 158.964 221.905 157.746 225.137C154.666 233.296 153.274 242.03 150.512 250.319C150.053 251.698 148.974 256.34 147.264 256.427C145.362 256.522 145.377 251.728 145.268 250.327C144.637 242.208 142.504 234.146 143.148 225.943C143.798 217.659 146.375 209.144 150.023 201.939C157.736 186.707 171.663 177.961 185.003 169.994C200.27 160.878 216.387 153.675 232.849 147.808C252.647 140.752 272.976 135.042 293.427 130.979C303.831 128.912 314.396 127.434 324.908 126.249C328.602 125.832 332.297 125.589 335.943 124.797C337.32 124.497 342.286 123.074 341.907 126.249ZM352.542 100.244C347.326 100.29 341.998 97.4421 336.916 96.265C330.866 94.862 324.957 92.832 318.918 91.3674C307.091 88.4998 295.259 85.7035 283.443 82.7726C278.313 81.5002 273.159 80.3927 268.05 79.026C262.583 77.5638 256.677 75.9334 251.082 77.5085C242.602 79.8964 239.019 90.3472 235.905 98.5031C233.706 104.264 231.982 110.685 228.552 115.698C227.331 117.486 225.595 119.617 223.38 119.038C219.266 117.964 219.919 111.831 220.443 108.442C221.202 103.522 222.278 98.6609 223.139 93.7641C223.486 91.7878 226.175 78.853 221.374 80.8555C217.813 82.341 215.929 92.1249 214.581 95.6195C213.58 98.2165 212.518 100.797 211.394 103.329C209.894 106.708 205.614 117.997 200.876 116.541C194.095 114.457 200.599 94.3775 201.755 90.1454C202.389 87.8223 209.281 70.2046 203.464 71.6444C200.986 72.2586 198.573 77.442 197.309 79.5905C195.069 83.4012 192.836 87.2394 190.727 91.144C188.558 95.1599 187.451 99.7307 185.299 103.688C184.167 105.771 181.858 108.547 179.603 106.618C176.087 103.615 178.171 93.1659 178.786 89.2149C179.932 81.8693 182.777 74.339 186.681 68.3339C192.547 59.3107 203.615 56.3951 212.923 54.6422C224.937 52.3792 237.118 52.9982 249.183 54.3371C262.751 55.8434 276.112 57.4561 289.486 60.5359C302.965 63.6398 316.451 66.7188 329.722 70.8236C335.974 72.7575 342.316 74.4719 348.479 76.7421C355.031 79.1549 361.425 82.1576 368.16 83.8961C365.791 90.5546 363.421 97.2131 361.052 103.872C358.785 101.346 355.69 100.215 352.542 100.244ZM468.655 118.592C470.732 117.313 473.027 116.709 473.785 113.881C474.455 111.381 473.31 108.55 472.763 106.151C471.231 99.4337 470.828 92.4757 472.183 85.6794C473.479 87.9064 478.327 96.4724 481.276 91.2865C483.055 88.1587 478.289 83.6591 476.897 81.4601C479.95 79.3383 484.31 73.6431 487.828 77.0777C490.102 79.2982 491.064 81.4361 494.128 82.5155C497.847 83.8264 501.348 83.5261 505.146 83.1642C507.805 82.9111 508.445 82.5115 509.484 84.8178C510.299 86.6308 510.721 88.8745 511.197 90.8212C512.136 94.6594 514.309 102.222 511.735 105.817C509.481 108.967 500.732 106.267 499.517 110.332C498.855 112.55 502.017 112.629 503.226 113.726C504.722 115.084 505.96 117.245 506.773 119.176C507.375 120.604 508.291 122.963 507.266 124.423C505.85 126.442 503.225 124.911 502.083 123.443C500.567 121.493 500.075 118.827 498.811 116.703C496.489 112.807 496.351 115.907 495.719 118.704C495.063 121.611 493.51 121.411 491.132 121.784C486.959 122.44 482.743 123.365 478.681 124.625C476.6 125.27 474.582 126.092 472.599 127.053C471.322 127.672 469.107 129.545 467.721 129.562C465.152 129.595 463.371 124.756 462.045 122.737C464.247 121.353 466.442 119.955 468.655 118.592ZM606.597 414.9C600.182 406.226 594.626 396.802 588.296 388.052C582.054 379.422 574.831 371.876 567.825 364.06C564.518 360.371 561.35 356.323 557.7 353.055C554.978 350.615 552.882 350.578 549.607 351.658C540.301 354.728 530.825 358.424 522.018 363.005C513.817 367.272 506.347 372.75 497.453 375.129C488.376 377.558 478.936 378.338 469.632 377.736C460.089 377.118 451.088 374.882 442.012 371.594C433.416 368.481 424.454 365.762 417.103 359.591C409.397 353.123 403.443 343.818 397.926 335.068C395.133 330.638 392.36 325.985 390.478 320.964C388.845 316.607 387.778 311.464 384.847 307.913C384.129 309.061 383.234 310.045 382.869 311.392C382.702 312.005 383.682 311.986 383.582 312.473C383.392 313.39 382.309 314.325 381.679 314.824C379.416 316.618 379.402 315.19 379.996 318.544C380.341 320.5 379.687 324.911 376.856 323.47C377.899 324.875 376.243 326.649 375.702 327.807C375.33 327.326 374.867 327.158 374.314 327.303C375.349 329.625 374.738 329.687 373.735 331.531C373.551 331.868 372.902 333.633 372.995 333.484C371.97 335.128 370.786 335.542 370.188 337.591C369.697 339.273 369.822 341.123 369.275 342.803C368.613 341.772 367.951 340.742 367.289 339.712C367.424 340.522 367.695 341.722 368.009 342.457C368.206 342.917 369.054 343.99 369.043 344.24C368.996 345.177 367.958 344.952 367.663 345.76C367.107 347.276 367.91 347.5 367.607 348.979C367.26 350.676 366.329 349.997 365.886 351.444C365.802 351.719 366.456 352.8 366.352 353.393C366.207 354.23 365.533 354.699 365.294 355.443C364.689 357.338 364.909 358.725 364.068 360.542C363.742 361.247 363.268 361.716 363.039 362.517C362.837 363.221 363.27 364.721 362.882 365.352C361.007 368.394 361.271 363.154 361.413 361.854C362.606 350.942 366.436 339.68 369.941 329.48C371.683 324.413 373.379 319.187 375.562 314.334C376.441 312.379 377.455 310.362 378.908 308.867C380.745 306.975 383.351 306.219 385.014 304.106C384.752 304.439 386.818 302.237 386.488 302.961C386.783 302.314 386.267 301.438 386.451 300.812C386.679 300.034 387.11 299.871 387.591 299.19C388.455 297.968 389.481 297.36 388.124 295.803C390.137 295.302 391.1 294.566 391.502 292.137C391.796 290.36 391.203 290.476 392.238 289.292C393.277 288.102 393.803 289.031 394.458 286.97C395.241 284.505 395.76 281.152 396.229 278.572C396.639 276.319 395.645 273.006 397.331 271.416C399.466 269.402 401.376 270.255 400.993 266.204C400.62 262.256 401.709 259.864 402.804 256.127C404.989 248.668 405.834 240.792 407.749 233.244C411.837 217.136 419.06 202.612 426.826 188.432C434.002 175.33 444.035 164.167 453.723 153.417C456.376 150.472 458.999 147.485 461.381 144.257C463.432 141.478 464.369 137.693 466.341 135.055C467.539 133.452 469.77 132.767 471.442 131.917C474.232 130.5 477.556 128.651 480.705 128.938C479.454 133.689 479.046 139.24 482.738 142.803C487.218 147.125 491.278 142.635 495.385 140.171C502.869 135.679 513.574 139.803 520.1 133.07C521.655 131.467 522.089 128.906 523.704 127.408C524.89 126.31 526.577 126.032 527.912 125.213C531.968 122.727 533.937 118.175 532.358 113.147C530.914 108.551 528.671 106.956 533.664 104.627C537.716 102.737 539.257 99.8893 537.422 94.8195C535.673 89.986 532.47 89.4295 529.439 86.2664C526.502 83.2026 529.875 79.637 532.075 77.3371C534.911 74.3702 535.454 71.6964 532.165 68.611C528.721 65.3807 523.805 65.4936 519.79 67.0911C515.25 68.8969 512.259 71.899 510.339 76.7638C508.382 81.7164 503.533 80.3342 499.605 78.9539C495.85 77.6342 494.872 74.7866 492.406 71.7205C489.663 68.3099 484.073 71.2264 480.838 72.7847C472.87 76.6204 464.952 82.6741 464.635 93.3974C464.447 99.7916 466.848 105.226 468.096 111.228C469.238 116.717 461.41 116.284 460.054 121.594C445.593 112.971 429.488 110.332 413.323 109.745C396.141 109.121 378.713 108.62 361.678 111.673C365.632 103.913 367.72 95.4041 371.16 87.4323C372.151 85.1373 372.577 85.3335 374.763 86.027C378.961 87.3587 383.128 88.8489 387.317 90.2207C402.622 95.232 417.627 101.27 432.425 107.883C433.864 108.526 437.075 110.311 438.335 108.37C439.79 106.131 436.425 103.372 435.063 102.246C429.104 97.322 421.719 94.3335 415.046 90.8789C400.455 83.3283 384.299 79.7443 369.075 74.1364C336.209 62.0278 302.207 52.8316 268.052 46.7577C259.717 45.2755 251.294 45.0584 242.922 43.9582C235.507 42.9836 228.079 43.006 220.664 44.0126C206.97 45.8728 191.094 49.8863 183.36 64.0057C176.378 76.7542 171.717 91.0871 173.498 106.209C174.034 110.751 175.741 116.13 180.717 114.959C184.169 114.147 186.002 110.844 187.604 107.62C190.026 102.75 192.417 97.8793 195.041 93.1395C196.015 100.246 192.478 107.235 193.034 114.475C193.412 119.388 195.822 127.149 201.485 125.759C209.246 123.853 212.44 110.195 216.172 103.643C216.361 108.69 214.79 113.664 215.271 118.721C215.745 123.717 219.211 128.434 224.079 127.749C228.67 127.104 231.654 121.563 233.604 117.392C236.318 111.587 238.267 105.363 240.917 99.5201C243.401 94.0428 246.344 87.522 252.275 86.493C257.568 85.5737 263.633 87.7014 268.861 88.5791C283.364 91.0134 297.574 95.1583 311.918 98.5071C327.298 102.097 343.041 104.278 357.946 110.07C352.705 118.105 338.99 116.369 331.182 117.232C319.384 118.535 307.433 119.516 295.702 121.44C284.115 123.339 272.77 126.711 261.274 129.159C249.838 131.595 238.421 134.034 227.356 138.187C206.81 145.897 185.922 155.656 167.82 169.11C159.398 175.37 151.916 182.525 146.713 192.407C141.477 202.35 138.961 213.594 138.001 225.031C137.404 232.154 138.419 238.317 139.644 245.249C140.531 250.267 140.818 258.67 144.391 262.345C151.209 269.359 156.87 240.908 158.129 237.472C159.036 243.103 157.554 274.827 168.494 272.247C173.377 271.096 174.485 263.547 175.294 259.001C176.772 250.712 178.095 242.256 180.621 234.273C182.243 245.029 182.919 256.235 186.413 266.509C188.733 273.331 195.354 285.438 199.97 273.757C203.432 264.998 202.245 254.944 202.66 245.643C203.12 235.337 205.747 225.397 206.676 215.191C207.037 211.238 206.711 206.782 210.238 204.625C213.265 202.774 217.693 202.171 220.999 201.137C230.791 198.075 240.647 195.26 250.392 192.011C260.142 188.76 269.757 184.962 279.376 181.255C288.576 177.71 297.97 175.694 307.282 172.659C312.576 170.932 317.807 169.126 323.175 167.685C325.673 167.015 328.202 166.493 330.695 165.798C332.542 165.284 334.977 163.344 336.876 163.378C338.831 163.414 339.566 165.279 341.808 165.425C344.222 165.582 346.676 164.982 349.076 164.775C354.923 164.27 361.139 163.453 366.973 164.366C363.467 169.05 358.731 172.289 354.581 176.169C349.794 180.645 345.161 185.478 341.073 190.763C332.846 201.397 325.07 212.638 317.847 224.159C310.721 235.524 304.984 247.961 299.996 260.668C297.51 267 295.097 273.47 293.38 280.125C292.675 282.859 292.099 285.603 290.826 288.09C289.658 290.37 288.012 292.336 289.393 295.09C290.343 294.42 291.197 293.587 292.057 292.782C291.063 300.663 288.92 308.286 287.818 316.143C286.732 323.883 286.776 331.844 286.846 339.661C286.994 356.032 288.075 372.032 291.023 388.09C294.005 404.328 297.835 420.442 302.665 436.106C307.315 451.188 311.981 467.004 318.471 481.219C325.402 496.402 333.648 512.365 343.682 525.216C337.128 528.24 328.787 527.675 321.847 528.893C314.593 530.166 308.317 532.569 302.135 537.09C295.88 541.666 292.485 547.556 291.62 555.899C291.006 561.837 289.181 570.058 296.097 571.618C301.071 572.739 306.632 570.897 311.617 570.441C320.335 569.645 329.067 569.148 337.805 568.719C346.521 568.29 355.238 567.913 363.956 567.609C368.057 567.465 372.16 567.393 376.259 567.228C378.096 567.154 379.21 567.122 380.858 567.72C382.16 568.193 382.065 569.176 383.515 567.961C385.854 566.002 385.373 559.824 385.307 557.107C385.208 552.915 384.855 548.675 384.129 544.562C383.698 542.118 378.469 526.365 382.535 525.702C377.811 519.854 375.924 511.504 373.802 504.176C371.143 494.994 368.809 485.838 366.977 476.394C363.064 456.222 361.334 435.829 361.334 415.189C379.476 427.784 398.67 434.607 420.038 435.368C441.282 436.125 464.622 434.159 484.795 426.199C494.136 422.512 502.504 417.671 510.513 411.148C513.384 408.811 516.46 403.516 520.228 403.606C524.724 403.715 529.76 405.632 534.225 406.452C542.765 408.02 553.911 408.905 561.141 414.855C565.069 418.087 567.883 422.611 571.388 426.334C574.054 429.167 577.58 430.706 580.226 433.539C583.081 436.595 581.947 440.589 586.681 440.836C590.728 441.047 595.165 439.213 598.655 437.061C605.618 432.766 613.033 423.6 606.597 414.9Z" fill="black"/>
<path fill-rule="evenodd" clip-rule="evenodd" d="M539.673 210.63C549.862 218.783 561.55 224.352 572.199 231.695C574.864 233.533 583.168 237.348 583.087 240.757C583.04 242.75 580.545 245.25 579.452 246.631C577.58 248.997 575.819 251.388 574.092 253.892C566.185 265.355 558.738 276.926 550.169 287.814C548.878 289.451 544.992 297.271 543.737 293.387C543.168 291.626 543.637 289.647 542.154 288.006C541.392 287.16 538.443 286.694 539.302 284.88C539.874 285.17 540.447 285.461 541.021 285.75C540.575 284.301 540.608 282.713 539.941 281.342C539.527 280.491 538.717 280.088 538.436 279.13C538.048 277.805 538.706 276.266 538.596 274.901C538.487 273.54 537.861 272.253 537.487 270.968C535.27 263.355 534.474 255.679 533.339 247.823C532.216 240.05 530.466 232.52 529.779 224.661C529.053 216.359 528.164 208.074 526.977 199.839C529.095 200.174 530.723 202.766 532.221 204.231C534.576 206.534 537.132 208.598 539.673 210.63ZM531.684 291.002C531.198 290.572 530.818 290.044 530.543 289.418C535.538 286.631 532.524 291.385 531.684 291.002ZM528.647 285.059C526.47 285.735 524.906 285.872 523.228 284.863C523.069 284.767 523.252 284.03 522.965 283.879C522.714 283.747 522.331 283.91 522.116 283.786C521.385 283.368 520.105 284.285 519.981 282.682C522.759 281.724 525.492 279.957 528.425 279.659C532.501 279.246 532.313 283.92 528.647 285.059ZM519.109 275.818C516.139 276.6 513.692 278.428 510.536 277.95C507.574 277.504 504.999 275.773 502.663 273.779C508.509 271.915 514.639 271.579 520.48 269.775C522.382 269.188 524.881 267.64 526.93 268.264C529.208 268.958 529.351 271.36 530.034 273.546C526.389 274.284 522.717 274.868 519.109 275.818ZM500.532 266.542C497.678 267.31 494.761 268.989 492.375 266.091C491.99 265.623 491.653 266.09 491.699 264.649C491.746 263.13 492.97 262.152 494.023 261.617C496.499 260.36 499.969 261.172 502.598 260.987C506.792 260.694 511.06 259.712 515.209 258.956C518.081 258.433 521.047 257.272 523.983 257.501C526.249 257.678 528.984 259.854 525.681 261.441C522.673 262.887 518.162 262.665 514.903 263.291C510.086 264.217 505.286 265.262 500.532 266.542ZM497.744 251.42C497.929 251.632 498.114 251.844 498.299 252.056C498.268 252.048 499.393 251.022 499.691 250.993C501.138 250.851 502.593 250.963 504.042 250.871C507.38 250.659 510.745 250.004 514.024 249.282C516.695 248.695 519.416 247.682 522.165 247.935C524.545 248.155 524.795 248.704 524.951 251.292C518.876 251.292 512.617 251.147 506.646 252.596C502.759 253.539 498.474 256.346 496.527 251.285C496.933 251.33 497.338 251.375 497.744 251.42ZM501.543 240.466C503.049 241.758 507.156 239.609 508.962 239.394C510.923 239.161 512.768 238.918 514.668 238.368C516.353 237.879 521.928 235.44 523.22 237.773C525.201 241.347 517.179 242.002 515.907 242.179C510.572 242.922 505.038 243.58 499.847 245.156C500.412 243.593 500.978 242.03 501.543 240.466ZM508.86 228.327C509.249 229.979 521.313 223.891 521.532 228.316C521.702 231.71 509.597 233.401 507.421 233.103C507.931 231.54 509.286 230.141 508.86 228.327ZM512.91 217.943C513.167 214.611 513.563 214.63 515.936 214.316C517.745 214.077 520.232 212.882 519.761 216.514C519.358 219.625 512.652 221.306 512.91 217.943ZM517.222 206.478C517.793 204.689 519.077 207.097 519.104 208.007C519.176 210.428 517.547 209.904 515.978 209.904C516.415 208.773 516.83 207.63 517.222 206.478ZM537.076 193.05C536.756 192.616 534.96 192.45 534.449 192.24C533.192 191.721 533.371 190.615 531.763 191.705C531.682 191.614 531.835 190.794 531.748 190.756C531.704 190.737 530.577 190.258 530.211 189.994C529.327 189.357 528.531 188.733 527.719 187.933C526.856 187.083 525.991 185.85 525.005 185.173C524.589 184.888 524.25 184.484 523.748 184.397C522.448 184.171 522.821 185.191 521.684 185.394C520.983 185.519 520.474 184.598 519.558 184.995C518.767 185.338 518.307 186.588 517.955 187.332C516.673 190.039 515.684 192.953 514.429 195.689C508.012 209.681 500.719 223.142 494.503 237.265C491.509 244.069 488.386 250.919 486.278 258.149C484.759 263.364 481.328 270.982 484.28 276.193C486.426 279.981 490.724 281.617 494.153 283.448C499.312 286.202 504.068 289.803 509.284 292.473C515.504 295.658 521.544 298.989 527.607 302.546C530.193 304.062 532.526 306.247 535.103 307.683C536.68 308.562 539.114 307.063 539.627 309.077C541.603 306.381 544.801 308.178 547.086 306.28C548.431 305.164 549.413 302.965 550.534 301.59C552.216 299.529 554.042 297.617 555.758 295.592C562.57 287.548 568.859 279.17 575.057 270.53C580.976 262.28 587.891 254.485 592.891 245.454C594.877 241.869 595.237 238.109 593.926 234.148C592.969 231.259 590.665 226.897 587.372 228.81C588.621 226.475 583.805 223.981 582.344 223.524C582.322 223.518 582.034 225.312 581.626 225.267C581.771 225.283 580.402 221.293 579.801 220.781C578.015 219.259 575.842 217.483 573.894 216.229C572.106 215.08 570.22 214.511 568.489 213.225C566.39 211.666 564.464 209.818 562.357 208.27C560.323 206.776 558.056 205.01 555.808 203.982C553.859 203.091 552.108 202.916 550.354 201.456C548.185 199.648 546.292 198.422 543.79 197.177C541.625 196.1 538.625 195.159 537.076 193.05Z" fill="black"/>
<path fill-rule="evenodd" clip-rule="evenodd" d="M241.57 409.456C241.968 408.403 242.365 407.35 242.763 406.297C243.255 408.133 243.393 409.046 241.57 409.456ZM242.1 414.32C241.237 414.493 241.577 411.446 241.577 410.916C243.067 411.865 241.833 413.004 242.1 414.32ZM240.755 405.529C241.49 405.04 242.226 404.552 242.961 404.062C241.937 406.199 242.339 404.864 242.761 406.291C241.989 406.541 241.238 406.249 240.755 405.529ZM236.399 422.227C233.643 433.489 224.891 442.37 215.646 446.971C210.334 449.613 205.112 450.275 199.375 449.98C197.163 449.866 194.559 449.057 192.43 449.207C190.791 449.323 190.865 449.404 189.507 450.967C188.906 449.721 189.341 448.846 188.136 448.121C186.632 447.216 186.008 448.27 185.262 449.523C184.286 448.383 183.887 447.788 182.622 447.112C182.662 447.133 181.411 447.08 181.462 447.097C181.236 447.019 179.876 446.034 179.45 445.854C177.703 445.116 175.682 444.813 174.07 443.753C172.66 442.828 171.498 440.231 169.884 442.227C169.883 438.892 165.895 437.509 164.026 435.763C161.105 433.034 158.783 428.993 157.327 425.085C155.775 420.916 155.257 416.921 154.53 412.625C154.022 409.624 150.698 405.285 152.694 402.257C153.17 403.527 152.947 404.827 153.737 405.979C154.447 404.436 154.838 402.709 155.16 401.02C155.318 400.193 156.232 397.765 156.128 397.044C155.917 395.569 154.296 395.489 155.195 393.681C157.059 395.966 158.563 391.954 157.155 390.355C156.459 391.238 156.204 392.241 155.884 393.335C154.051 389.168 159.123 390.51 158.014 386.748C159.865 386.347 160.929 385.821 161.633 383.761C162.416 381.468 161.84 380.969 163.617 379.454C164.229 378.933 165.958 378.184 166.274 377.328C166.886 375.672 165.328 375.181 166.693 373.63C167.153 374.541 168.949 376.343 169.932 374.628C170.129 374.286 169.303 374.044 169.904 373.256C170.795 372.09 171.791 370.946 173.298 371.191C172.105 367.832 179.728 367.566 181.68 366.773C183.636 365.98 185.296 365.458 187.371 365.274C189.443 365.09 189.546 364.406 191.301 363.001C191.45 365.012 191.879 364.57 193.148 364.924C193.453 364.335 193.766 364.268 194.086 364.726C194.404 365.067 194.794 365.227 195.253 365.208C195.95 365.249 196.74 365.146 197.471 365.163C199.185 365.201 200.953 365.04 202.634 365.08C203.068 364.999 203.473 364.829 203.853 364.57C204.011 364.907 204.17 365.244 204.328 365.581C205.219 365.707 205.288 366.964 206.384 365.589C206.708 367.337 207.639 366.427 208.623 366.901C209.52 367.335 209.663 368.027 210.491 368.509C211.036 369.007 211.62 369.072 212.244 368.708C212.837 369.204 213.44 369.685 214.052 370.152C215.179 370.868 216.507 371.307 217.694 371.873C218.484 372.24 219.269 372.622 220.047 373.018C220.071 374.076 220.492 374.45 221.311 374.139C222.051 374.836 222.26 374.809 222.978 375.997C224.604 378.688 226.047 380.779 228.102 383.184C237.032 393.643 239.776 408.428 236.399 422.227ZM239.139 377.757C235.108 371.676 229.401 364.712 224.273 360.872C221.674 358.924 218.025 355.429 214.847 354.399C214.093 354.155 213.313 354.139 212.572 353.882C212 353.685 211.689 353.023 211.036 352.904C210.58 352.82 210.529 353.971 210.044 353.865C209.03 353.643 208.388 352.51 207.672 351.801C206.134 354.786 205.299 349.766 203.041 353.141C200.354 348.395 194.041 349.432 189.75 349.672C188.477 349.742 187.879 350.252 186.751 350.63C185.701 350.982 185.597 350.891 184.45 350.882C181.595 350.857 179.059 351.261 176.42 352.674C171.985 355.047 167.914 358.744 163.702 361.603C158.994 364.799 154.75 368.867 151.149 373.541C138.129 390.443 134.647 415.112 145.029 434.706C161.519 465.825 204.055 469.151 228.158 448.036C246.78 431.721 253.866 399.966 239.139 377.757Z" fill="black"/>
<path fill-rule="evenodd" clip-rule="evenodd" d="M443.242 290.185C442.779 291.429 438.457 291.01 438.363 289.544C438.222 287.353 444.046 288.024 443.242 290.185ZM447.832 289.371C450.282 289.596 454.305 291.469 456.666 290.337C460.268 288.609 456.485 285.957 454.553 285.164C452.586 284.358 449.657 284.786 448.646 282.47C447.886 280.729 449.765 275.866 447.434 276.648C444.986 277.468 445.698 284.433 441.858 282.085C440.027 280.965 440.774 274.141 437.706 277.627C436.867 278.581 436.794 280.332 435.682 281.043C434.547 281.77 433.124 281.013 431.926 281.076C428.754 281.244 427.744 284.585 430.957 285.91C432.147 286.401 436.63 287 433.914 289.19C432.203 290.569 428.402 287.675 426.932 290.075C424.912 293.373 430.323 293.447 431.776 294.434C434.238 296.104 432.205 300.007 432.401 302.785C432.701 307.031 434.891 306.144 435.687 302.551C436.361 299.502 435.525 295.114 439.605 296.325C446.25 298.299 435.911 307.8 440.778 310.231C443.881 311.781 444.32 303.401 444.561 301.958C445.454 296.632 448.11 297.875 452.133 298.038C456.834 298.229 457.969 294.312 452.991 293.19C451.403 292.832 449.218 293.285 447.839 292.145C447.023 291.472 445.901 289.195 447.832 289.371Z" fill="black"/>
<path fill-rule="evenodd" clip-rule="evenodd" d="M274.275 463.377C270.47 461.843 264.106 462.174 263.165 467.709C262.771 470.025 263.538 472.476 264.959 474.159C266.606 476.11 269.229 476.291 269.089 472.893C268.992 470.541 267.005 468.498 270.498 468.024C272.672 467.729 275.888 469.561 275.996 472.266C276.24 478.363 266.87 478.841 263.417 477.786C256.564 475.695 258.426 467.609 263.132 463.919C264.348 462.966 267.836 461.497 267.996 459.517C268.208 456.89 265.324 457.426 263.911 457.772C253.522 460.32 251.257 479.923 262.113 483.618C267.042 485.296 273.985 483.564 276.956 478.535C279.741 473.82 279.779 465.597 274.275 463.377Z" fill="black"/>
<path fill-rule="evenodd" clip-rule="evenodd" d="M136.528 324.604C133.28 326.365 130.032 328.126 126.786 329.887C125.712 327.3 123.899 320.231 121.176 319.329C116.768 317.867 119.575 325.572 120.335 327.334C120.96 328.781 122.41 331.023 122.058 332.748C121.586 335.072 118.675 335.895 117.152 337.094C113.382 340.062 113.411 346.294 118.871 343.653C121.961 342.158 125.787 338.013 128.155 342.72C129.248 344.891 131.839 357.025 134.545 349.09C136.219 344.177 128.161 339.073 132.133 334.917C133.412 333.579 134.91 333.467 136.187 332.698C139.273 330.841 137.533 327.409 136.528 324.604Z" fill="black"/>
<path fill-rule="evenodd" clip-rule="evenodd" d="M612.633 148.801C610.697 148.003 608.302 146.446 606.15 146.976C603.863 147.54 602.943 150.12 601.28 151.671C596.759 155.889 594.126 149.603 591.642 146.158C589.295 142.905 586.433 142.116 583.123 144.114C581.804 144.911 576.248 148.562 577.217 150.901C577.914 152.584 580.659 151.073 581.595 150.706C583.628 149.909 585.515 149.211 587.594 150.373C591.494 152.551 592.505 158.525 597.223 159.456C602.102 160.419 602.262 155.19 605.743 153.222C608.077 151.903 609.703 154.238 611.954 153.773C614.1 153.33 615.092 149.813 612.633 148.801Z" fill="black"/>
<path fill-rule="evenodd" clip-rule="evenodd" d="M573.247 169.875C574.973 170.297 576.099 166.528 577.179 165.572C578.97 163.987 582.076 163.668 583.901 165.263C587.463 168.376 586.235 175.098 591.308 176.85C595.842 178.416 597.977 171.691 601.794 170.016C604.012 169.042 606.448 168.405 605.582 164.911C604.984 162.495 603.223 161.875 601.307 162.803C598.016 164.396 596.898 170.888 592.996 171.004C588.958 171.124 588.52 164.568 586.787 161.713C584.145 157.361 578.712 156.309 575.625 160.471C574.693 161.726 569.961 169.074 573.247 169.875Z" fill="black"/>
<path fill-rule="evenodd" clip-rule="evenodd" d="M493.44 95.5547C495.84 97.4045 500.623 97.3404 502.834 95.0462C505.084 92.7119 502.08 92.3532 500.248 92.4244C498.838 92.4797 496.199 93.2669 497.002 90.5242C497.715 88.0906 501.635 89.3294 501.962 86.658C499.012 86.0622 495.763 86.2769 493.581 88.8882C492.004 90.7756 491.193 93.8226 493.44 95.5547Z" fill="black"/>
</g>
</svg>
