<svg width="242" height="101" viewBox="0 0 242 101" fill="none" xmlns="http://www.w3.org/2000/svg">
<path fill-rule="evenodd" clip-rule="evenodd" d="M129.116 61.8119C128.924 61.4699 128.586 61.8766 128.728 62.1236C128.857 62.0199 128.986 61.9158 129.116 61.8119ZM134.36 63.7119C134.147 63.5794 134.074 63.7876 133.99 64.0278C133.965 64.0982 133.94 64.1715 133.91 64.2397C134.1 64.3707 134.189 64.1405 134.279 63.9073C134.305 63.8395 134.331 63.7714 134.36 63.7119ZM130.666 55.507C130.238 54.8263 130.207 55.0547 130.172 55.8305C130.254 55.7766 130.336 55.7226 130.419 55.6687C130.501 55.6149 130.584 55.5609 130.666 55.507ZM189.185 18.6941C188.646 19.0086 188.588 19.2371 189.024 19.6219C189.076 19.3226 189.113 19.103 189.185 18.6941ZM128.925 50.4316C129.052 50.9518 129.575 51.0638 129.575 50.4316H128.925ZM169.33 23.63C169.641 23.7533 169.8 23.8163 169.94 23.7766C170.086 23.7351 170.211 23.5821 170.467 23.2693C170.241 23.3411 170.057 23.3995 169.867 23.4594L169.862 23.4612L169.86 23.4617C169.697 23.5133 169.531 23.5663 169.33 23.63ZM154.907 76.9407C154.723 76.6177 154.539 76.2948 154.355 75.9706C154.278 76.2676 154.201 76.5645 154.123 76.8615L154.436 76.8924C154.593 76.9085 154.75 76.9246 154.907 76.9407ZM192.174 10.7433C192.101 11.1752 192.065 11.3888 192.133 11.5109C192.201 11.6302 192.368 11.6622 192.698 11.7257C192.611 11.5628 192.531 11.4128 192.448 11.257C192.364 11.0984 192.275 10.9338 192.174 10.7433ZM189.191 11.6907L189.188 11.6724C189.165 11.5317 189.142 11.391 189.119 11.2503C189.08 11.465 188.931 11.4533 188.786 11.4419C188.66 11.432 188.538 11.4224 188.493 11.5574C188.262 12.2252 188.993 12.1347 189.256 12.0945C189.234 11.9598 189.213 11.8253 189.191 11.6907ZM133.69 61.9272C133.53 61.5319 133.495 61.5012 133.146 61.4185C133.235 61.8127 133.235 62.1209 133.234 62.5153V62.5183C133.234 62.5443 133.234 62.5706 133.234 62.5975C133.805 62.4967 133.985 62.4449 133.996 61.6881L133.69 61.9272ZM132.025 63.3234C131.949 63.6733 131.736 63.5887 131.554 63.5164C131.389 63.4509 131.25 63.3956 131.263 63.6833C131.256 63.517 131.919 64.609 131.881 64.5739C132.213 64.8869 132.408 64.8575 132.786 64.4983C132.247 64.4728 132.185 64.1374 132.101 63.687C132.08 63.5722 132.058 63.45 132.025 63.3234ZM193.416 11.7674C193.298 12.1011 193.182 12.4348 193.066 12.7685C192.947 13.1081 192.829 13.4478 192.709 13.7874C192.661 13.9288 192.622 14.0534 192.589 14.1614C192.433 14.672 192.391 14.8104 191.82 14.5869C191.839 14.545 191.886 14.4624 191.945 14.359C192.12 14.0477 192.405 13.547 192.373 13.3953C192.343 13.2526 192.062 13.0762 191.807 12.9165C191.65 12.8177 191.502 12.7253 191.43 12.6512C191.224 12.4366 191.148 12.2413 191.069 12.0346C191.022 11.9129 190.973 11.7871 190.896 11.6512C190.979 11.3105 190.914 11.1511 190.7 11.174C190.64 11.3799 190.578 11.5856 190.517 11.7914L190.516 11.7941L190.465 11.9638C190.476 12.2804 190.602 12.4014 190.75 12.5433C190.864 12.6526 190.991 12.7742 191.089 13.0069L191.106 13.0511C191.249 13.3881 191.289 13.4854 191.266 13.5465C191.257 13.5712 191.238 13.59 191.211 13.6165C191.153 13.6716 191.062 13.7594 190.96 14.0018C190.864 14.225 190.799 14.4694 190.734 14.7072C190.613 15.1597 190.497 15.5883 190.201 15.8017C190.444 15.9348 190.686 16.0679 190.93 16.2008C190.363 16.9777 191.543 16.5994 191.738 16.524C191.539 17.0527 191.339 17.5815 191.139 18.1102C190.696 17.8013 190.419 17.2875 190.144 16.7763C190.047 16.5965 189.95 16.4171 189.847 16.247C189.559 16.9133 189.271 17.5799 188.984 18.2464L188.975 18.2655L188.937 18.3566C189.075 18.3406 189.214 18.3246 189.352 18.3088C189.515 18.29 189.678 18.2712 189.842 18.2524C189.832 18.2748 189.805 18.327 189.77 18.396C189.647 18.6322 189.421 19.0661 189.446 19.1832C189.508 19.4616 189.75 19.5435 189.987 19.6236C190.276 19.7213 190.557 19.8163 190.496 20.2591C190.481 20.3626 189.559 21.5204 189.401 21.6321C189.499 21.6866 189.585 21.7248 189.659 21.7576C189.936 21.8808 190.039 21.9267 189.908 22.4643C189.693 22.3026 189.478 22.1405 189.263 21.9786C189.223 22.0688 189.181 22.1585 189.139 22.2484V22.2487C188.991 22.5669 188.842 22.8871 188.752 23.2368C188.774 23.5303 188.732 23.8081 188.626 24.0708C188.499 24.3059 188.356 24.5251 188.198 24.7283C188.071 25.1408 188.031 27.3928 188.183 27.7602C188.52 27.2159 189.276 28.1766 188.001 28.1766C187.895 28.1766 187.81 28.1713 187.741 28.167C187.448 28.1488 187.44 28.1483 187.267 28.6431C187.099 29.1241 187.009 29.5438 187.485 29.59C187.197 30.296 187.19 30.8715 187.182 31.5564C187.18 31.7237 187.177 31.8976 187.171 32.0815C187.151 32.6684 187.044 33.2527 186.937 33.8317C186.907 34.001 186.876 34.1698 186.847 34.3379C186.905 34.2362 186.961 34.1345 187.018 34.0328C187.074 33.9318 187.131 33.8308 187.188 33.7297C187.438 34.3955 187.326 34.9749 187.198 35.6411C187.17 35.7869 187.141 35.9369 187.115 36.0928C186.933 35.7935 186.843 35.9724 186.748 36.1611C186.677 36.3011 186.604 36.4465 186.488 36.4055C186.162 36.2894 186.173 36.1912 186.189 36.0372C186.201 35.9305 186.216 35.797 186.125 35.6123C186.082 35.5269 186.05 35.4548 186.022 35.3918C185.92 35.1659 185.872 35.0564 185.591 34.8693C185.248 34.642 184.722 34.5715 184.252 34.5085C184.066 34.4837 183.889 34.4599 183.735 34.4282C182.84 34.2418 181.943 34.1933 181.036 34.1442L181 34.1423C177.561 33.9563 174.134 33.9087 170.696 34.1443C167.532 34.3612 164.293 34.9141 161.19 35.6629C160.97 35.7163 160.749 35.7693 160.529 35.8224C157.456 36.5612 154.444 37.2855 151.459 38.5438C151.184 38.6598 150.909 38.832 150.634 39.0041C150.292 39.2185 149.948 39.4331 149.605 39.539C149.364 39.6137 149.123 39.6572 148.878 39.7012C148.532 39.7638 148.18 39.827 147.821 39.9825C147.011 40.3328 146.186 40.6363 145.362 40.9399C144.694 41.1852 144.028 41.4304 143.369 41.7004C142.947 41.8733 142.516 42.0386 142.082 42.2052C140.882 42.6656 139.659 43.1346 138.549 43.7969C138.215 43.9955 137.898 44.2299 137.58 44.4645C137.272 44.6926 136.963 44.9209 136.639 45.1165C136.503 45.1985 136.347 45.279 136.183 45.3637C135.598 45.6651 134.909 46.0208 134.654 46.6947C134.526 47.0313 134.548 47.2753 134.627 47.6241C134.774 48.2699 134.891 48.2555 135.247 48.2122C135.277 48.2086 135.309 48.2048 135.342 48.2011C135.719 48.1595 136.167 47.9135 136.592 47.6799C136.842 47.5424 137.085 47.4092 137.3 47.3244C138.895 46.6983 140.508 46.1969 142.13 45.6953C143.353 45.3166 144.58 44.815 145.804 44.3146C147.491 43.6245 149.173 42.9364 150.839 42.5748C151.695 42.3888 152.528 42.0425 153.362 41.6955C154.19 41.3518 155.018 41.0075 155.871 40.8184C155.993 40.7913 156.191 40.7023 156.412 40.6023C156.872 40.3953 157.435 40.1418 157.644 40.2977C157.698 40.3386 157.806 40.681 157.892 40.9555C157.935 41.0911 157.972 41.2102 157.996 41.2682C158.249 41.8985 158.539 42.5071 158.879 43.0715C159.631 44.3212 160.572 45.3923 161.503 46.4539C161.841 46.8382 162.177 47.2214 162.503 47.6112C163.531 48.8414 164.461 50.1644 165.393 51.4926C165.731 51.9737 166.07 52.4556 166.413 52.9339C166.525 52.7715 166.638 52.6091 166.75 52.4472C166.641 53.4925 167.211 54.2697 167.737 54.988C167.783 55.0502 167.827 55.1119 167.872 55.1734C168.534 56.0896 169.067 56.9507 169.589 57.9955C169.886 58.5892 170.241 59.1317 170.591 59.6686C170.747 59.9064 170.901 60.1431 171.05 60.3827C171.327 60.8294 171.55 61.3298 171.774 61.8331C171.936 62.1951 172.098 62.5587 172.281 62.9049C172.664 63.628 173.043 64.3564 173.424 65.0848L173.426 65.0874V65.0882C174.044 66.2728 174.662 67.4581 175.291 68.6187C175.767 69.5009 176.145 70.4944 176.522 71.4991C176.614 71.7391 176.759 72.0559 176.918 72.4011C177.285 73.2016 177.725 74.1605 177.725 74.7C177.703 74.8274 177.763 75.1676 177.825 75.524C177.948 76.2305 178.084 76.9988 177.615 76.2849C177.503 76.5014 177.39 76.718 177.277 76.9357C177.375 76.8838 177.474 76.8318 177.572 76.7811C177.666 76.7316 177.761 76.6821 177.855 76.6326C177.487 77.0496 177.785 77.2364 178.061 77.4108C178.224 77.5135 178.378 77.6113 178.387 77.7474C178.289 77.8649 178.192 77.9812 178.095 78.0988C177.929 78.5256 177.712 78.5813 177.446 78.2646C177.324 78.2745 177.242 78.2448 177.166 78.2163C177.058 78.1767 176.958 78.1396 176.768 78.2188C176.904 78.4836 177.057 78.5603 177.199 78.6308C177.383 78.7236 177.55 78.8077 177.64 79.2816C177.752 79.8767 177.489 80.0957 177.138 80.3865C177.045 80.4644 176.944 80.5474 176.843 80.6451L176.844 80.6439L176.831 80.6414C176.857 80.1749 176.674 79.8322 176.346 79.6157V80.5313C176.507 80.5684 176.669 80.6043 176.831 80.6414C176.831 80.6476 176.83 80.6525 176.83 80.6575C176.834 80.6538 176.839 80.6488 176.843 80.6451C176.767 81.0138 176.539 80.9457 176.269 80.8653C176.242 80.8567 176.214 80.8493 176.187 80.8406C176.166 80.8344 176.144 80.8295 176.123 80.8233C175.539 80.6736 174.908 80.4187 174.311 80.1774C174.123 80.1019 173.939 80.0277 173.761 79.9584C172.147 79.3311 170.519 78.8015 168.849 78.3722C166.015 77.6434 163.198 77.4826 160.358 77.3205C159.381 77.2648 158.402 77.2092 157.418 77.1287C157.423 77.1028 157.428 77.078 157.432 77.0545C157.481 76.8046 157.501 76.7031 157.489 76.6066C157.48 76.5423 157.457 76.4792 157.417 76.374C157.412 76.3592 157.406 76.3431 157.399 76.3257C157.461 76.4903 157.352 76.5051 157.242 76.5188C157.074 76.541 156.903 76.5633 157.325 77.1188C156.222 77.344 155.064 77.3255 153.913 77.3069C153.2 77.2958 152.49 77.2846 151.798 77.3304C151.817 77.2785 151.841 77.2252 151.865 77.172C151.95 76.9827 152.036 76.7897 151.895 76.6573C151.281 77.7659 149.635 77.7387 148.231 77.7164C147.675 77.7078 147.157 77.6991 146.755 77.7622C146.27 77.8377 145.789 77.954 145.308 78.0703H145.307C144.962 78.1544 144.619 78.2373 144.273 78.3054C144.215 78.3165 144.157 78.3289 144.099 78.34C143.75 78.4069 143.399 78.4761 143.058 78.5912C142.932 78.632 142.779 78.7186 142.619 78.8102C142.306 78.9859 141.962 79.1789 141.734 79.1022C142.084 78.22 141.913 78.4749 141.748 78.7211C141.673 78.8312 141.601 78.9401 141.576 78.9451C141.528 78.9537 141.472 78.9649 141.413 78.9772C141.172 79.0255 140.85 79.0911 140.572 79.0911C140.735 78.2745 140.946 77.4863 141.157 76.6969C141.458 75.5735 141.758 74.45 141.918 73.2523C141.939 73.0977 141.964 72.9319 141.991 72.7586C142.181 71.5016 142.434 69.8263 141.549 69.0357C141.11 68.6434 140.449 68.4962 139.875 68.3675C139.727 68.3341 139.585 68.302 139.453 68.2686C139.235 68.2104 138.966 68.172 138.681 68.1312C138.049 68.0397 137.338 67.9382 136.919 67.5979C136.739 67.4532 136.614 67.3121 136.493 67.1773C136.293 66.9546 136.108 66.7467 135.718 66.5623C135.576 66.4955 135.449 66.4287 135.331 66.3656C134.852 66.1132 134.524 65.9387 133.941 66.1602C133.988 66.086 134.038 66.0155 134.087 65.9474C134.344 65.5874 134.557 65.2865 134.071 64.8903C133.975 64.8134 133.844 64.8085 133.716 64.8035C133.521 64.7961 133.334 64.7889 133.283 64.5352C132.967 64.8131 132.938 65.0519 132.9 65.3642C132.886 65.478 132.87 65.6016 132.839 65.7408C132.85 65.9598 132.896 66.1701 132.979 66.3693L132.812 66.4522L132.461 66.6292L132.295 66.7121C132.381 66.4225 132.265 66.4089 132.139 66.3941C132.054 66.3842 131.964 66.373 131.93 66.2778C131.836 66.0142 131.853 65.6472 131.868 65.3178C131.874 65.2018 131.879 65.0905 131.879 64.9898C131.409 65.1747 130.917 65.4035 130.712 66.013C130.256 65.674 130.305 65.5858 130.491 65.2449C130.54 65.1553 130.599 65.0484 130.66 64.915C130.178 64.7726 130.075 65.0824 130.002 65.5811C129.819 65.5105 129.635 65.4401 129.453 65.3697L129.237 65.2867C129.811 65.2816 129.949 64.7222 129.963 64.1146C129.914 64.1343 129.866 64.1541 129.817 64.1739L129.675 64.2312C129.548 64.283 129.42 64.3349 129.293 64.3866L129.155 65.2685C128.835 65.6067 128.048 65.0821 127.685 64.8397C127.649 64.8155 127.616 64.7941 127.589 64.7768C127.559 64.7568 127.529 64.7372 127.499 64.7179L127.497 64.7169C126.532 64.0945 126.179 63.8675 126.321 62.3928C126.372 61.8678 126.446 61.3418 126.522 60.8149C126.63 60.0626 126.738 59.3089 126.773 58.5551C126.833 57.299 126.735 55.9659 126.643 54.6947V54.6928C126.631 54.5241 126.618 54.3563 126.606 54.19C126.535 53.1739 126.447 52.1635 126.359 51.1537C126.209 49.4343 126.06 47.7174 125.99 45.9801C125.975 45.5811 125.959 45.1821 125.943 44.7831V44.7801C125.898 43.687 125.853 42.5936 125.819 41.4999C125.813 41.3039 125.799 41.1047 125.785 40.9083C125.714 39.914 125.649 38.9886 126.641 38.9006C126.496 38.3257 126.931 37.6609 127.38 37.346C127.537 36.9001 127.709 36.8601 127.895 37.2268C128.057 37.2903 128.208 37.2605 128.347 37.1369C128.747 37.0238 129.195 36.5476 129.618 36.0989C129.887 35.8136 130.145 35.5396 130.373 35.3772C130.53 35.2663 130.737 35.1415 130.962 35.0051C131.569 34.6386 132.317 34.1867 132.617 33.685C132.839 33.3125 132.749 33.1717 132.647 33.0132C132.568 32.8882 132.481 32.7522 132.534 32.483C132.69 31.7013 133.229 32.7033 133.373 32.9705C133.383 32.9885 133.391 33.0033 133.397 33.0139C133.462 32.9331 133.584 32.8297 133.721 32.7145C134.012 32.4689 134.368 32.1693 134.362 31.9191L134.079 31.8562L133.795 31.7932C133.855 31.7495 133.938 31.6805 134.03 31.6032C134.251 31.4172 134.529 31.1835 134.699 31.142C134.787 31.1206 134.848 31.098 134.895 31.081C134.952 31.0601 134.984 31.0479 135.013 31.0573C135.054 31.0705 135.087 31.1278 135.164 31.267C135.195 31.3223 135.233 31.3906 135.281 31.4741C135.314 31.4124 135.359 31.3108 135.41 31.1936C135.542 30.8937 135.721 30.4908 135.845 30.3857C135.894 30.3445 136.084 30.3116 136.253 30.2821C136.372 30.2614 136.48 30.2425 136.523 30.2239C136.82 30.093 136.935 29.8748 137.046 29.6645C137.135 29.4961 137.222 29.3326 137.397 29.223C137.498 29.1591 137.613 29.1819 137.722 29.2037C137.817 29.2225 137.907 29.2406 137.982 29.2001C138.116 29.1269 138.18 28.9611 138.244 28.7951C138.302 28.6448 138.36 28.4945 138.47 28.4124C138.578 28.3316 138.777 28.3308 138.975 28.3299C139.143 28.3292 139.309 28.3284 139.42 28.2784C139.685 28.1576 139.765 28.0422 139.878 27.8805C139.934 27.8002 139.998 27.7087 140.096 27.5993C140.333 27.3344 140.561 27.2431 140.798 27.1477C140.976 27.0764 141.159 27.0029 141.357 26.8531C141.592 26.6751 141.694 26.3878 141.788 26.1227C141.887 25.8468 141.976 25.5949 142.198 25.5152C142.449 25.4256 142.619 25.5019 142.757 25.5635C142.939 25.6451 143.064 25.7014 143.245 25.3154C143.274 25.2543 143.238 25.1809 143.2 25.0992C143.142 24.9776 143.074 24.8374 143.196 24.6913C143.412 24.4302 143.518 24.666 143.618 24.8857C143.634 24.9192 143.648 24.9524 143.663 24.9833L143.668 24.9718C143.798 24.6661 143.929 24.3605 144.058 24.0547C144.445 24.3189 144.496 24.2132 144.587 24.0234C144.646 23.9028 144.72 23.7483 144.908 23.6329C145.011 23.5697 145.105 23.5968 145.202 23.6244C145.305 23.6543 145.411 23.6849 145.533 23.6023C145.637 23.5325 145.689 23.4133 145.741 23.2953C145.776 23.2159 145.811 23.1369 145.86 23.0736C145.933 22.9816 145.995 22.8794 146.058 22.7776C146.201 22.5434 146.343 22.311 146.6 22.2106C146.467 22.2624 147.561 22.2231 147.463 22.1647C147.358 21.9703 147.252 21.7759 147.144 21.5815V21.5803C147.259 21.5803 147.373 21.5831 147.484 21.586C147.922 21.5972 148.329 21.6078 148.771 21.4366L148.78 21.4332C148.977 21.3575 149.277 21.2419 149.437 21.0887L149.45 21.0761C149.649 20.887 149.735 20.8044 149.771 20.6956C149.799 20.6111 149.796 20.5109 149.791 20.3326C149.788 20.2395 149.785 20.125 149.785 19.9804C150.404 20.4712 151.191 20.2997 151.802 19.7304C151.938 19.6031 152.053 19.465 152.169 19.3278C152.322 19.1445 152.474 18.9623 152.674 18.8088C152.824 18.7119 152.977 18.6213 153.132 18.5374C153.326 18.2871 153.52 18.2848 153.715 18.5305C153.91 18.4657 153.965 18.415 154.056 18.3323C154.093 18.2978 154.138 18.2576 154.201 18.2086C154.262 18.0577 154.327 17.9098 154.396 17.7646C154.626 17.7349 154.851 17.6833 155.073 17.6101C155.324 17.5262 155.545 17.4062 155.754 17.2937C156.264 17.0176 156.692 16.7857 157.262 17.2383L157.325 17.0791C157.406 16.8714 157.489 16.6636 157.57 16.4558C157.812 16.9267 157.999 16.7454 158.25 16.5038C158.353 16.4044 158.466 16.2947 158.598 16.2163C158.694 16.1588 158.807 16.1233 158.915 16.0886C159.02 16.0553 159.123 16.0228 159.206 15.9723C159.302 16.0006 159.4 16.0292 159.496 16.0578C159.578 15.7421 159.66 15.4263 159.742 15.1105C159.785 15.1316 159.862 15.1775 159.957 15.2332C160.22 15.3893 160.613 15.6228 160.758 15.6056C160.913 15.5875 161.084 15.4003 161.252 15.2163C161.391 15.0651 161.527 14.916 161.65 14.8654C161.887 14.7678 161.941 14.7994 162.02 14.8451C162.078 14.8798 162.151 14.9225 162.327 14.9241C162.368 14.9245 162.407 14.9257 162.443 14.9268C162.683 14.9347 162.826 14.9394 163.062 14.653C162.3 14.406 162.969 14.2673 163.44 14.1697C163.536 14.1498 163.624 14.1315 163.69 14.1144C163.857 14.071 164.002 14.0525 164.133 14.0357C164.474 13.992 164.72 13.9605 165.024 13.5309H164.588C164.907 13.1701 164.91 13.1708 165.073 13.2149C165.131 13.2304 165.208 13.251 165.325 13.2634C165.356 13.2666 165.412 13.2899 165.479 13.3181C165.712 13.4172 166.087 13.5766 166.088 13.1365C166.672 13.5657 166.679 13.5667 167.281 13.373C167.39 13.3379 167.494 13.2702 167.597 13.2023C167.745 13.1043 167.895 13.0054 168.069 13.0016C168.205 12.9986 168.322 13.0335 168.436 13.0673C168.561 13.1044 168.68 13.14 168.815 13.1219C168.952 13.1037 169.397 12.9004 169.617 12.7998C169.642 12.7884 169.664 12.7781 169.683 12.7698C169.823 12.7064 169.939 12.6079 170.053 12.5111C170.173 12.4093 170.291 12.3093 170.432 12.2541C170.592 12.1908 170.777 12.2013 170.962 12.2118C171.124 12.2211 171.286 12.2303 171.434 12.1898C171.741 12.1054 172.007 11.9737 172.263 11.8477C172.787 11.5877 173.263 11.3525 173.95 11.6089C174.055 10.5025 175.134 10.7109 175.757 10.8311C175.774 10.8346 175.792 10.838 175.809 10.8413C175.923 10.8632 176.022 10.8946 176.115 10.9239C176.367 11.0042 176.571 11.0687 176.894 10.8779C177.051 10.7859 177.178 10.6703 177.304 10.5552C177.469 10.4055 177.633 10.2566 177.858 10.1609C178.116 10.0518 178.449 9.96764 178.739 9.89452C178.795 9.88066 178.848 9.86706 178.899 9.85382C179.097 9.77574 179.3 9.75075 179.507 9.77908C179.727 9.81769 179.91 9.94253 180.055 10.1532C180.051 10.1647 180.054 10.1709 180.066 10.1698C180.062 10.1643 180.059 10.1587 180.055 10.1532C180.086 10.0606 180.564 9.61848 180.515 9.66835C180.627 9.55588 180.721 9.49216 180.804 9.43598C180.985 9.31325 181.113 9.22701 181.265 8.74695C181.135 8.71304 181.007 8.67927 180.878 8.64537L180.877 8.64499C180.749 8.61121 180.62 8.57743 180.492 8.54378C180.538 8.53994 180.582 8.53574 180.625 8.53178C180.959 8.5006 181.229 8.47524 181.543 8.64586C181.646 8.7024 181.78 8.86214 181.918 9.02719C182.106 9.25114 182.301 9.48499 182.442 9.48536C182.885 9.48598 183.04 8.70822 182.997 8.30338C183.368 9.38192 183.685 9.56157 184.519 9.01024C184.567 8.97894 184.613 8.94776 184.661 8.91645L184.666 8.91336V8.91312C184.716 8.8807 184.764 8.84815 184.813 8.81573C185.012 8.55628 185.209 8.56098 185.406 8.83034C185.522 8.90953 185.639 8.98846 185.755 9.06765L185.848 8.87562C185.958 8.6487 186.067 8.42191 186.177 8.19487C186.475 8.70611 186.758 8.73111 187.243 8.61159C187.408 8.571 187.658 8.3666 187.9 8.16975C188.148 7.96733 188.386 7.77295 188.511 7.77308C188.58 7.77308 188.657 7.87194 188.746 7.98465C188.842 8.10826 188.951 8.24845 189.077 8.29286C189.472 8.43416 190.086 8.07906 190.227 7.60778C190.301 7.80438 190.376 8.00124 190.45 8.19821C190.497 8.14389 190.543 8.0897 190.59 8.03538L190.592 8.03377C190.731 7.87132 190.871 7.70874 191.01 7.54492C191.06 8.08116 191.389 8.073 191.675 8.06582C191.886 8.0605 192.074 8.05579 192.111 8.26997C192.154 8.52064 191.567 9.0648 191.217 9.3891C191.124 9.47521 191.048 9.54586 191.004 9.59139C191.557 10.007 192.238 9.28083 192.738 8.74695C192.84 8.63868 192.934 8.53834 193.018 8.45705C193.275 8.80472 193.362 8.98723 193.126 9.38489C192.909 9.75014 192.811 9.67367 192.696 9.58496C192.59 9.50317 192.471 9.41087 192.233 9.64534C192.398 9.98893 192.546 9.90256 192.731 9.7943C192.779 9.76646 192.829 9.73727 192.882 9.71351C192.816 10.198 192.875 10.2213 192.976 10.2608C193.047 10.289 193.14 10.3255 193.224 10.545C193.347 10.868 193.365 11.1274 193.388 11.4408C193.396 11.5426 193.404 11.6501 193.416 11.7674ZM117.171 53.675C117.394 53.651 117.457 53.7796 117.514 53.895C117.562 53.9927 117.605 54.0809 117.736 54.0596C117.848 54.0414 117.938 53.8942 118.03 53.7432C118.11 53.6121 118.192 53.4781 118.291 53.4242C118.742 53.1783 119.396 53.1405 119.997 53.106C120.279 53.0898 120.549 53.0742 120.78 53.0382C121.162 52.9788 121.521 52.8394 121.877 52.7013C122.211 52.5718 122.54 52.4435 122.884 52.3837C123.176 52.3331 123.388 52.3989 123.665 52.4996C123.684 52.5069 123.704 52.5139 123.723 52.5207C123.981 52.6143 124.108 52.6605 124.186 52.7645C124.26 52.8656 124.287 53.0214 124.341 53.3284L124.343 53.3411C124.626 54.9647 124.407 56.6915 124.189 58.4172C123.904 60.6777 123.618 62.9362 124.459 64.958C120.125 64.9142 115.782 65.0219 111.474 65.6549C111.474 65.18 111.476 64.7054 111.479 64.2311C111.489 62.6649 111.499 61.1007 111.403 59.5359C111.36 58.82 111.3 58.1061 111.239 57.3922C111.223 57.1832 111.205 56.9741 111.188 56.7649C111.097 55.6636 111.119 55.6582 111.761 55.494C111.802 55.4835 111.845 55.4723 111.891 55.4602C112.12 55.4002 112.266 55.2715 112.419 55.1359C112.536 55.0323 112.659 54.9246 112.826 54.8403C113.02 54.7423 113.143 54.7908 113.288 54.8485C113.361 54.8769 113.437 54.9075 113.532 54.9241C113.9 54.9889 114.006 54.9514 114.212 54.8789C114.292 54.8507 114.387 54.8173 114.518 54.7825C114.762 54.7176 114.997 54.6741 115.225 54.632C115.934 54.5008 116.57 54.3833 117.171 53.675ZM193.611 20.4953C193.463 20.3878 193.314 20.2799 193.166 20.1721C192.425 22.1278 191.94 24.1657 191.448 26.2306C191.377 26.5315 191.305 26.8332 191.233 27.1351C190.936 28.3669 190.641 29.5989 190.347 30.8316C190.292 31.0581 190.227 31.2932 190.159 31.5332C189.937 32.3308 189.698 33.1835 189.819 33.9638C190.755 32.1664 191.645 30.3323 192.491 28.4673C192.903 27.5579 193.305 26.6413 193.699 25.7188C193.749 25.5991 193.813 25.472 193.878 25.3409C194.02 25.0562 194.171 24.7522 194.226 24.4628C194.296 24.0914 194.368 23.9812 194.348 23.9143C194.329 23.8522 194.231 23.8272 193.98 23.6645C194.18 23.381 194.311 23.4592 194.42 23.5243C194.482 23.5616 194.537 23.5945 194.593 23.5534C194.733 23.4524 194.923 23.139 195.074 22.8909C195.136 22.7886 195.191 22.6973 195.233 22.6368C195.117 22.5954 194.924 22.5502 194.7 22.4979C194.124 22.3631 193.342 22.1804 193.128 21.887C192.784 21.4178 193.151 21.0088 193.511 20.6075C193.545 20.5701 193.578 20.5327 193.611 20.4953Z" fill="#3A6EA5"/>
<path fill-rule="evenodd" clip-rule="evenodd" d="M95.5637 99.6053C95.4624 100.256 95.2092 100.562 95.4743 101.159C95.6998 101.667 96.3453 101.998 96.7793 101.871L95.5637 99.6053ZM83.8119 76.4755L81.6727 77.3899C82.2577 78.105 82.8148 78.8573 83.4594 79.492L83.8119 76.4755ZM119.103 78.8177C118.083 78.1768 116.94 78.1038 115.822 78.0221C115.992 79.1666 116.161 80.3111 116.332 81.4568C117.256 80.5771 118.179 79.6974 119.103 78.8177ZM94.6004 167.436C94.3968 166.987 93.0084 163.513 92.7194 163.692C92.5664 163.786 92.5545 165.72 92.5316 165.994C92.4522 166.973 92.3727 167.95 92.2933 168.929C93.1146 168.568 93.9926 168.267 94.6004 167.436ZM84.8964 139.359C85.107 140.126 85.3165 140.895 85.5271 141.662C85.6264 142.027 85.685 142.565 85.8617 142.887C86.0921 143.305 85.9183 143.55 86.2252 143.093C86.5549 142.602 86.6533 141.292 86.7963 140.691C87.0128 139.776 87.2303 138.862 87.4468 137.949C86.4239 137.938 85.8041 138.988 84.8964 139.359ZM63.398 94.1588C62.1397 95.2303 60.8665 96.2931 59.772 97.6257C60.7344 97.5514 62.0751 98.3767 62.9828 97.9882C63.401 98.1008 63.539 97.9016 63.398 97.3943V96.3376V94.1588ZM82.0501 101.741V107.998C83.225 106.751 84.4614 105.591 85.5916 104.28C84.4108 103.433 83.2309 102.587 82.0501 101.741ZM124.038 117.954C123.667 120.741 123.647 123.607 123.545 126.426C123.527 126.927 123.373 127.68 123.641 128.118C123.909 128.558 124.674 128.801 125.062 129.035C126.155 129.696 127.241 130.375 128.331 131.045C126.9 126.681 125.469 122.318 124.038 117.954ZM151.795 100.823C154.492 99.1698 157.19 97.5168 159.887 95.8638C157.242 94.4681 154.598 93.0737 151.953 91.678C151.9 94.7255 151.848 97.7741 151.795 100.823ZM124.033 108.603C124.526 108.647 124.603 106.306 124.684 105.688C124.84 104.514 124.999 103.339 125.162 102.165C125.489 99.8206 125.833 97.4784 126.194 95.1412C126.916 90.4667 127.714 85.8096 128.596 81.1784C127.647 80.9656 126.775 80.8122 125.848 80.467C125.1 80.1886 124.208 80.3408 123.539 79.7618C123.453 81.932 123.888 84.2395 124.049 86.4097C124.235 88.9201 124.335 91.4182 124.319 93.9398C124.286 98.8283 124.137 103.717 124.033 108.603ZM61.952 174.828C62.4187 174.673 61.7821 166.686 61.7543 165.534C61.6729 162.199 61.657 158.863 61.7047 155.527C59.1861 157.494 56.6099 159.308 53.9493 160.942C54.6335 162.049 55.2741 163.24 56.0309 164.269C56.8095 165.329 57.7043 166.197 58.4263 167.338C59.8813 169.637 60.8774 172.245 61.952 174.828ZM122.552 127.579C122.669 125.176 122.778 122.778 122.972 120.383C123.055 119.365 123.845 113.948 122.58 114.075C121.86 114.147 120.598 115.461 119.937 115.92C119.066 116.529 118.193 117.134 117.317 117.733C115.588 118.913 113.848 120.069 112.113 121.235C115.592 123.35 119.072 125.465 122.552 127.579ZM115.039 77.6237C113.598 77.4901 112.205 77.3565 110.784 77.0224C110.017 76.8418 109.25 76.8665 108.479 76.7453C107.927 76.6574 106.848 76.092 106.334 76.2776C105.688 76.5102 105.453 80.5462 105.364 81.5595C105.221 83.1915 105.125 85.1712 105.71 86.7042C106.836 89.6588 109.873 87.3525 111.351 86.1127C112.617 85.0499 114.051 83.9735 115.174 82.683C116.169 81.541 115.276 79.1011 115.039 77.6237ZM122.513 109.758C123.6 109.21 123.582 108.524 123.63 107.107C123.687 105.386 123.72 103.664 123.76 101.943C123.83 98.8741 123.897 95.8056 123.875 92.7359C123.853 89.738 123.735 86.745 123.46 83.7644C123.363 82.7114 123.46 80.9112 123.014 80.0129C122.608 79.1938 121.346 79.1852 120.657 79.2359C119.882 79.2916 119.253 80.2109 118.68 80.7924C118.045 81.4358 116.741 82.3415 116.638 83.3016C116.521 84.3731 116.994 85.9024 117.176 86.9429C117.846 90.7365 118.66 94.4929 119.518 98.227C120.408 102.101 121.31 106.013 122.513 109.758ZM94.9241 100.677C94.9946 99.8243 95.2489 99.1116 94.9053 98.3C94.6093 97.6009 94.1276 96.9006 93.7661 96.2387C92.7313 94.3456 91.5713 92.5318 90.4441 90.7228C89.4112 89.0674 88.3535 87.428 87.272 85.822C86.6692 84.9274 86.0474 84.0514 85.4307 83.1729C84.9778 82.5296 84.5488 81.6263 83.9092 81.2898C83.4385 84.9819 83.0482 88.6912 82.7443 92.4117C82.5983 94.2095 82.4712 96.011 82.3649 97.8137C82.3351 98.3222 82.0183 100.041 82.2209 100.515C82.4334 101.012 83.7345 101.679 84.1327 101.983C85.247 102.837 86.112 104.123 87.1707 102.72C87.9006 101.754 88.4876 100.392 89.302 99.5496C89.727 99.1104 90.1263 99.1314 90.603 98.8704C91.1572 98.5685 91.174 98.2765 91.8354 98.6885C92.9507 99.3826 93.6281 100.407 94.9241 100.677ZM39.1128 119.677C39.1128 122.234 38.9718 124.335 40.3622 126.405C41.5778 128.214 42.84 128.632 44.5492 129.346C45.5553 129.767 45.6258 129.379 46.4412 128.669C47.2158 127.995 48.06 127.454 48.8237 126.76C50.4713 125.262 52.1169 123.716 53.7179 122.14C54.2561 121.609 54.1767 121.791 54.0953 121.155C54.0208 120.575 53.6871 119.837 53.5043 119.287C53.1746 118.29 52.7863 117.324 52.397 116.362C51.956 115.269 51.5717 114.083 51.0235 113.063C50.7961 112.64 50.5259 112.258 50.2598 111.873C49.7016 111.061 49.7215 111.091 49.0531 111.754C47.6419 113.156 46.3289 114.672 44.7399 115.767C42.8609 117.063 40.9868 118.369 39.1128 119.677ZM81.6618 99.8726C81.8654 96.2015 82.0958 92.5516 82.4483 88.8979C82.6301 87.0209 82.8406 85.1501 83.0462 83.2781C83.1296 82.5159 83.4524 81.2366 83.2726 80.4955C83.0958 79.7667 82.3162 79.0738 81.8882 78.5455C81.774 78.4044 81.4204 77.8093 81.2685 77.7821C81.1056 77.7537 80.4928 78.3129 80.3161 78.4391C79.6914 78.8858 79.0786 79.3559 78.4738 79.8434C77.3357 80.7652 76.2323 81.7525 75.1527 82.7783C72.8894 84.9274 70.7313 87.2399 68.5156 89.4645C70.5456 91.6817 73.0433 93.404 75.3136 95.1993C76.6554 96.2622 78.0041 97.3114 79.3696 98.3247C80.0628 98.8369 80.8663 99.6214 81.6618 99.8726ZM53.9135 165.508C52.2738 166.859 50.7087 168.284 48.8555 169.152C47.0102 170.015 45.1858 170.347 43.279 170.86C42.3167 171.119 41.4129 171.402 40.4317 171.583C39.8815 171.684 39.0294 171.645 38.5278 171.934C38.0809 171.817 37.922 172.006 38.0511 172.505C38.0561 172.659 38.0611 172.814 38.065 172.969C38.1922 175.124 39.3025 177.716 40.2718 179.468C40.8379 180.491 41.5579 181.443 42.2739 182.303C43.0834 183.273 43.5491 183.957 44.6764 183.551C46.5762 182.866 48.2536 181.485 50.1793 180.876C51.7028 180.395 52.968 179.387 54.4538 178.864C56.2861 178.22 58.0996 177.486 59.9568 176.948C59.1275 174.952 58.3846 172.873 57.323 171.045C56.2335 169.168 55.0318 167.364 53.9135 165.508ZM63.966 98.3297C67.3944 99.1809 71.1097 99.9678 74.1775 102.174C75.3742 103.035 76.8927 104.365 77.2433 106.146C77.6624 108.274 76.0138 109.591 74.6373 110.256C72.9847 111.054 71.1861 111.359 69.4343 111.611C68.5077 111.744 67.5761 111.816 66.6455 111.883C65.8917 111.936 64.6136 111.729 63.9243 112.102C63.4923 111.994 63.3433 112.213 63.4754 112.756C63.4675 112.952 63.4595 113.147 63.4516 113.342L63.3801 115.096C63.3324 116.265 63.2848 117.433 63.2371 118.601C63.1338 121.146 63.0295 123.693 62.9262 126.238C64.7218 124.851 66.1688 122.865 67.9237 121.386C68.7579 120.682 69.5862 119.978 70.4175 119.277C70.7651 118.984 70.9786 118.572 71.3212 118.297C71.7761 117.934 72.1793 117.715 72.6063 117.24C74.3483 115.298 76.2849 113.619 78.1332 111.836C78.9724 111.027 79.891 110.282 80.6895 109.412C81.5267 108.503 81.4105 107.753 81.3896 106.444C81.3688 105.059 81.777 103.338 81.5873 102.002C81.7462 101.549 81.624 101.267 81.2218 101.156C80.9527 100.942 80.6835 100.728 80.4144 100.512C79.8781 100.085 79.3418 99.6573 78.8045 99.2292C76.6702 97.5291 74.537 95.8266 72.4027 94.1254C71.3361 93.2754 70.2705 92.4266 69.2039 91.5766C68.9059 91.339 67.9346 90.2663 67.6009 90.2985C67.2603 90.3306 66.6684 91.1596 66.4131 91.4232C66.0218 91.8277 65.6415 92.2534 65.2174 92.6085C65.0069 92.7903 64.7864 92.9537 64.557 93.0959C64.1895 93.1405 64.0624 93.3917 64.1746 93.8495C63.8518 95.1375 64.0296 96.9773 63.966 98.3297ZM111.501 159.052C110.725 154.53 109.724 149.172 106.696 146.096C103.626 142.976 99.136 144.181 96.7346 147.846C95.5319 149.681 94.7861 151.851 94.2319 154.1C93.6628 156.408 92.8246 159.416 92.9786 161.855C93.0451 162.926 93.781 164.076 94.2011 165.009C94.6351 165.974 94.9231 167.356 95.9451 167.022C97.5301 166.504 99.143 165.315 100.626 164.464C102.126 163.603 103.705 162.895 105.262 162.063C106.295 161.512 107.367 161.091 108.397 160.53C109.374 160.001 110.663 159.872 111.501 159.052ZM157.368 132.111C159.533 133.078 160.658 131.531 162.181 129.79C163.624 128.141 165.189 126.555 166.517 124.763C167.888 122.914 168.971 120.731 170.025 118.595C171.091 116.439 172.531 114.109 173.186 111.706C173.52 110.483 173.663 109.129 173.873 107.865C173.923 107.562 174.263 106.43 174.156 106.174C174.007 105.823 173.061 105.786 172.802 105.734C170.736 105.326 168.546 105.307 166.475 105.67C162.465 106.374 159.113 109.177 157.845 114.078C156.36 119.824 157.074 126.208 157.368 132.111ZM143.33 82.2809C143.296 83.2756 145.209 83.5516 145.704 83.7842C146.85 84.3187 147.989 84.8853 149.102 85.5188C151.393 86.8242 153.836 87.6742 156.03 89.253C160.759 92.6555 165.893 95.0533 170.67 98.3074C171.415 98.8147 172.869 100.036 173.72 99.9332C174.171 99.8775 173.835 100.332 174.128 99.4358C174.233 99.1141 174.269 98.6947 174.327 98.3495C174.504 97.3151 174.641 96.2708 174.84 95.2414C175.168 93.5488 175.501 91.9774 175.639 90.2366C175.698 89.4992 175.762 88.763 175.768 88.0206C175.776 87.2684 175.914 85.3852 175.642 84.7344C175.462 84.3026 175.426 84.4511 174.975 84.3286C174.716 84.2593 174.445 84.1145 174.195 84.0168C173.61 83.7904 173.024 83.5726 172.411 83.5058C171.805 83.439 171.418 83.2088 170.849 83.0764C170.253 82.9354 169.64 83.1061 169.032 82.9106C168.377 82.6991 168.064 82.5061 167.378 82.5865C166.713 82.6657 166.522 82.4813 165.872 82.2561C165.329 82.068 164.681 82.1992 164.115 82.1423C163.43 82.0718 162.747 81.9653 162.061 81.8985C158.978 81.5942 155.859 82.0445 152.769 82.0087C151.089 81.9901 149.445 82.2994 147.767 82.2029C146.301 82.12 144.785 82.1398 143.33 82.2809ZM151.349 102.533C149.85 103.245 148.459 104.401 147.069 105.397C145.465 106.545 143.93 107.766 142.447 109.144C139.953 111.458 137.041 114.235 136.385 118.276C135.711 122.423 138.6 125.821 141.309 127.518C144.398 129.452 147.992 130.453 151.376 131.192C151.015 121.645 151.099 112.083 151.349 102.533ZM106.486 125.009C105.576 125.322 104.806 125.994 103.962 126.49C103.206 126.934 102.475 127.27 101.769 127.843C100.618 128.775 99.284 129.575 98.0813 130.297C95.1039 132.082 92.2148 134.299 89.2672 136.277C88.4866 136.802 88.2304 137.133 87.9662 138.213C87.6782 139.385 87.4081 140.566 87.131 141.742C86.8728 142.84 86.4616 144.014 86.5699 145.172C86.6642 146.179 87.0823 147.131 87.3981 148.05C88.1916 150.362 89.0517 152.639 89.9416 154.897C90.739 156.925 91.467 159.075 92.4919 160.94C93.2874 155.764 94.0015 149.965 97.0882 146.022C100.171 142.081 105.091 142.026 108.062 146.093C109.474 148.025 110.333 150.459 111.008 152.904C111.363 154.189 111.601 155.498 111.829 156.825C112.073 158.243 112.013 158.995 113.267 158.564C114.263 158.224 115.32 157.952 116.296 157.562C116.803 157.36 117.298 157.134 117.32 156.635C117.349 156.006 116.669 154.715 116.468 154.122C115.43 151.063 114.393 148.003 113.354 144.943C112.227 141.621 111.099 138.299 109.971 134.977C109.409 133.319 108.846 131.662 108.284 130.004C107.77 128.493 107.342 126.25 106.486 125.009ZM151.434 99.1723C151.451 97.6628 151.47 96.1521 151.486 94.6413C151.495 93.7406 151.818 91.9997 151.188 91.3563C150.799 90.9579 149.642 90.6523 149.148 90.3801C148.175 89.8419 147.121 89.6019 146.142 89.0674C142.308 86.9739 138.317 85.2293 134.369 83.5417C133.517 83.1779 132.647 82.8797 131.79 82.5221C131.328 82.3279 129.614 81.1921 129.186 81.4902C128.811 81.7501 128.529 84.8482 128.409 85.4904C128.125 87.0135 127.853 88.5403 127.591 90.0696C126.578 96.0073 125.728 101.986 124.938 107.976C127.038 106.981 129.05 105.258 131.035 103.927C133.096 102.544 135.15 101.164 137.226 99.8132C137.811 99.4321 139.872 97.6789 140.354 98.3668C141.128 99.4704 139.285 100.766 138.8 101.239C136.929 103.068 134.952 104.665 132.949 106.261C130.876 107.915 128.718 109.376 126.633 110.999C125.88 111.586 124.679 112.3 124.383 113.29C124.002 114.564 124.277 116.112 124.624 117.329C125.474 120.319 126.406 123.273 127.392 126.198C127.84 127.528 128.298 128.852 128.767 130.171C129.324 131.742 130.056 132.074 131.271 132.797C136.445 135.878 141.82 138.8 146.791 142.365C145.959 143.56 143.931 141.597 143.111 141.1C141.591 140.18 140.068 139.263 138.55 138.34C135.719 136.62 132.904 134.865 130.057 133.188C131.882 138.359 134.034 143.342 136.421 148.141C135.819 148.396 135.965 148.41 135.587 147.958C135.268 147.577 135.055 146.832 134.838 146.355C134.392 145.367 133.952 144.376 133.503 143.393C132.57 141.349 131.604 139.337 130.753 137.238C130.112 135.66 129.616 132.901 128.299 132.105C126.66 131.113 124.997 130.148 123.358 129.142C123.358 137.005 123.811 144.693 124.476 152.507C124.51 152.901 124.813 154.063 124.202 153.949C123.927 153.899 123.833 151.742 123.786 151.292C123.563 149.228 123.375 147.159 123.221 145.085C122.913 140.948 122.746 136.794 122.725 132.64C122.331 136.679 121.937 140.719 121.544 144.759L120.984 150.501C120.887 151.506 120.788 152.512 120.69 153.516C120.645 153.979 120.674 154.583 120.544 155.023C120.338 155.716 120.408 155.663 119.765 155.98C120.379 150.719 120.946 145.45 121.448 140.171C121.693 137.595 121.923 135.018 122.134 132.437C122.191 131.744 122.246 131.048 122.301 130.355C122.329 130 122.574 128.863 122.438 128.569C122.303 128.278 121.411 127.974 121.154 127.825C120.592 127.5 120.03 127.174 119.468 126.848C117.644 125.785 115.822 124.715 114.017 123.6C113.229 123.112 112.401 122.359 111.543 122.099C110.688 121.841 110.067 122.582 109.337 123.052C108.768 123.419 107.429 123.907 107.049 124.53C106.696 125.109 107.793 127.429 108.081 128.284C108.895 130.698 109.708 133.111 110.521 135.524C112.171 140.416 113.821 145.308 115.469 150.202C115.872 151.397 116.276 152.593 116.679 153.788C116.937 154.556 117.369 156.739 117.996 156.825C118.273 156.863 118.729 156.487 118.997 156.378C119.397 156.217 119.766 156.22 120.168 156.134C120.904 155.98 121.667 155.506 122.389 155.174C124.246 154.322 126.17 153.771 128.042 152.974C129.922 152.174 131.772 151.274 133.645 150.474C135.346 149.746 137.062 148.918 138.697 147.972C140.422 146.971 142.191 146.09 143.873 144.981C146.936 142.962 149.966 141.075 152.672 138.6C153.308 138.017 153.985 137.432 154.615 136.808C155.167 136.261 156.22 135.585 156.595 134.867C156.738 134.592 156.861 134.054 156.694 133.728C156.515 133.378 155.72 133.41 155.349 133.348C154.178 133.152 153.007 132.956 151.836 132.76C151.925 133.72 152.017 134.68 152.081 135.642C152.127 136.323 152.45 138.121 152.015 138.653C151.417 137.945 151.608 135.827 151.556 134.883C151.527 134.379 151.629 133.392 151.449 132.944C151.25 132.454 150.702 132.46 150.204 132.326C148.096 131.757 146.006 131.281 143.965 130.379C140.518 128.857 136.398 126.287 135.627 121.331C134.824 116.164 138.352 111.686 141.321 108.805C143.1 107.078 144.991 105.585 146.948 104.198C147.862 103.55 148.776 102.903 149.697 102.268C150.031 102.038 151.131 101.563 151.307 101.159C151.487 100.746 151.395 99.6424 151.434 99.1723ZM77.6813 178.53C77.5144 178.632 77.3466 178.735 77.1797 178.836C79.0399 172.228 80.8831 165.649 82.4394 158.916C83.1902 155.667 83.951 152.42 84.7266 149.18C85.0623 147.781 85.8856 145.857 85.6572 144.409C85.4089 142.842 84.816 141.174 84.3562 139.685C81.4165 141.988 78.4142 144.173 75.4249 146.373C72.7454 148.346 70.0202 150.099 67.3219 152.051C65.9394 153.051 64.5133 153.725 63.0702 154.543C61.8973 155.206 62.3522 157.235 62.3691 158.592C62.4287 163.379 62.4257 168.182 62.6591 172.961C62.7435 174.702 62.6343 176.702 63.5231 178.151C64.6603 180.003 65.716 181.892 66.7528 183.843C67.1411 184.573 68.7738 188.53 69.3826 188.442C69.7799 188.387 70.1453 186.784 70.345 186.404C70.773 185.585 71.3997 184.881 71.9697 184.222C74.4317 181.375 77.1638 179.368 80.0042 177.287C82.8893 175.172 85.8419 173.205 88.7816 171.199C89.445 170.747 90.161 170.42 90.8205 169.957C91.0817 169.774 91.5981 169.483 91.762 169.157C92.0073 168.668 91.9249 167.313 91.9755 166.728C92.0808 165.533 92.2685 164.293 92.2784 163.089C92.2883 161.9 91.7153 160.879 91.2992 159.842C89.4748 155.292 87.703 150.73 86.115 146.041C84.8636 151.485 83.5497 156.904 82.3222 162.357C81.6816 165.204 80.909 168.005 80.1562 170.808C79.7728 172.24 79.3865 173.67 79.0021 175.103C78.7042 176.218 78.5483 177.851 77.6813 178.53ZM103.883 75.92C102.916 75.9324 102.039 75.7554 101.093 75.5043C100.747 75.4115 100.442 75.3731 100.089 75.3348C99.6912 75.2902 99.3287 75.0217 98.9791 74.9685C98.7149 74.9289 98.2531 75.0675 98.0009 75.1727C97.4159 75.4164 97.4348 75.2939 97.4099 76.1402C97.3722 77.448 97.3434 78.7558 97.2858 80.0637C97.0594 85.207 96.6204 90.3009 96.0205 95.3961C95.8984 96.4255 95.5577 97.7766 95.7454 98.7986C95.9143 99.7204 96.5529 100.705 96.9749 101.479C97.8429 103.07 99.8878 103.855 101.326 104.306C102.843 104.782 104.418 104.957 105.859 105.381C106.258 105.498 106.717 105.292 107.142 105.409C107.536 105.518 107.842 105.788 108.205 105.982C109.096 106.46 110.091 106.548 111.012 106.915C112.837 107.645 114.791 107.602 116.617 108.303C117.084 108.482 117.487 108.933 117.937 109.088C118.347 109.229 118.77 109.063 119.2 109.142C120.111 109.309 120.961 109.698 121.171 110.917C121.728 110.367 121.805 110.511 121.709 109.661C121.647 109.116 121.404 108.452 121.27 107.927C120.93 106.587 120.589 105.247 120.249 103.909C119.578 101.257 118.91 98.6031 118.291 95.9318C117.736 93.5426 117.233 91.1349 116.793 88.7085C116.569 87.4762 116.382 86.2365 116.189 84.9967C116.134 84.6367 116.189 84.065 115.899 83.825C115.636 83.6085 115.022 84.388 114.744 84.6391C112.803 86.3911 108.35 91.5753 105.923 88.5168C104.616 86.8712 104.693 83.9759 104.835 81.8478C104.922 80.54 105.106 79.2495 105.312 77.964C105.363 77.6435 105.678 76.6129 105.563 76.384C105.438 76.1378 104.142 75.9918 103.883 75.92ZM172.091 104.532C172.607 104.605 173.124 104.677 173.64 104.75C173.594 104.229 173.636 103.447 173.478 102.962C173.259 102.291 172.724 102.217 172.136 101.94C171.205 101.501 170.255 101.12 169.334 100.647C167.336 99.6214 165.347 98.5821 163.347 97.5576C162.471 97.1072 161.441 96.3723 160.49 96.7398C159.464 97.1357 158.451 97.9424 157.492 98.5326C156.405 99.202 155.32 99.8726 154.234 100.543C153.726 100.857 153.216 101.172 152.707 101.486C151.907 101.98 151.801 102.03 151.738 103.159C151.417 108.928 151.441 114.923 151.581 120.702C151.652 123.651 151.572 126.615 151.742 129.559C151.754 129.785 151.741 131.063 151.855 131.238C152.015 131.483 153.142 131.566 153.412 131.627C154.462 131.866 155.519 131.945 156.58 132.064C156.33 125.352 155.412 117.417 158.177 111.278C160.955 105.11 166.892 103.774 172.091 104.532ZM123.805 38.5011C124.116 37.6169 124.652 36.8705 125.111 36.0948C125.359 35.6754 125.787 35.174 125.946 34.6834C126.171 33.9852 126.17 34.1347 125.833 33.5231C125.514 32.9453 125.521 32.9018 125.027 32.7984C124.612 32.7115 124.169 32.8592 123.745 32.7644C123.316 32.6685 122.137 32.2182 122.408 31.3674C122.396 31.4047 123.079 30.9855 123.131 30.9128C123.302 30.6802 123.357 30.1842 123.441 29.903C123.714 29.0016 123.81 28.4181 123.506 27.4583C123.053 26.0252 121.259 25.601 120.144 26.0832C119.586 26.324 119.267 26.8345 119.017 27.4762C118.858 27.8837 118.82 28.4725 118.614 28.8274C118.304 29.3614 118.285 29.3021 117.64 29.2077C116.821 29.0877 116.148 28.6951 115.371 28.4213C114.525 28.1229 113.974 28.7299 113.236 29.2194C111.901 30.1035 110.611 30.4102 109.116 30.5506C107.451 30.7069 105.907 30.2066 104.259 30.0775C104.687 32.5336 105.793 34.5277 106.677 36.7516C106.832 37.1428 107.083 37.5424 107.089 37.995C107.096 38.4213 106.6 39.0012 106.656 39.3539C106.775 40.1063 108.104 40.7086 108.607 40.9205C110.031 41.5189 111.652 42.6905 113.219 42.2199C114.078 41.9619 114.54 40.2711 115.348 40.1469C116.432 39.9795 115.621 41.7202 115.42 42.3191C116.959 42.6107 118.91 42.3634 120.383 41.7128C121.122 41.3869 121.747 40.9006 122.421 40.4183C123.26 39.8177 123.435 39.6528 123.805 38.5011ZM96.8687 75.0539C94.1246 75.1108 91.3399 74.6184 88.5899 75.0712C87.9523 75.1764 87.3236 75.3447 86.698 75.5241C86.2481 75.6527 84.8189 75.7616 84.518 76.1786C84.2449 76.5597 84.2429 78.3104 84.1863 78.8041C84.0612 79.9028 84.095 80.2827 84.6571 81.1327C86.5073 83.9289 88.434 86.6423 90.2574 89.4695C92.0083 92.1853 93.4453 95.2204 95.2161 97.8979C96.1616 94.4681 96.2182 90.3517 96.4774 86.7549C96.6154 84.8371 96.7416 82.9181 96.8597 80.999C96.973 79.1703 97.3553 76.7972 96.8687 75.0539ZM61.3501 111.205C61.6679 111.205 62.1734 111.329 62.4823 111.205C62.9064 111.373 63.0484 111.174 62.9074 110.61C62.9143 110.412 62.9213 110.214 62.9282 110.016C62.9719 108.743 63.0216 107.468 63.0682 106.195C63.1119 105.03 63.1547 103.865 63.1914 102.7C63.2162 101.904 63.539 99.9332 63.2808 99.2143C63.108 98.7318 62.6968 98.8419 62.1983 98.7701C61.7235 98.7033 61.2468 98.6415 60.7751 98.5499C60.1752 98.4336 59.5108 98.1663 58.9011 98.3334C58.2883 98.5016 57.8434 99.2069 57.3627 99.656C56.6009 100.365 55.8243 101.048 55.0566 101.746C53.6623 103.015 52.2818 104.308 50.8984 105.597C50.3273 106.129 50.2181 105.945 50.4961 106.71C50.6679 107.182 51.0602 107.717 51.2986 108.144C51.7733 108.994 52.246 110.282 52.8558 110.972C53.7417 111.976 56.2007 111.338 57.3786 111.331C58.7213 111.324 60.0154 111.35 61.3501 111.205ZM64.8251 111.121C65.9901 110.98 67.1659 111.04 68.3229 110.845C69.5812 110.633 70.8296 110.319 72.0849 110.083C73.3373 109.849 77.145 108.9 76.7696 106.571C76.3723 104.109 73.4565 102.635 71.8436 101.808C69.325 100.515 66.6942 99.8231 64.0445 99.0918C63.7118 101.299 63.7595 103.667 63.6989 105.904C63.6661 107.118 63.6373 108.334 63.6373 109.551C63.6373 109.843 63.5569 110.45 63.6532 110.722C63.8777 111.362 64.1399 111.121 64.8251 111.121ZM60.9966 112.179H53.5659C54.6653 115.017 55.7051 117.907 56.8899 120.691C58.0708 123.464 59.5913 126.077 60.931 128.74C61.2707 128.279 61.8119 127.779 62.0423 127.231C62.2976 126.626 62.2906 125.734 62.3323 125.033C62.4406 123.213 62.4902 121.375 62.527 119.55C62.5598 117.953 62.6154 116.366 62.7147 114.771C62.7356 114.422 63.0454 112.605 62.8686 112.306C62.7107 112.041 61.3213 112.181 60.9966 112.179ZM91.6011 56.4633C92.8544 56.4631 94.1097 56.4434 95.3631 56.4697C96.5002 56.4938 97.983 56.2468 99.0248 56.9769C101.147 58.4639 96.9034 62.2831 96.0434 63.2444C97.4348 63.8729 99.6058 62.6254 100.968 62.0538C102.653 61.3471 104.37 60.8727 106.088 60.3192C106.517 60.1809 108.359 59.9102 108.593 59.5003C108.823 59.0937 108.307 56.6406 108.254 56.1232C108.205 55.6367 108.247 54.8784 108.084 54.4208C108.183 53.8712 108.029 53.6785 107.619 53.8435C107.478 53.8429 107.337 53.842 107.195 53.8414C106.151 53.8518 105.104 53.9123 104.06 53.9555C100.469 54.1045 96.966 54.3032 93.4066 55.0016C91.751 55.3264 90.0816 55.7258 88.4359 56.1243C87.0495 56.4598 87.2829 56.7412 88.577 56.7454C89.59 56.7488 90.593 56.5613 91.6011 56.4633ZM194.593 23.5533C194.807 23.248 195.02 22.9424 195.233 22.6368C194.714 22.4518 194.194 22.2664 193.674 22.0815C193.122 21.8849 192.824 21.9299 193.07 21.1602C193.378 20.1959 194.783 20.0854 195.459 20.0491C197.786 19.9237 200.23 20.8465 202.441 21.6594C203.52 22.0562 204.365 22.6702 205.278 23.4867C205.676 23.8432 206.136 24.1781 206.484 24.6064C206.847 25.0515 206.998 25.6216 207.352 26.0678C207.933 26.7994 208.676 27.1637 208.961 28.2196C209.288 29.4318 208.898 30.8193 208.414 31.8762C207.923 32.9489 207.194 33.7599 206.601 34.7347C206.132 35.508 205.15 37.6209 206.684 37.376C207.495 37.2464 208.547 35.5222 209.131 34.8354C209.967 33.8503 210.79 32.8425 211.676 31.9251C212.462 31.1115 213.368 30.2775 214.418 30.1345C215.526 29.9837 216.079 30.8673 216.619 31.9417C217.128 32.9551 217.209 33.9444 217.568 34.9816C217.74 35.4817 217.96 35.7605 218.062 36.3057C218.218 37.1443 218.234 38.059 218.313 38.914C218.439 40.2565 218.557 41.3122 218.348 42.6277C218.153 43.8588 218.099 45.1665 217.935 46.4191C217.748 47.8376 217.593 49.2627 217.41 50.6818C217.254 51.884 216.662 53.5963 217.243 54.7142C218.637 57.4008 220.312 53.4459 220.752 51.9683C221.527 49.372 221.922 46.5338 222.605 43.8841C222.971 42.4671 223.29 41.0367 223.501 39.5696C223.674 38.3563 223.588 36.8783 224.122 35.7975C224.536 34.9581 225.274 34.3206 226.084 34.5768C227.096 34.8976 227.485 36.7224 227.783 37.8317C228.57 40.7575 228.281 43.3926 227.96 46.3765C227.812 47.7581 227.671 49.1417 227.416 50.5004C227.244 51.417 226.533 53.2721 227.59 53.7705C229.09 54.4778 230.679 49.1152 231.107 47.9043C232.225 44.7328 232.654 41.5875 233.115 38.1892C233.221 37.4078 233.302 36.6098 233.461 35.8419C233.599 35.1734 234.01 34.4979 234.048 33.8294C234.085 33.1604 233.729 32.6935 234.093 32.0368C234.396 31.4901 234.944 31.4571 235.438 31.4523C236.6 31.441 237.711 32.077 238.793 32.5384C239.799 32.9676 241.287 33.9095 242.371 33.6063C238.969 29.2998 235.574 25.0422 231.515 21.6883C229.631 20.1306 227.745 18.6338 225.708 17.3636C223.645 16.0771 221.281 15.2081 219.07 14.4297C217.869 14.0062 216.674 13.5263 215.487 13.0405C214.43 12.608 213.367 12.5261 212.333 12.0355C210.085 10.9699 207.574 10.5571 205.247 9.80157C204.219 9.46824 203.18 9.1823 202.15 8.87336C201.068 8.54869 199.547 7.98486 198.444 8.03967C197.502 8.08644 197.184 9.43199 196.731 10.3679C196.073 11.7265 195.512 13.1381 194.995 14.5874C193.935 17.5567 192.817 20.6243 192.059 23.7264C191.643 25.4297 191.232 27.1348 190.822 28.8407C190.469 30.3177 189.584 32.4482 189.819 33.9637C191.562 30.6159 193.185 27.139 194.593 23.5533ZM113.454 53.7836C112.529 53.8361 111.605 53.8882 110.68 53.9407C111.602 57.7178 111.473 61.7397 111.473 65.6549C115.782 65.0219 120.125 64.914 124.459 64.9578C123.663 63.043 123.971 60.559 124.198 58.5087C124.331 57.3085 124.405 56.1524 124.386 54.9415C124.368 53.8057 124.63 52.8507 123.665 52.4995C122.899 52.221 122.415 52.6851 121.685 52.8969C120.811 53.1504 119.86 53.1811 118.97 53.3189C117.118 53.6058 115.332 53.7741 113.454 53.7836ZM88.6276 61.1395C91.4035 60.1794 94.3541 60.5334 97.1448 59.8035C96.5102 59.0814 95.3144 59.5092 94.4712 59.5694C93.5129 59.6373 92.5555 59.6871 91.5971 59.7451C90.6626 59.802 88.0705 59.7138 87.7328 61.1961C88.0308 61.1774 88.3287 61.1583 88.6276 61.1395ZM190.225 7.61603C186.591 8.01344 182.786 7.9517 179.179 8.74207C175.047 9.64702 170.741 10.2148 166.736 11.8097C162.807 13.3745 158.8 14.4697 154.926 16.3071C151.161 18.0932 147.535 19.9933 143.989 22.3824C142.253 23.5516 140.565 24.791 138.91 26.1339C137.295 27.4448 135.525 28.5197 133.96 29.9093C132.567 31.1463 131.365 32.281 130.15 33.7966C128.852 35.4172 127.588 37.0814 126.288 38.6992C125.203 40.0489 125.89 43.3488 125.959 45.1451C126.054 47.6353 126.219 50.0905 126.464 52.5644C126.697 54.9218 126.937 57.4556 126.629 59.808C126.5 60.7969 126.053 62.5054 126.267 63.4925C126.436 64.2831 127.568 64.8628 128.145 65.1205C128.851 65.4356 129.572 65.3027 130.297 65.7037C131.105 66.1516 131.787 66.7109 132.646 66.946C133.705 67.2367 134.896 67.4817 135.984 67.4904C136.99 67.4978 138 67.9049 139.004 68.1548C140.635 68.5619 142.229 68.6893 142.127 71.1428C142.01 73.9737 141.109 76.4025 140.572 79.0899C141.298 79.0899 141.804 79.1481 142.469 78.8276C143.244 78.4539 144.072 78.3537 144.887 78.1929C146.687 77.8353 148.443 77.7202 150.256 77.4926C153.577 77.0756 156.955 77.1251 160.279 77.1696C161.961 77.1919 163.786 77.354 165.446 77.6806C167.148 78.0147 168.912 78.225 170.561 78.8672C171.953 79.4091 173.39 79.7791 174.81 80.2579C175.45 80.4732 176.216 80.6489 176.821 80.8902C177.697 81.2403 178.165 81.9864 179.177 81.9691C178.892 79.6331 178.223 77.4666 177.82 75.1516C177.399 72.7328 176.559 70.5922 175.631 68.3107C175.218 67.2924 174.912 66.2123 174.513 65.1859C174.069 64.0442 173.447 63.0984 172.91 62.0307C171.815 59.8471 170.645 57.7464 169.569 55.5471C168.63 53.627 167.556 51.7863 166.527 49.933C165.396 47.895 163.825 46.3571 162.541 44.4876C162 43.6979 161.484 42.9642 160.876 42.2395C160.318 41.5723 159.525 40.0953 158.67 40.0263C158.177 39.9863 157.325 40.3313 156.856 40.5163C155.987 40.8591 155.067 41.0826 154.17 41.3843C153.188 41.7147 152.223 42.1445 151.24 42.4584C150.847 42.5839 150.38 42.5242 150.007 42.6664C149.616 42.8152 149.305 43.1432 148.878 43.2937C146.774 44.0378 144.682 44.8826 142.563 45.56C140.38 46.2576 138.164 46.8516 136.049 47.8397C135.646 48.0283 135.197 48.4738 134.887 48.1811C134.656 47.9625 134.507 47.3449 134.567 46.9845C134.771 45.7846 136.31 45.3512 137.051 44.8695C139.038 43.5785 141.012 42.6681 143.147 41.7915C144.199 41.3602 145.246 40.8997 146.313 40.527C147.204 40.2157 148.131 39.689 149.043 39.5296C149.854 39.3878 150.43 38.9899 151.234 38.6376C152.419 38.1183 153.638 37.692 154.843 37.2485C156.902 36.4901 159.084 36.1713 161.19 35.6629C166.07 34.4847 171.137 33.8949 176.118 33.9679C178.629 34.0048 181.255 33.9134 183.736 34.4281C184.334 34.5521 185.593 34.5282 186.005 35.1975C186.226 35.5568 186.106 36.0915 186.163 36.4809C186.259 37.138 186.547 37.4442 186.796 38.0429C187.326 34.8032 187.934 31.6322 188.619 28.4398C189.236 25.5507 189.809 22.6091 190.636 19.7605C191.51 16.7464 192.57 13.5508 193.877 10.7924C194.145 10.2246 194.817 9.32261 194.874 8.68751C194.934 8.03212 194.197 7.52459 193.692 7.45159C192.555 7.28802 191.34 7.56815 190.225 7.61603ZM214.633 53.9085C215.002 49.4143 216.083 44.7134 215.479 40.2014C215.224 38.2914 215.024 36.468 214.258 34.7438C213.87 33.8719 213.715 33.2315 212.975 33.7457C212.226 34.2661 211.536 35.5514 210.916 36.2965C209.774 37.6658 208.58 39.0759 207.213 40.093C206.137 40.8936 203.998 41.6527 203.19 39.9205C202.418 38.2696 203.447 35.9658 204.185 34.6039C205.03 33.0457 206.63 31.6024 205.732 29.6799C205.346 28.8524 204.79 28.6355 204.205 28.0924C203.699 27.6224 203.275 27.0135 202.769 26.5351C201.303 25.1484 199.694 24.5546 198.001 23.7622C197.219 23.3961 197.117 23.0518 196.665 23.8884C196.174 24.7973 195.906 26.0711 195.552 27.0761C194.842 29.0894 194.084 30.9971 193.168 32.8744C192.244 34.7689 191.425 36.748 190.551 38.6801C190.222 39.409 189.912 40.1499 189.522 40.8341C189.31 41.2064 189.048 41.5382 188.875 41.9458C188.621 42.5484 188.734 43.0977 188.575 43.6977C187.891 46.2862 186.892 42.6726 186.701 41.8278C186.483 40.8669 185.96 40.1177 185.62 39.2213C185.34 38.4812 185.149 37.381 184.472 37.0326C183.918 36.7471 183.203 37.1388 182.638 37.1769C181.598 37.2472 180.551 37.1424 179.507 37.2235C178.53 37.2991 177.557 37.4159 176.581 37.4904C175.604 37.5651 174.628 37.3593 173.664 37.4874C171.934 37.7174 170.165 37.6804 168.439 37.9991C166.414 38.3727 164.409 38.7712 162.378 39.0822C162.85 40.1948 163.828 40.6773 164.602 41.4713C165.293 42.1808 165.84 42.9997 166.537 43.6747C167.243 44.3599 167.663 45.3732 168.248 46.1966C168.821 47.003 169.352 47.6791 169.853 48.5814C172.277 52.9382 174.776 57.1342 176.775 61.8432C177.786 64.2264 178.752 66.7765 179.443 69.3339C180.184 72.0758 180.548 75.0168 180.988 77.8526C181.208 79.2668 181.323 80.4596 181.083 81.8812C181.019 82.219 180.954 82.5568 180.885 82.8946C180.675 83.2979 180.753 83.559 181.119 83.679C181.334 84.0687 181.627 84.2147 181.646 84.748C181.661 85.1538 181.479 85.6228 181.2 85.8517C180.66 86.2921 180.66 85.697 180.103 85.8294C179.893 85.9692 179.684 86.1103 179.476 86.2513C179.366 86.0422 179.252 85.8356 179.136 85.6314C178.781 85.2107 178.499 85.2491 178.034 85.1464C178.27 88.5329 177.894 91.5555 177.296 94.8591C177.008 96.4465 176.515 98.0018 176.267 99.5929C175.989 101.37 176.596 102.18 177.534 103.365C177.296 103.52 176.879 103.688 176.682 103.92C176.369 104.288 176.45 104.334 176.45 104.912C176.45 105.97 176.288 107.012 176.154 108.051C175.907 109.977 175.682 111.971 175.15 113.814C174.184 117.164 172.622 120.642 171.031 123.591C170.14 125.242 169.249 127.118 168.132 128.542C167.012 129.971 165.902 131.413 164.784 132.847C162.586 135.67 160.182 137.62 157.547 139.732C156.504 140.569 155.405 141.486 154.507 142.528C153.596 143.587 152.383 144.328 151.293 145.096C150.806 145.44 150.46 145.933 149.935 146.215C149.442 146.479 149.098 146.565 148.684 146.912C147.658 147.771 146.548 148.508 145.419 149.156C144.041 149.948 142.684 150.868 141.268 151.543C140.623 151.851 140.017 152.186 139.392 152.546C138.715 152.936 137.987 153.191 137.293 153.607C136.707 153.957 136.113 154.161 135.518 154.447C135.03 154.682 134.648 155.06 134.151 155.305C133.119 155.813 132.181 156.086 131.178 156.685C129.846 157.48 128.268 157.852 126.865 158.424C125.299 159.064 123.674 159.7 122.067 160.153C121.383 160.346 120.8 160.598 120.14 160.892C119.71 161.081 119.216 161.186 118.74 161.367C117.422 161.868 116.105 162.35 114.781 162.776C112.193 163.607 109.549 164.606 107.04 165.736C105.724 166.328 104.39 167.04 103.127 167.794C101.7 168.646 100.163 169.138 98.7308 169.982C95.9639 171.61 93.207 173.288 90.4719 174.998C89.0358 175.896 87.6206 176.822 86.2183 177.799C85.7098 178.154 85.1536 178.3 84.6481 178.648C83.9867 179.102 83.4445 179.77 82.7671 180.22C80.1582 181.958 77.4946 183.595 75.0971 185.792C73.8428 186.943 72.4951 188.121 71.4116 189.522C71.0531 189.984 70.4334 190.699 70.3688 191.37C70.2735 192.362 70.3628 191.449 70.6379 192.061C71.0203 192.118 71.1067 192.301 70.8982 192.609C70.8018 192.753 70.6787 192.827 70.5297 192.83C70.047 192.951 69.1453 192.315 68.7579 192.049C68.0866 191.587 67.731 191.005 67.299 190.23C66.3635 188.551 65.4498 186.856 64.4855 185.201C63.6185 183.711 62.7693 182.071 61.7821 180.704C61.1138 179.776 61.0631 180.182 60.3193 180.704C59.7651 181.093 59.1225 181.259 58.5485 181.625C56.3626 183.022 53.9592 184.052 51.7167 185.025C51.2052 185.246 50.9331 185.599 50.4842 185.905C49.9132 186.294 49.1892 186.485 48.5774 186.762C46.893 187.525 45.2176 188.317 43.5462 189.12C42.2551 189.741 41.0147 190.23 40.0036 191.375C39.6014 191.83 39.1148 192.157 38.6996 192.618C38.216 193.154 37.5615 194.026 36.9527 194.329L36.5823 194.691C36.331 194.473 36.0798 194.255 35.8285 194.038C35.5782 193.823 35.3289 193.609 35.0797 193.393C34.454 192.851 33.8333 192.301 33.2116 191.753C31.8023 190.507 30.3831 189.274 29.0722 187.868C26.7433 185.371 24.326 183.009 21.8908 180.671C19.3345 178.216 16.8417 175.647 14.198 173.341C11.8015 171.25 9.1866 169.485 6.86365 167.277C5.69373 166.167 4.52679 165.049 3.33304 163.972C3.26749 163.914 2.2962 163.172 2.28727 163.089C2.27038 162.937 2.59017 162.541 2.68452 162.414C3.13143 161.807 3.62602 161.268 4.07095 160.657C6.1466 157.803 8.85588 157.904 11.7191 157.769C13.0181 157.708 14.4264 158.454 15.6599 158.963C17.1674 159.584 18.6224 160.496 20.0793 161.284C23.0816 162.907 26.1802 164.293 29.2122 165.797C30.405 166.388 31.5928 166.676 32.8054 167.083C34.0349 167.495 35.3021 167.102 36.618 167.131C37.3003 167.146 37.9459 167.197 38.6341 167.149C39.0423 167.119 39.512 167.022 39.9152 167.031C40.242 167.038 40.5806 167.207 40.8816 167.165C42.1975 166.978 43.5879 166.718 44.9455 166.504C46.2932 166.292 47.6836 166.187 49.0134 165.856C49.6828 165.689 50.3432 165.454 50.9877 165.17C51.5469 164.924 52.5638 164.646 53.0227 164.147C53.4328 163.703 53.2531 163.697 53.0247 162.97C52.9343 162.682 52.8399 162.246 52.7059 161.971C52.3434 161.223 51.9918 160.988 52.2033 160.052C52.5758 158.403 53.844 157.351 54.9295 156.538C57.3756 154.709 59.6121 152.363 62.1873 150.812C67.4937 147.614 72.3293 143.461 77.5035 139.951C83.1922 136.092 88.573 131.563 94.3402 127.867C99.7081 124.426 105.052 120.966 110.465 117.634C113.107 116.008 116.097 114.52 118.495 112.386C117.166 112.181 115.834 111.916 114.501 111.769C113.882 111.7 113.256 111.763 112.642 111.642C111.953 111.504 111.303 111.158 110.617 111.013C109.437 110.764 108.375 110.261 107.194 110.074C105.928 109.875 104.687 109.411 103.414 109.281C100.753 109.009 98.3504 107.785 96.0166 106.243C95.4396 105.861 94.9648 106.08 94.4107 105.82C94.1058 105.677 93.782 105.106 93.4394 104.799C92.4969 103.956 91.6865 102.958 90.7907 102.037C88.9057 107.309 85.2053 110.894 81.6747 114.43C79.885 116.222 77.9445 117.74 76.1369 119.497C74.7356 120.859 73.4634 122.079 71.9687 123.162C70.5327 124.202 69.183 125.607 67.8145 126.855C66.8859 127.702 65.7984 128.341 64.8122 129.076C64.0058 129.676 62.4316 130.572 62.2122 131.662C62.0314 132.552 62.383 133.611 61.2935 133.201C60.3173 132.836 59.6102 131.485 59.0421 130.534C57.5722 128.073 56.2007 125.529 54.8361 122.976C54.1032 124.76 52.8389 126.045 51.671 127.366C50.9609 128.169 50.224 128.915 49.4573 129.632C49.0849 129.979 48.7095 130.321 48.3361 130.669C48.1901 130.805 47.8574 131.015 47.762 131.208C47.5396 131.66 47.6746 131.455 47.7094 132.001C47.763 132.857 47.9924 133.529 47.6041 134.349C47.2396 135.119 46.4441 135.447 45.887 135.973C44.5611 137.224 43.1668 138.553 41.6959 139.53C41.3623 139.751 41.0464 139.943 40.7356 140.214C40.2162 140.667 40.3115 140.832 39.7881 140.397C38.9708 139.719 38.2637 138.592 37.5258 137.773C35.9785 136.058 34.4153 134.364 32.8312 132.704C29.8131 129.536 26.7045 126.529 23.7241 123.305C20.8917 120.242 17.8547 117.605 14.9299 114.694C14.1275 113.895 13.3349 113.081 12.5434 112.265C11.8383 111.54 10.6942 110.74 10.1728 109.812C9.41601 108.464 12.3785 106.622 13.2714 106.347C14.8127 105.875 16.8059 106.144 18.3493 106.533C19.9691 106.939 21.6197 108.3 23.1322 109.146C24.8374 110.101 26.5744 110.926 28.2926 111.827C29.0583 112.229 29.8707 112.551 30.5817 113.092C31.3365 113.667 32.0109 114.322 32.8133 114.804C33.7379 115.358 34.6983 115.876 35.6716 116.286C36.1115 116.472 36.5863 116.659 37.0491 116.734C37.7055 116.841 37.6161 116.465 38.1614 116.254C38.6242 116.075 38.7334 116.547 39.1505 116.679C39.5418 116.802 39.8348 116.677 40.1745 116.414C40.9312 115.829 41.6046 115.022 42.3613 114.412C43.0635 113.846 43.8371 113.318 44.4956 112.677C44.7886 112.393 45.0061 112.002 45.2951 111.711C45.7589 111.247 45.9426 111.431 46.4829 111.111C46.9258 110.85 47.327 110.362 47.7471 110.039C48.0083 109.839 48.6419 109.585 48.8108 109.261C49.2537 108.41 48.4979 107.817 47.8216 108.068C47.7203 107.333 47.1999 105.588 47.4244 104.897C47.623 104.287 48.1454 104.401 48.5843 104.078C50.2339 102.864 51.4515 100.658 52.9949 99.2316C54.4508 97.8867 55.7339 96.2807 57.176 94.911C58.4104 93.7381 59.7601 92.5924 60.8843 91.3266C62.2132 89.8308 63.9154 88.6677 65.3614 87.3315C66.8541 85.9531 68.2415 84.4177 69.7183 83.0232C71.1395 81.6808 72.5358 80.2789 73.9957 79.0021C75.3087 77.8539 76.6842 76.8046 77.9693 75.6404C78.6734 75.0032 79.4431 74.4427 80.2465 74.0245C81.046 73.6088 81.7452 73.12 82.5248 72.6721C84.0761 71.7813 86.0951 71.1651 87.7815 70.9102C89.6357 70.6294 91.4968 70.377 93.3689 70.3757C94.366 70.3745 95.3343 70.6108 96.3254 70.6863C97.2352 70.7543 98.2203 71.0414 99.1241 71.0043C99.5333 70.9869 99.8888 70.7704 100.286 70.8409C100.617 70.8991 100.905 71.1478 101.259 71.1911C102.051 71.2888 102.845 71.1911 103.645 71.3185C105.482 71.6118 107.321 72.0287 109.163 72.2614C111.123 72.5088 113.068 72.5558 115.019 72.9728C116.925 73.3799 118.844 73.8018 120.74 74.2732C124.768 75.2729 128.839 76.2504 132.803 77.7363C133.73 78.084 134.662 78.4144 135.552 78.8907C135.985 79.1221 136.4 79.4017 136.851 79.5749C137.497 79.8224 137.624 79.9152 137.957 79.2409C138.53 78.0778 138.845 76.5411 139.261 75.2766C139.671 74.0245 140.17 72.7637 140.409 71.4571C139.716 71.3198 138.842 71.5858 138.127 71.6155C137.253 71.6538 136.389 71.6303 135.516 71.6229C133.756 71.6105 132.38 70.9622 130.716 70.2829C129.312 69.7088 127.443 69.3797 126.374 68.067C125.8 67.3629 125.608 67.2392 124.746 67.3654C123.875 67.4929 123.016 67.7119 122.137 67.7477C118.826 67.8851 115.529 68.6052 112.202 68.7475C111.302 68.7871 109.051 69.3178 109.198 67.4161C109.229 67.0202 109.473 66.6775 109.519 66.2717C109.57 65.8361 109.483 65.3933 109.428 64.9673C109.298 63.9595 109.162 62.9524 109.032 61.9444C105.999 63.158 102.927 64.1413 99.8352 65.1025C98.553 65.5011 96.4943 66.4177 95.1694 65.9153C93.8883 65.4293 94.6302 63.1803 95.0294 62.1037C92.485 62.8277 89.7707 64.0114 87.1767 64.2831C86.3871 64.3659 85.6194 64.5836 85.4347 63.3942C85.2887 62.4464 85.8379 61.2873 86.118 60.4547C84.1267 60.2331 82.065 60.2543 82.4404 57.0728C82.783 54.1538 84.7286 53.5727 86.7993 53.0395C89.3556 52.3809 91.9666 52.1613 94.5398 51.6284C96.7783 51.1647 99.2214 50.6475 101.508 50.8817C102.717 51.0053 103.935 51.0335 105.145 51.1733C105.717 51.2392 106.265 51.3493 106.818 51.5435C107.327 51.7223 108.04 52.2766 108.563 52.2865C109.351 52.302 110.302 50.9728 111.15 50.6657C112.201 50.285 113.333 50.2159 114.417 50.1226C115.648 50.0175 116.88 49.9588 118.11 49.8346C118.39 49.8063 119.45 49.8926 119.67 49.688C119.993 49.3898 119.778 47.8605 119.756 47.2323C119.735 46.6511 119.825 45.5626 119.501 45.3347C119.198 45.1209 118.313 45.4143 118.015 45.4739C116.776 45.7211 115.6 45.6928 114.367 45.6299C113.797 45.6011 113.249 45.7903 112.685 45.697C112.08 45.5973 111.471 45.3434 110.868 45.2022C109.562 44.8964 108.372 44.5156 107.247 43.6035C106.259 42.8031 105.09 42.2612 104.538 40.8593C104.133 39.8329 103.969 37.852 105.157 37.56C104.348 36.1043 103.789 34.4689 103.36 32.7868C103.282 32.4817 103.231 32.0224 103.115 31.7564C102.703 30.8157 103.085 31.6501 102.498 31.2739C101.919 30.9024 101.501 30.6083 101.048 29.9622C100.326 28.9319 100.022 27.6638 99.9305 26.3213C99.8074 24.4979 99.576 22.4419 99.7895 20.6278C100.159 17.4855 102.001 15.1245 103.873 13.224C104.89 12.1921 106.228 11.8078 107.42 11.1816C108.571 10.577 109.856 9.94311 111.069 9.80132C112.163 9.67326 113.23 9.22784 114.325 9.04831C115.831 8.80097 117.337 8.8934 118.851 8.81829C119.547 8.78378 120.242 8.66129 120.935 8.56812C121.327 8.51529 121.988 8.57158 122.347 8.37831C122.934 8.06132 122.617 8.72686 122.826 7.75757C123.225 5.91365 123.55 4.18442 124.154 2.39271C124.716 0.723369 125.4 -0.872727 126.303 -2.29993C127.15 -3.63855 128.248 -4.61773 129.246 -5.76123C129.986 -6.6084 130.824 -7.37366 131.667 -8.05887C132.15 -8.45059 132.687 -8.66229 133.158 -9.00823C133.743 -9.4372 134.259 -9.76248 134.917 -10.0252C136.329 -10.5887 137.731 -11.1872 139.231 -11.1578C140.848 -11.1261 142.47 -11.5953 144.044 -11.0004C146.967 -9.89561 148.4 -5.94621 148.351 -2.31948C149.35 -2.63053 150.224 -3.22925 151.284 -3.28048C152.259 -3.32762 153.418 -3.22208 154.376 -2.99627C156.235 -2.55815 158.148 -1.26952 159.258 0.683404C160.315 2.54601 160.473 5.01909 159.824 7.13225C159.512 8.14385 159.019 9.04373 158.493 9.89844C158.108 10.5251 157.248 11.2189 157.208 12.0586C164.405 9.34649 171.633 7.43464 179.08 6.19723C182.854 5.57018 186.634 5.8842 190.413 5.52576C192.027 5.37271 193.781 5.58688 195.449 5.59492C196.154 5.59851 196.702 5.47639 197.213 4.90799C197.73 4.33302 198.143 3.62888 198.746 4.45873C198.9 4.67055 198.932 5.18291 199.139 5.34227C199.39 5.53529 200.119 5.40278 200.42 5.42567C201.469 5.5056 202.493 5.72744 203.524 5.98306C205.414 6.45224 207.292 6.92649 209.16 7.52187C212.716 8.65596 216.225 9.75269 219.731 11.0989C223.307 12.4724 226.921 14.1671 230.218 16.3905C231.816 17.4673 233.411 18.8116 234.88 20.1438C235.562 20.7634 236.174 21.4336 236.768 22.1807C237.403 22.9794 238.179 23.5182 238.808 24.3228C240.175 26.0728 241.538 27.9292 242.778 29.8253C243.426 30.8151 244.021 31.8592 244.598 32.9143C245.002 33.6545 246.069 35.0098 245.823 35.9661C245.692 36.4766 245.235 36.8338 244.816 36.7088C244.676 36.6671 244.56 36.4406 244.44 36.4191C244.036 36.3477 244.404 36.1702 243.931 36.4087C242.993 36.8832 242.694 37.8351 241.502 37.6184C239.476 37.2499 237.57 36.0572 235.727 35.0174C235.201 37.5255 235.126 40.1258 234.665 42.6639C234.217 45.1402 233.468 47.5018 232.563 49.7732C231.769 51.7661 230.751 53.8899 229.346 55.3142C228.275 56.4009 225.63 57.7509 224.842 55.4371C224.509 54.4545 225.006 52.9276 225.146 51.9162C225.336 50.559 225.544 49.198 225.658 47.8271C225.75 46.7134 225.797 45.5931 225.882 44.478C225.957 43.5189 226.162 41.4597 225.729 40.6125C225.469 40.1019 225.446 40.603 225.294 41.1126C225.111 41.7308 224.958 42.3437 224.823 42.9803C224.536 44.333 224.278 45.6949 224.008 47.0523C223.524 49.4778 222.991 51.85 221.983 54.0308C221.088 55.9674 219.828 58.0919 217.914 58.4091C217.017 58.5574 215.849 58.0466 215.164 57.2938C214.397 56.4494 214.626 55.0564 214.633 53.9085Z" fill="black"/>
<path fill-rule="evenodd" clip-rule="evenodd" d="M84.1625 21.4882C84.1237 21.7426 84.086 21.9971 84.0482 22.2517C84.0711 22.2583 85.9004 17.8526 86.2043 17.3205C87.2322 15.5169 88.57 14.0161 89.8591 12.5097C92.5912 9.31889 95.7891 6.74337 98.4666 3.4955C99.3465 2.4271 100.926 0.808121 100.577 -0.99856C100.23 -2.79423 97.3076 -2.42936 96.3065 -1.90982C94.7374 -1.09507 93.4622 0.608794 92.2923 2.09341C91.0171 3.71301 89.731 5.31443 88.6504 7.14734C87.4845 9.12378 86.3781 11.2643 85.6631 13.5581C84.8626 16.1275 84.5508 18.7867 84.1625 21.4882ZM84.7633 29.3714C83.5219 29.8486 85.0781 30.1709 84.5915 30.9978C84.0582 31.9046 83.1614 29.1107 83.0273 28.5833C82.2367 25.4664 82.5903 21.6801 83.0223 18.5157C83.2398 16.9194 83.3808 15.2968 83.6748 13.7177C83.9618 12.178 84.5865 10.7148 85.1625 9.31407C86.3175 6.51162 87.847 3.90071 89.583 1.6157C91.3239 -0.676866 93.2645 -2.97054 95.5617 -4.38191C97.4595 -5.54755 100.469 -4.73874 101.357 -2.19279C102.265 0.408972 101.037 3.24297 99.5849 5.07229C97.6909 7.45802 95.6272 9.82767 93.4999 11.8848C92.4065 12.9423 91.4898 14.2211 90.4271 15.3244C89.297 16.499 88.3187 17.6805 87.4825 19.1993C86.6731 20.6712 85.8398 22.1418 85.3135 23.8127C84.7375 25.6422 84.7633 27.4358 84.7633 29.3714Z" fill="black"/>
<path fill-rule="evenodd" clip-rule="evenodd" d="M203.052 101.641C201.018 101.577 197.922 101.57 198.037 105.03C198.092 106.745 198.838 108.004 199.451 109.47C200.093 111.01 200.57 112.603 200.76 114.33C201.522 121.319 199.475 128.149 197.621 134.611C201.601 130.608 204.474 125.037 205.984 118.933C206.715 115.97 207 112.166 206.763 109.082C206.645 107.54 206.188 106.156 205.639 104.782C205.363 104.091 205.087 103.303 204.647 102.744C204.206 102.185 203.594 101.998 203.052 101.641ZM195.957 138.615C194.643 135.922 196.712 131.956 197.388 129.331C198.197 126.19 198.943 122.922 199.289 119.648C199.65 116.217 199.184 113.55 197.907 110.52C196.767 107.812 196.09 104.204 197.358 101.338C197.869 100.185 198.623 100.043 199.519 99.5826C200.62 99.0184 200.923 98.0632 202.272 98.2154C204.682 98.4839 205.796 101.332 206.693 103.758C208.782 109.415 208.214 116.717 206.433 122.397C205.407 125.665 204.237 129.058 202.495 131.841C201.642 133.206 200.638 134.389 199.596 135.528C198.47 136.759 197.461 138.243 195.957 138.615Z" fill="black"/>
<path fill-rule="evenodd" clip-rule="evenodd" d="M58.3856 40.4036C55.2095 41.1991 52.3116 42.9834 51.8031 47.4327C51.3403 51.4761 53.55 55.2169 56.2633 57.1096C59.198 59.1573 62.8746 59.4974 65.7994 57.2283C68.8771 54.8392 69.5753 50.0516 67.7022 46.2956C65.6117 42.1041 62.1099 40.867 58.3856 40.4036ZM60.4265 38.4637C64.2094 39.1545 67.7201 42.5095 68.9933 47.0281C70.3072 51.6861 69.1006 56.8073 65.6236 59.3595C58.5961 64.518 49.204 55.9213 50.9003 46.0406C51.3313 43.5319 52.5539 41.5891 54.2154 40.1202C56.0487 38.4983 58.2674 38.4541 60.4265 38.4637Z" fill="black"/>
<path fill-rule="evenodd" clip-rule="evenodd" d="M38.9658 67.9427C40.7604 67.7101 42.547 67.3748 44.3386 67.1546C46.0359 66.9455 47.5375 66.7215 49.0878 65.7527C46.9705 64.9568 44.8481 64.2032 42.7129 63.4841C41.6532 63.1275 40.5965 62.7501 39.5329 62.417C38.7095 62.159 37.9925 62.0107 37.6757 60.891C37.3072 59.5875 38.3312 59.7849 38.9697 60.1162C39.8506 60.5728 40.809 60.8568 41.7217 61.2365C43.7587 62.0841 45.8075 62.8636 47.8623 63.6343C48.5019 63.8737 52.2043 64.7596 50.8705 66.2996C50.2995 66.9591 49.0253 67.3204 48.3271 67.7943C47.4323 68.4005 46.457 68.643 45.4609 68.8843C43.3852 69.3879 41.2311 69.5809 39.1296 70.0177C38.0561 70.2404 36.9835 70.4643 35.9099 70.687C35.2812 70.8182 35.0389 70.8046 34.875 69.931C34.7559 69.2963 34.9118 68.6603 35.026 68.0454C35.317 66.4827 35.6407 64.9273 35.9615 63.3736C36.0837 62.7808 36.2992 60.1749 36.7233 59.8899C37.6856 59.2431 36.9427 62.8508 36.8712 63.2925C36.6021 64.9589 36.2813 66.6139 36.1363 68.3053C37.0818 68.1976 38.0243 68.0875 38.9658 67.9427Z" fill="black"/>
<path fill-rule="evenodd" clip-rule="evenodd" d="M64.406 81.209C64.7625 82.3238 64.1716 82.5725 63.4536 82.9597C62.523 83.4596 61.6083 83.9879 60.6609 84.4395C58.6677 85.3873 56.6595 86.2682 54.714 87.3657C51.0026 89.4567 47.2416 91.4661 43.5879 93.7055C42.6801 94.2623 41.7714 94.8179 40.8558 95.3536C39.9083 95.9079 38.8218 96.8421 37.8088 97.1588C36.9249 97.4347 36.8325 96.6503 37.3559 95.9277C38.0313 94.996 39.0761 94.2994 39.9242 93.6523C43.4141 90.9848 47.2237 88.8146 51.0364 86.9797C55.4429 84.859 59.8614 82.8236 64.406 81.209Z" fill="black"/>
<path fill-rule="evenodd" clip-rule="evenodd" d="M74.0959 17.9911C73.9678 14.603 74.3313 11.2056 74.1148 7.82647C70.3875 11.945 72.2239 18.3099 74.368 22.7787L74.0959 17.9911ZM75.7088 17.7975C75.7326 19.4525 75.8081 21.1066 75.679 22.7533C75.5429 24.4819 76.1934 25.3723 77.0416 26.6454C76.3215 27.5563 74.669 25.4325 74.2131 24.8063C73.2736 23.5171 72.5744 21.8043 71.9527 20.2562C70.6279 16.9584 69.7152 13.4275 70.7759 9.80675C71.1691 8.46479 71.6498 6.64029 72.6906 5.85895C73.8327 5.00102 74.7077 6.21095 75.1814 7.45554C76.3394 10.4922 75.4565 14.538 75.7088 17.7975Z" fill="black"/>
<path fill-rule="evenodd" clip-rule="evenodd" d="M198.1 57.4727C198.879 58.3464 198.504 59.2478 198.249 60.3392C198.096 60.9943 197.253 63.145 197.486 63.7577C197.754 64.4662 199.017 64.6404 199.557 64.8641C200.496 65.2537 201.441 65.6452 202.331 66.1939C202.726 66.4389 204.15 66.9994 204.416 67.4547C204.569 67.7145 204.625 67.9199 204.511 68.2552C204.308 68.8466 204.02 68.5336 203.528 68.4074C201.28 67.8283 199.05 67.0872 196.965 65.866C196.384 67.5487 195.891 69.2661 195.4 70.9921C195.256 71.4981 195.118 72.6476 194.57 72.7292C193.903 72.8282 193.894 71.7134 193.939 71.1121C194.002 70.2349 194.368 69.2982 194.588 68.4668C194.77 67.7801 195.408 66.351 195.329 65.6442C195.275 65.1574 195.037 65.1914 194.613 65.0002C194.213 64.8196 193.812 64.6401 193.411 64.4575C192.769 64.1646 192.129 63.8709 191.505 63.5236C191.162 63.3329 190.444 63.1101 190.196 62.7145C190.052 62.4851 189.891 61.6585 190.072 61.4297C190.498 60.8939 193.326 62.3363 193.907 62.5331C194.292 62.6639 194.681 62.7637 195.054 62.935C195.196 63.0002 195.364 63.2647 195.517 63.2745C196.167 63.3157 196.219 62.6923 196.421 62.0235C196.889 60.4694 197.399 58.884 198.1 57.4727Z" fill="black"/>
<path fill-rule="evenodd" clip-rule="evenodd" d="M35.9844 88.3913C35.6378 87.3309 39.3183 86.0516 40.0016 85.694C41.6691 84.8242 43.4558 84.2983 45.1818 83.6327C46.8801 82.9794 48.5704 82.2766 50.2409 81.5194C50.7573 81.2856 54.4756 79.0288 54.6703 79.3591C55.3148 80.4504 47.5107 83.8814 46.751 84.2229C43.2194 85.8066 39.5736 87.0241 35.9844 88.3913Z" fill="black"/>
<path fill-rule="evenodd" clip-rule="evenodd" d="M194.281 5.52999C193.326 5.54187 191.951 5.87902 191.075 5.39648C192.143 5.4409 193.212 5.48557 194.281 5.52999Z" fill="black"/>
<path fill-rule="evenodd" clip-rule="evenodd" d="M60.4265 38.4643L58.3052 38.4547C59.0133 38.2501 59.7204 38.1265 60.4265 38.4643Z" fill="black"/>
<path fill-rule="evenodd" clip-rule="evenodd" d="M170.898 37.7572C171.399 37.754 171.899 37.7507 172.396 37.7471C171.894 37.7507 171.397 37.754 170.898 37.7572Z" fill="black"/>
<path fill-rule="evenodd" clip-rule="evenodd" d="M214.634 53.9082C214.629 54.5751 214.625 55.2421 214.621 55.9064C214.624 55.2385 214.628 54.5734 214.634 53.9082Z" fill="black"/>
<path fill-rule="evenodd" clip-rule="evenodd" d="M119.121 49.7324C118.582 49.7869 118.041 49.8417 117.503 49.8962C118.042 49.8414 118.582 49.7869 119.121 49.7324Z" fill="black"/>
<path fill-rule="evenodd" clip-rule="evenodd" d="M174.951 37.5379C175.334 37.537 175.715 37.5361 176.093 37.5352C175.711 37.5364 175.332 37.5373 174.951 37.5379Z" fill="black"/>
<path fill-rule="evenodd" clip-rule="evenodd" d="M98.1309 51.0332C97.6572 51.0865 97.1815 51.1399 96.7078 51.1932C97.1825 51.1399 97.6572 51.0865 98.1309 51.0332Z" fill="black"/>
<path fill-rule="evenodd" clip-rule="evenodd" d="M119.088 8.81686C118.614 8.82045 118.139 8.82404 117.664 8.82763C118.138 8.51484 118.613 8.59551 119.088 8.81686Z" fill="black"/>
<path fill-rule="evenodd" clip-rule="evenodd" d="M177.236 6.49609C176.812 6.54348 176.388 6.59088 175.964 6.63826C176.388 6.5905 176.812 6.54348 177.236 6.49609Z" fill="black"/>
<path fill-rule="evenodd" clip-rule="evenodd" d="M102.329 50.9993C101.918 50.9403 101.508 50.8813 101.096 50.8223C101.504 50.9215 101.956 50.5298 102.329 50.9993Z" fill="black"/>
<path fill-rule="evenodd" clip-rule="evenodd" d="M139.53 71.5522C139.786 71.5163 140.145 71.405 140.409 71.4569C140.374 71.6438 139.628 71.5522 139.53 71.5522Z" fill="black"/>
<path fill-rule="evenodd" clip-rule="evenodd" d="M43.5312 69.1045C43.7507 69.1119 43.9702 69.1193 44.1867 69.1268C43.9662 69.1193 43.7487 69.1119 43.5312 69.1045Z" fill="black"/>
<path fill-rule="evenodd" clip-rule="evenodd" d="M38.9659 67.9434C38.6183 67.9966 38.2697 68.0498 37.9221 68.1042C38.2707 68.0498 38.6183 67.9966 38.9659 67.9434Z" fill="black"/>
<path fill-rule="evenodd" clip-rule="evenodd" d="M86.6951 64.2588C86.9096 64.2696 87.1251 64.2802 87.3366 64.2918C87.1211 64.2817 86.9076 64.2704 86.6951 64.2588Z" fill="black"/>
<path fill-rule="evenodd" clip-rule="evenodd" d="M203.033 37.6855C203.005 38.0697 202.977 38.454 202.949 38.8368C202.976 38.4519 203.005 38.0689 203.033 37.6855Z" fill="black"/>
<path fill-rule="evenodd" clip-rule="evenodd" d="M75.7085 17.797C75.6789 17.4076 75.6483 17.0186 75.6187 16.6309C75.6483 17.0207 75.6789 17.4089 75.7085 17.797Z" fill="black"/>
<path fill-rule="evenodd" clip-rule="evenodd" d="M115.403 8.89746C115.044 8.94745 114.684 8.9978 114.325 9.04816C114.685 8.9978 115.044 8.94745 115.403 8.89746Z" fill="black"/>
<path fill-rule="evenodd" clip-rule="evenodd" d="M59.5793 60.7752C59.7998 60.7711 60.0213 60.7669 60.2398 60.7627C60.0173 60.7669 59.7978 60.7711 59.5793 60.7752Z" fill="black"/>
<path fill-rule="evenodd" clip-rule="evenodd" d="M91.6011 56.4633C92.775 56.222 93.9479 56.1416 95.1217 56.4624L91.6011 56.4633Z" fill="black"/>
<path fill-rule="evenodd" clip-rule="evenodd" d="M122.903 40.0065C123.147 39.2112 123.208 38.9127 123.805 38.501C123.556 39.274 123.518 39.6875 122.903 40.0065Z" fill="black"/>
<path fill-rule="evenodd" clip-rule="evenodd" d="M194.088 7.44043C193.557 7.45528 193.026 7.47049 192.498 7.48534C193.029 7.47049 193.558 7.45528 194.088 7.44043Z" fill="black"/>
<path fill-rule="evenodd" clip-rule="evenodd" d="M103.883 75.9199C103.559 75.9236 103.237 75.9273 102.917 75.9323C103.241 75.9286 103.561 75.9236 103.883 75.9199Z" fill="black"/>
<path fill-rule="evenodd" clip-rule="evenodd" d="M102.83 54.0074C102.564 53.996 102.298 53.9848 102.036 53.9746C102.303 53.9862 102.566 53.9966 102.83 54.0074Z" fill="black"/>
<path fill-rule="evenodd" clip-rule="evenodd" d="M151.338 100.336C151.37 99.9467 151.402 99.5582 151.433 99.1709C151.402 99.5606 151.37 99.9479 151.338 100.336Z" fill="black"/>
<path fill-rule="evenodd" clip-rule="evenodd" d="M87.8263 61.0537C88.0934 61.082 88.3596 61.1104 88.6277 61.139C88.3288 61.158 88.0309 61.1768 87.7329 61.1959C87.7349 61.1195 87.7657 61.0723 87.8263 61.0537Z" fill="black"/>
<path fill-rule="evenodd" clip-rule="evenodd" d="M92.6152 59.7041C92.4016 59.7095 92.1871 59.7145 91.9756 59.7196C92.1911 59.7142 92.4026 59.7092 92.6152 59.7041Z" fill="black"/>
<path fill-rule="evenodd" clip-rule="evenodd" d="M96.8689 75.0537C96.6494 75.0587 96.4289 75.0624 96.2124 75.0673C96.4329 75.0624 96.6504 75.0587 96.8689 75.0537Z" fill="black"/>
<path fill-rule="evenodd" clip-rule="evenodd" d="M84.1626 21.4883C84.393 21.6417 84.2728 22.3161 84.0483 22.2518C84.0861 21.9972 84.1238 21.7427 84.1626 21.4883Z" fill="black"/>
<path fill-rule="evenodd" clip-rule="evenodd" d="M74.0957 17.9908C74.073 17.3965 74.0513 16.8025 74.0286 16.21C74.0513 16.8048 74.073 17.3976 74.0957 17.9908Z" fill="black"/>
<path fill-rule="evenodd" clip-rule="evenodd" d="M112.057 33.0478C110.906 33.343 109.725 33.4973 108.601 33.932C108.321 34.0404 107.4 34.7064 107.064 34.531C106.555 34.2638 106.813 33.5784 107.027 33.2125C107.602 32.2343 108.63 31.6862 109.574 31.6984C110.515 31.7109 111.807 31.668 112.057 33.0478Z" fill="black"/>
<path fill-rule="evenodd" clip-rule="evenodd" d="M108.86 35.6716C110.127 36.7771 111.094 37.3216 111.202 34.8369C112.575 35.0701 111.959 37.8268 110.921 38.0347C109.789 38.2608 109.036 36.8527 108.86 35.6716Z" fill="black"/>
</svg>
