<svg width="473" height="529" viewBox="0 0 473 529" fill="none" xmlns="http://www.w3.org/2000/svg">
<path fill-rule="evenodd" clip-rule="evenodd" d="M236.468 32.8809C234.268 39.4398 232.069 45.9998 229.869 52.559C228.458 56.7623 227.049 60.9648 225.639 65.1681C225.139 66.6584 224.861 68.1871 223.894 69.2217C221.615 71.6576 217.524 73.208 214.785 74.9216C212.95 76.07 211.114 77.2183 209.279 78.3666C208.333 78.9592 206.235 79.7031 205.572 80.6865C204.842 81.7699 205.187 83.7599 205.187 85.2581V98.1939V122.568C214.666 121.233 224.146 119.899 233.625 118.564C220.996 134.978 208.367 151.391 195.738 167.804C192.626 171.849 188.847 175.742 186.528 180.449C181.593 190.466 176.768 200.556 171.89 210.609C167.348 219.966 162.807 229.324 158.265 238.681L199.122 236.723C209.7 236.216 220.567 236.978 230.759 233.601C239.161 230.818 247.562 228.035 255.964 225.251C257.081 224.881 260.562 224.462 261.354 223.449C262.096 222.5 262.08 218.915 262.29 217.701C266.255 194.743 271.304 169.443 282.878 149.68C291.176 135.514 302.373 123.11 312.628 110.757C316.63 105.935 320.702 101.171 324.563 96.2032C325.552 94.9308 326.98 93.4869 327.634 91.9414C328.056 90.9429 328.646 89.0402 328.384 88.1537C328.27 87.7694 325.632 86.3904 325.254 86.1166C322.58 84.1811 319.93 82.2047 317.274 80.238C309.81 74.711 302.354 69.1704 294.848 63.7171C288.996 59.465 283.161 54.9566 276.988 51.3026C270.591 47.5149 263.544 44.8491 256.837 41.8566C250.059 38.832 243.268 35.8421 236.468 32.8809Z" fill="white" fill-opacity="0.01"/>
<path fill-rule="evenodd" clip-rule="evenodd" d="M466.522 383.289C463.267 386.744 457.34 391.38 452.655 389.272C450.302 388.213 448.292 385.889 446.149 384.39C443.631 382.628 441.263 380.865 439.128 378.517C434.869 373.831 431.644 366.985 426.614 363.317C424.923 362.084 421.623 361.82 420.45 359.85C419.924 358.967 419.875 357.627 419.972 356.606C420.182 354.408 421.237 354.537 419.475 352.923H422.211C422.264 351.732 421.209 351.634 420.423 351.787C420.788 349.9 421.161 342.514 418.106 345.862C415.459 348.763 416.783 353.576 414.909 356.719C413.473 359.125 409.664 357.177 409.15 354.529C408.919 353.34 410.082 351.483 410.221 350.317C410.525 347.731 409.5 345.496 408.011 343.538C404.745 345.989 406.596 351.062 404.735 354.283C403.051 357.197 399.3 355.837 396.736 355.324C393.662 354.709 390.186 355.332 387.245 354.514C382.803 353.279 384.462 347.406 384.023 343.615C383.551 339.555 379.908 333.919 381.003 329.822C382.179 325.423 389.053 324.473 392.339 323.405C399.848 320.965 410.56 320.496 416.143 313.665C420.583 319.244 424.155 325.631 428.812 331.001C433.843 336.801 439.216 342.156 444.046 348.189C449.072 354.469 454.26 360.628 459.104 367.09C461.218 369.908 463.073 372.946 465.259 375.697C467.203 378.143 469.252 380.393 466.522 383.289ZM243.314 274.805C245.622 273.423 245.915 274.289 245.915 277.136C245.251 275.769 244.591 275.403 243.314 274.805ZM223.749 330.144V325.126C225.973 325.061 224.606 329.353 223.749 330.144ZM223.205 337.617C223.205 335.395 223.152 333.279 223.72 331.118C224.019 333.473 224.589 335.512 223.205 337.617ZM232.77 490.263C234.813 490.479 237.962 488.893 239.68 490.699C241.446 492.554 241.304 497.955 241.722 500.461C242.413 504.604 243.025 508.76 243.608 512.922C243.989 515.651 244.461 518.423 241.722 519.467C237.674 521.009 231.89 518.808 227.67 518.608C219.335 518.213 211.004 517.664 202.662 517.473C194.576 517.289 186.472 517.435 178.424 518.382C174.788 518.81 171.233 519.565 167.634 520.249C165.737 520.611 160.655 522.12 158.941 520.319C155.718 516.929 161.077 509.013 163.382 506.777C167.66 502.628 173.743 499.636 179.107 497.835C181.974 496.871 186.752 494.167 189.01 497.192C190.743 499.512 190.674 502.608 193.157 504.366C198.909 508.439 195.543 496.756 191.949 495.318C194.362 488.955 198.963 497.939 200.871 500.097C201.55 500.865 203.758 503.397 204.717 502.124C205.435 501.171 204.001 497.756 203.735 496.827C203.332 495.416 202.31 493.27 202.604 491.74C203.135 488.971 206.583 488.217 208.649 487.986C211.851 487.629 214.993 488.772 218.16 489.154C223.015 489.74 227.909 489.749 232.77 490.263ZM200.613 229.44C194.291 230.007 187.928 228.918 181.621 229.809C175.653 230.653 170.03 233.121 164.404 235.388C172.768 213.294 183.588 193.181 196.777 174.339C203.344 164.955 210.408 155.635 217.505 146.754C220.807 142.622 224.222 138.627 227.632 134.611C230.673 131.028 232.852 124.944 236.502 122.268C239.618 119.984 245.062 121.613 248.514 121.755C252.417 121.915 257.166 122.315 260.971 120.852C263.729 119.791 264.488 116.962 261.035 116.869C256.964 116.757 252.959 117.235 248.834 116.805C238.147 115.693 227.845 113.865 217.07 114.902C214.602 115.139 211.353 116.323 208.931 115.968C207.189 115.711 208.334 116.697 207.124 115.123C206.66 114.521 206.101 113.105 205.964 112.305C205.193 107.812 207.383 101.391 207.907 96.8675C208.392 92.681 207.963 88.0797 208.87 84.0029C209.696 80.2929 212.214 79.798 215.315 79.4017C223.799 78.3166 232.456 77.7392 240.978 76.9216C260.427 75.0558 280.493 72.2411 299.809 76.852C306.784 78.5168 315.289 81.0913 321.52 85.2137C323.469 86.5022 325.434 88.0197 324.726 90.6895C323.99 93.461 320.386 96.3886 318.601 98.2144C305.406 111.706 292.663 125.467 283.394 142.779C271.574 164.854 264.791 188.695 260.812 213.991C259.956 219.433 259.161 222.282 254.19 223.848C248.854 225.531 243.703 226.624 238.17 227.135C225.661 228.293 213.115 228.317 200.613 229.44ZM204.849 83.2494C203.891 91.2853 202.594 99.3035 202.466 107.403C202.417 110.462 202.16 111.994 199.272 112.677C195.867 113.481 192.406 114.079 188.985 114.914C172.478 118.943 156.283 123.892 140.133 129.462C124.438 134.877 109.001 140.969 92.9528 144.98C86.0496 146.706 77.9719 147.868 71.6844 151.689C64.9205 155.8 65.8106 162.54 65.2035 169.944C64.3923 179.835 61.7881 189.412 60.8724 199.299C60.4345 204.024 60.0357 208.777 60.1018 213.531C60.158 217.584 60.6734 222.065 58.2548 225.475C53.4026 218.169 51.1027 208.979 50.1465 200.024C49.6816 195.671 49.8657 191.283 49.7328 186.91C49.6254 183.389 49.6951 177.788 47.6589 174.848C43.2327 168.457 37.4762 194.066 36.9288 196.801C36.0081 201.404 35.2488 206.045 34.3317 210.649C33.9251 212.689 33.4032 220.107 30.9761 220.846C25.9462 222.379 27.0503 206.458 26.9707 204.034C26.8114 199.142 26.7034 194.243 26.805 189.347C26.879 185.812 27.4861 181.976 27.1257 178.44C26.2405 169.757 21.906 178.905 20.6874 182.137C17.6083 190.296 16.2156 199.03 13.4543 207.319C12.9951 208.698 11.9159 213.34 10.2061 213.427C8.30359 213.522 8.31852 208.728 8.20975 207.327C7.57844 199.208 5.44633 191.146 6.08973 182.943C6.73952 174.659 9.31739 166.144 12.9652 158.939C20.6775 143.707 34.6047 134.961 47.9448 126.994C63.2114 117.878 79.3291 110.675 95.7908 104.808C115.589 97.7516 135.918 92.042 156.368 87.9788C166.773 85.912 177.338 84.4338 187.849 83.2486C191.543 82.8322 195.239 82.5888 198.885 81.7968C200.262 81.4973 205.228 80.0743 204.849 83.2494ZM215.484 57.244C210.268 57.2905 204.94 54.4421 199.858 53.265C193.808 51.862 187.899 49.832 181.86 48.3674C170.033 45.4998 158.2 42.7035 146.385 39.7726C141.255 38.5002 136.101 37.3927 130.991 36.026C125.525 34.5638 119.619 32.9334 114.024 34.5085C105.543 36.8964 101.961 47.3472 98.8472 55.5031C96.6475 61.264 94.9242 67.6854 91.4939 72.6983C90.2726 74.4857 88.5364 76.6173 86.3219 76.0384C82.2077 74.9637 82.861 68.8313 83.385 65.4416C84.1443 60.5224 85.2199 55.6609 86.0809 50.7641C86.4278 48.7878 89.1166 35.853 84.3163 37.8555C80.7552 39.341 78.8713 49.1249 77.5233 52.6195C76.5216 55.2165 75.4602 57.7966 74.3362 60.3294C72.8361 63.7079 68.5562 74.9966 63.8178 73.5407C57.0369 71.4571 63.5413 51.3775 64.6966 47.1454C65.3307 44.8223 72.2233 27.2046 66.4057 28.6444C63.9281 29.2586 61.5144 34.442 60.2511 36.5905C58.0109 40.4012 55.7779 44.2394 53.6692 48.144C51.5002 52.1599 50.3925 56.7307 48.2412 60.6882C47.1094 62.771 44.7996 65.5465 42.5445 63.6183C39.0289 60.6145 41.1126 50.1659 41.7283 46.2149C42.8736 38.8693 45.7188 31.339 49.6226 25.3339C55.4885 16.3107 66.5571 13.3951 75.8647 11.6422C87.8788 9.37918 100.06 9.99819 112.125 11.3371C125.693 12.8434 139.054 14.4561 152.428 17.5359C165.907 20.6398 179.393 23.7188 192.664 27.8236C198.916 29.7575 205.257 31.4719 211.421 33.7421C217.973 36.1549 224.367 39.1576 231.101 40.8961C228.733 47.5546 226.363 54.2131 223.994 60.8724C221.727 58.3459 218.632 57.2152 215.484 57.244ZM331.597 75.5923C333.674 74.3127 335.969 73.7089 336.727 70.8805C337.397 68.3813 336.252 65.5497 335.705 63.1506C334.173 56.4337 333.77 49.4757 335.125 42.6794C336.42 44.9064 341.269 53.4724 344.218 48.2865C345.997 45.1587 341.231 40.6591 339.839 38.4601C342.892 36.3383 347.252 30.6431 350.77 34.0777C353.044 36.2982 354.006 38.4361 357.07 39.5155C360.789 40.8264 364.29 40.5261 368.088 40.1642C370.747 39.9111 371.387 39.5115 372.426 41.8178C373.241 43.6308 373.663 45.8745 374.139 47.8212C375.078 51.6594 377.251 59.222 374.677 62.8175C372.423 65.967 363.674 63.2667 362.459 67.3323C361.797 69.5497 364.959 69.6289 366.167 70.726C367.664 72.0841 368.902 74.2454 369.715 76.1761C370.317 77.6039 371.233 79.963 370.208 81.4228C368.792 83.4424 366.167 81.9105 365.025 80.4427C363.509 78.4928 363.017 75.827 361.753 73.7033C359.431 69.8067 359.293 72.9065 358.661 75.7044C358.004 78.6113 356.452 78.4111 354.074 78.7843C349.901 79.4401 345.685 80.365 341.623 81.6246C339.541 82.2701 337.524 83.0925 335.541 84.0534C334.263 84.6716 332.049 86.5446 330.663 86.5622C328.094 86.5951 326.313 81.756 324.987 79.7372C327.189 78.3526 329.384 76.9553 331.597 75.5923ZM469.539 371.9C463.124 363.226 457.568 353.802 451.238 345.052C444.996 336.422 437.773 328.876 430.767 321.06C427.46 317.371 424.292 313.323 420.642 310.055C417.919 307.615 415.824 307.578 412.549 308.658C403.243 311.728 393.767 315.424 384.96 320.005C376.759 324.272 369.289 329.75 360.395 332.129C351.317 334.558 341.878 335.338 332.574 334.736C323.031 334.118 314.029 331.882 304.954 328.594C296.358 325.481 287.396 322.762 280.045 316.591C272.339 310.123 266.385 300.818 260.868 292.068C258.074 287.638 255.302 282.985 253.42 277.964C251.787 273.607 250.72 268.464 247.789 264.913C247.071 266.061 246.176 267.045 245.811 268.392C245.644 269.005 246.624 268.986 246.524 269.473C246.334 270.39 245.25 271.325 244.621 271.824C242.358 273.618 242.344 272.19 242.938 275.544C243.283 277.5 242.629 281.911 239.798 280.47C240.841 281.875 239.185 283.649 238.644 284.807C238.272 284.326 237.809 284.158 237.256 284.303C238.291 286.625 237.68 286.687 236.677 288.531C236.493 288.868 235.844 290.633 235.937 290.484C234.912 292.128 233.728 292.542 233.13 294.591C232.638 296.273 232.764 298.123 232.217 299.803C231.555 298.772 230.893 297.742 230.231 296.712C230.366 297.522 230.636 298.722 230.951 299.457C231.148 299.917 231.996 300.99 231.984 301.24C231.938 302.177 230.9 301.952 230.604 302.76C230.049 304.276 230.852 304.5 230.549 305.979C230.202 307.676 229.271 306.997 228.828 308.444C228.744 308.719 229.398 309.8 229.294 310.393C229.148 311.23 228.475 311.699 228.236 312.443C227.631 314.338 227.851 315.725 227.01 317.542C226.684 318.247 226.21 318.716 225.981 319.517C225.779 320.221 226.212 321.721 225.824 322.352C223.949 325.394 224.212 320.154 224.355 318.854C225.548 307.942 229.378 296.68 232.883 286.48C234.625 281.413 236.32 276.187 238.504 271.334C239.382 269.379 240.397 267.362 241.849 265.867C243.686 263.975 246.293 263.219 247.956 261.106C247.694 261.439 249.76 259.237 249.429 259.961C249.725 259.314 249.209 258.438 249.392 257.812C249.621 257.034 250.052 256.871 250.533 256.19C251.397 254.968 252.422 254.36 251.066 252.803C253.079 252.302 254.042 251.566 254.444 249.137C254.738 247.36 254.145 247.476 255.18 246.292C256.219 245.102 256.745 246.031 257.4 243.97C258.182 241.505 258.702 238.152 259.171 235.572C259.581 233.319 258.587 230.006 260.273 228.416C262.408 226.402 264.318 227.255 263.935 223.204C263.562 219.256 264.651 216.864 265.746 213.127C267.931 205.668 268.775 197.792 270.691 190.244C274.779 174.136 282.002 159.612 289.768 145.432C296.944 132.33 306.977 121.167 316.665 110.417C319.317 107.472 321.941 104.485 324.322 101.257C326.374 98.4779 327.311 94.6934 329.283 92.0548C330.481 90.4524 332.711 89.767 334.384 88.9173C337.174 87.5 340.498 85.651 343.647 85.9376C342.396 90.6887 341.988 96.2405 345.68 99.8032C350.16 104.125 354.22 99.635 358.327 97.171C365.811 92.6794 376.516 96.8026 383.042 90.0705C384.597 88.4673 385.031 85.9056 386.646 84.4081C387.832 83.3103 389.519 83.0316 390.854 82.2132C394.91 79.7268 396.879 75.1751 395.3 70.147C393.856 65.5505 391.613 63.9562 396.606 61.6267C400.658 59.7369 402.199 56.8893 400.364 51.8195C398.615 46.986 395.412 46.4295 392.38 43.2664C389.444 40.2026 392.817 36.637 395.017 34.3371C397.853 31.3702 398.396 28.6964 395.107 25.611C391.663 22.3807 386.747 22.4936 382.732 24.0911C378.192 25.8969 375.201 28.899 373.28 33.7638C371.324 38.7164 366.475 37.3342 362.547 35.9539C358.791 34.6342 357.814 31.7866 355.348 28.7205C352.605 25.3099 347.015 28.2264 343.78 29.7847C335.812 33.6204 327.893 39.6741 327.577 50.3974C327.389 56.7916 329.79 62.2265 331.038 68.2284C332.18 73.7169 324.352 73.2845 322.996 78.5937C308.535 69.9709 292.43 67.3323 276.264 66.7453C259.083 66.1207 241.655 65.6202 224.62 68.6728C228.574 60.9132 230.662 52.4041 234.102 44.4323C235.093 42.1373 235.519 42.3335 237.705 43.027C241.903 44.3587 246.07 45.8489 250.259 47.2207C265.564 52.232 280.568 58.2698 295.367 64.8827C296.806 65.5257 300.017 67.3107 301.277 65.3696C302.732 63.1314 299.367 60.3719 298.005 59.246C292.046 54.322 284.661 51.3335 277.988 47.8789C263.397 40.3283 247.24 36.7443 232.016 31.1364C199.151 19.0278 165.149 9.83162 130.994 3.7577C122.659 2.27545 114.235 2.05844 105.864 0.958165C98.449 -0.0163857 91.0205 0.00603682 83.6061 1.01262C69.912 2.87283 54.0361 6.88635 46.3018 21.0057C39.3197 33.7542 34.6588 48.0871 36.4404 63.2091C36.9757 67.7511 38.6834 73.1299 43.6592 71.9592C47.1108 71.1472 48.9436 67.844 50.5461 64.62C52.9675 59.7497 55.3591 54.8793 57.9832 50.1395C58.9565 57.2464 55.4195 64.2349 55.9755 71.4747C56.3537 76.3875 58.7638 84.1495 64.4264 82.7585C72.1877 80.8527 75.382 67.1953 79.1137 60.6434C79.3028 65.6899 77.7323 70.6635 78.2129 75.7213C78.6871 80.7173 82.1529 85.4339 87.0207 84.7493C91.6119 84.1038 94.5958 78.5632 96.5459 74.392C99.2595 68.5871 101.209 62.3634 103.859 56.5201C106.343 51.0428 109.286 44.522 115.216 43.493C120.509 42.5737 126.575 44.7014 131.803 45.5791C146.306 48.0134 160.516 52.1583 174.86 55.5071C190.24 59.097 205.983 61.2776 220.888 67.0704C215.647 75.1055 201.932 73.3694 194.124 74.2318C182.325 75.5355 170.375 76.5164 158.643 78.4399C147.057 80.3394 135.712 83.7115 124.216 86.1595C112.779 88.5946 101.363 91.0338 90.2974 95.1867C69.752 102.897 48.864 112.656 30.7621 126.11C22.3396 132.37 14.8577 139.525 9.65508 149.407C4.41902 159.35 1.90302 170.594 0.94325 182.031C0.346063 189.154 1.36057 195.317 2.58551 202.249C3.47276 207.267 3.75998 215.67 7.33245 219.345C14.151 226.359 19.8122 197.908 21.0713 194.472C21.9778 200.103 20.4955 231.827 31.4361 229.247C36.3188 228.096 37.4264 220.547 38.2362 216.001C39.7135 207.712 41.0366 199.256 43.5632 191.273C45.1849 202.029 45.861 213.235 49.3545 223.509C51.675 230.331 58.296 242.438 62.9121 230.757C66.3744 221.998 65.1864 211.944 65.6016 202.643C66.0616 192.337 68.6885 182.397 69.6184 172.191C69.9788 168.238 69.6525 163.782 73.1795 161.625C76.2074 159.774 80.6351 159.171 83.9409 158.137C93.7327 155.075 103.588 152.26 113.334 149.011C123.084 145.76 132.698 141.962 142.318 138.255C151.518 134.71 160.912 132.694 170.224 129.659C175.518 127.932 180.749 126.126 186.117 124.685C188.615 124.015 191.144 123.493 193.636 122.798C195.484 122.284 197.918 120.344 199.818 120.378C201.773 120.414 202.508 122.279 204.75 122.425C207.163 122.582 209.618 121.982 212.018 121.775C217.865 121.27 224.081 120.453 229.915 121.366C226.409 126.05 221.673 129.289 217.523 133.169C212.736 137.645 208.103 142.478 204.015 147.763C195.788 158.397 188.012 169.638 180.788 181.159C173.663 192.524 167.925 204.961 162.937 217.668C160.452 224 158.039 230.47 156.322 237.125C155.617 239.859 155.041 242.603 153.768 245.09C152.6 247.37 150.954 249.336 152.335 252.09C153.285 251.42 154.139 250.587 154.998 249.782C154.005 257.663 151.862 265.286 150.76 273.143C149.674 280.883 149.718 288.844 149.788 296.661C149.936 313.032 151.016 329.032 153.965 345.09C156.946 361.328 160.777 377.442 165.607 393.106C170.257 408.188 174.922 424.004 181.413 438.219C188.344 453.402 196.59 469.365 206.624 482.216C200.07 485.24 191.729 484.675 184.789 485.893C177.534 487.166 171.259 489.569 165.077 494.09C158.822 498.666 155.426 504.556 154.562 512.899C153.948 518.837 152.123 527.058 159.039 528.618C164.013 529.739 169.574 527.897 174.558 527.441C183.277 526.645 192.009 526.148 200.747 525.719C209.463 525.29 218.18 524.913 226.898 524.609C230.999 524.465 235.102 524.393 239.201 524.228C241.038 524.154 242.152 524.122 243.799 524.72C245.102 525.193 245.007 526.176 246.457 524.961C248.796 523.002 248.315 516.824 248.249 514.107C248.15 509.915 247.797 505.675 247.071 501.562C246.64 499.118 241.411 483.365 245.477 482.702C240.753 476.854 238.866 468.504 236.744 461.176C234.085 451.994 231.751 442.838 229.919 433.394C226.005 413.222 224.276 392.829 224.276 372.189C242.417 384.784 261.612 391.607 282.98 392.368C304.224 393.125 327.564 391.159 347.736 383.199C357.078 379.512 365.446 374.671 373.455 368.148C376.326 365.811 379.402 360.516 383.17 360.606C387.666 360.715 392.702 362.632 397.167 363.452C405.707 365.02 416.853 365.905 424.083 371.855C428.011 375.087 430.825 379.611 434.33 383.334C436.996 386.167 440.522 387.706 443.168 390.539C446.023 393.595 444.889 397.589 449.623 397.836C453.67 398.047 458.107 396.213 461.597 394.061C468.56 389.766 475.975 380.6 469.539 371.9Z" fill="black"/>
<path fill-rule="evenodd" clip-rule="evenodd" d="M356.382 52.5547C358.782 54.4045 363.565 54.3404 365.776 52.0462C368.026 49.7119 365.022 49.3532 363.19 49.4244C361.78 49.4797 359.141 50.2669 359.944 47.5242C360.657 45.0906 364.577 46.3294 364.904 43.658C361.954 43.0622 358.705 43.2769 356.523 45.8882C354.945 47.7756 354.135 50.8226 356.382 52.5547Z" fill="black"/>
</svg>
