<svg width="56" height="75" viewBox="0 0 56 75" fill="none" xmlns="http://www.w3.org/2000/svg">
<mask id="mask0_58_3088" style="mask-type:luminance" maskUnits="userSpaceOnUse" x="0" y="0" width="56" height="75">
<path d="M55.3612 0.936523H0.671692V74.9365H55.3612V0.936523Z" fill="white"/>
</mask>
<g mask="url(#mask0_58_3088)">
<path d="M27.8727 23.7787C30.8014 23.7559 33.7088 24.2352 36.4443 25.1917C34.4325 15.9578 31.3296 10.3102 27.8559 10.3145H27.8522C24.3794 10.3206 21.2941 15.9739 19.3079 25.2101C22.0398 24.2481 24.9452 23.7626 27.8727 23.7787Z" fill="url(#paint0_linear_58_3088)"/>
<path d="M28.0751 67.4249L23.6552 67.4303C24.7703 73.7565 26.3467 74.9399 28.0894 74.9376C29.8321 74.9353 31.3977 73.7477 32.4976 67.4199L28.0751 67.4249Z" fill="url(#paint1_linear_58_3088)"/>
<path d="M38.8223 49.4334C38.6413 44.7071 38.2836 39.7401 37.6971 34.5589C37.3965 31.9034 37.053 29.3188 36.6665 26.8051C31.0098 24.8072 24.7407 24.8139 19.0892 26.8239C18.7122 29.3617 18.3763 31.9706 18.0816 34.6506C17.5106 39.871 17.1664 44.8771 16.9968 49.643C12.1142 52.9441 8.74297 59.2055 8.7543 67.4194L16.8683 67.4099C18.3528 67.4099 19.2365 67.0644 19.2365 65.6798L19.2315 65.6537L27.9311 65.6438L36.9154 65.6334C36.9154 67.0993 37.7643 67.3861 39.2551 67.3841L47.3997 67.3749C47.3872 59.0039 43.8657 52.6351 38.8223 49.4334ZM27.8791 29.2203C28.5463 29.2195 29.1989 29.3996 29.7542 29.7378C30.3096 30.0761 30.7427 30.5573 30.9989 31.1207C31.2551 31.684 31.3228 32.3042 31.1935 32.9027C31.0642 33.5012 30.7436 34.0512 30.2724 34.4832C29.8012 34.9152 29.2004 35.2097 28.5461 35.3295C27.8918 35.4493 27.2134 35.389 26.5966 35.1562C25.9798 34.9235 25.4524 34.5287 25.0809 34.0218C24.7095 33.515 24.5108 32.9188 24.51 32.3088C24.509 31.4907 24.8633 30.7059 25.4951 30.1267C26.1269 29.5475 26.9844 29.2215 27.8791 29.2203ZM27.8933 39.2691C28.5605 39.2683 29.213 39.4484 29.7682 39.7869C30.3234 40.1251 30.7564 40.606 31.0125 41.1695C31.2685 41.7326 31.3362 42.3529 31.2069 42.9514C31.0775 43.5498 30.757 44.0995 30.2858 44.5313C29.8146 44.9635 29.214 45.2579 28.5598 45.3777C27.9056 45.4974 27.2272 45.4368 26.6105 45.2042C25.9938 44.9716 25.4664 44.577 25.0951 44.0699C24.7237 43.5632 24.5251 42.9671 24.5242 42.3572C24.5232 41.5392 24.8776 40.7542 25.5094 40.1754C26.1412 39.5961 26.9987 39.2702 27.8933 39.2691ZM27.916 55.4867C27.2488 55.4875 26.5964 55.3075 26.0412 54.9689C25.486 54.6307 25.053 54.1498 24.7969 53.5863C24.5408 53.0232 24.4732 52.4029 24.6025 51.8045C24.7319 51.206 25.0524 50.6564 25.5236 50.2242C25.9948 49.7923 26.5954 49.4979 27.2496 49.3782C27.9038 49.2584 28.5822 49.3187 29.1988 49.5517C29.8156 49.7843 30.343 50.1789 30.7143 50.6859C31.0857 51.1926 31.2843 51.7887 31.2851 52.3987C31.2857 52.8036 31.199 53.2047 31.03 53.5794C30.8609 53.9536 30.6129 54.2941 30.3 54.5808C29.9871 54.8676 29.6155 55.0952 29.2064 55.2507C28.7972 55.4061 28.3586 55.4867 27.9156 55.4871L27.916 55.4867Z" fill="url(#paint2_linear_58_3088)"/>
<path d="M27.8845 30.5068C27.3679 30.5143 26.8753 30.7074 26.513 31.0442C26.1508 31.3811 25.9481 31.8348 25.9488 32.3072C25.9495 32.7796 26.1534 33.2329 26.5166 33.5689C26.8797 33.9049 27.3729 34.0968 27.8896 34.1031C28.4112 34.1025 28.9111 33.9125 29.2795 33.5748C29.6478 33.2372 29.8544 32.7796 29.8537 32.3027C29.8531 31.8258 29.6452 31.3686 29.2759 31.0319C28.9066 30.6951 28.4061 30.5062 27.8845 30.5068Z" fill="url(#paint3_linear_58_3088)"/>
<path d="M27.8978 40.556H27.894C27.3773 40.5633 26.8847 40.7564 26.5225 41.0934C26.1603 41.4305 25.9576 41.8842 25.9583 42.3563C25.9589 42.8288 26.1628 43.2821 26.526 43.618C26.8892 43.9543 27.3824 44.1462 27.899 44.1523C28.4207 44.1519 28.9207 43.9619 29.2892 43.6242C29.6577 43.2868 29.8644 42.8288 29.8638 42.3521C29.8632 41.875 29.6555 41.4178 29.2862 41.0812C28.917 40.7441 28.4165 40.5553 27.8948 40.5557L27.8978 40.556Z" fill="url(#paint4_linear_58_3088)"/>
<path d="M27.9092 50.6045C27.3926 50.6118 26.8999 50.8049 26.5378 51.1419C26.1755 51.4789 25.9728 51.9326 25.9735 52.4047C25.9741 52.8773 26.1781 53.3306 26.5413 53.6665C26.9044 54.0027 27.3976 54.1946 27.9143 54.2008C28.4359 54.2 28.9358 54.0104 29.3042 53.6726C29.6726 53.3348 29.8792 52.8773 29.8787 52.4005C29.878 51.9238 29.6703 51.4666 29.301 51.1296C28.9317 50.793 28.4308 50.6041 27.9092 50.6045Z" fill="url(#paint5_linear_58_3088)"/>
<path d="M38.5288 24.9814C36.8663 17.3524 33.6643 8.25514 27.848 8.25514H27.7905C23.143 8.30466 19.5808 13.9396 17.2016 25.004L17.1966 25.0278L16.5316 28.4878C16.2625 30.0528 16.0232 31.6772 15.8179 33.3305C15.777 33.6593 15.7374 33.9907 15.6991 34.3246C15.4447 36.5425 15.2444 38.8717 15.1017 41.2631C14.3817 40.7553 13.6975 40.2064 13.0533 39.6195C10.0006 36.832 7.95281 33.2578 7.18449 29.3762C6.41617 25.4945 6.964 21.4909 8.7546 17.902C10.5452 14.313 13.4929 11.3103 17.2026 9.29637C20.9123 7.28239 25.2068 6.35344 29.5103 6.63395C33.8137 6.91447 37.9206 8.3911 41.2803 10.8659C44.6402 13.3407 47.092 16.6954 48.3074 20.4803C49.5232 24.2651 49.4443 28.2994 48.0816 32.042C46.7184 35.7848 44.1369 39.0571 40.6825 41.4205C40.5331 38.9677 40.3219 36.5759 40.0528 34.2966C40.0133 33.9639 39.9729 33.6326 39.9315 33.3025C39.7215 31.6519 39.4797 30.0271 39.206 28.466L38.5288 24.9814Z" fill="url(#paint6_linear_58_3088)"/>
<path d="M27.983 0.937307C21.9418 0.952193 16.0758 2.79502 11.3004 6.17825C6.52501 9.56149 3.10879 14.2948 1.58476 19.6397C0.0607382 24.9846 0.514627 30.6405 2.87562 35.7247C5.23661 40.8089 9.3719 45.0358 14.6363 47.7454C14.6922 46.7041 14.7544 45.6742 14.8227 44.6566C11.6386 42.7754 8.97587 40.2439 7.04413 37.2614C4.86102 33.8796 3.69485 30.0301 3.6639 26.1033C3.63295 22.1765 4.73832 18.3121 6.86793 14.9019C8.9975 11.4917 12.0755 8.65707 15.7899 6.68543C19.5043 4.71382 23.7229 3.67536 28.0178 3.67536C32.3128 3.67536 36.5314 4.71382 40.2457 6.68543C43.9599 8.65707 47.0381 11.4917 49.1678 14.9019C51.2972 18.3121 52.4026 22.1765 52.3715 26.1033C52.3409 30.0301 51.1746 33.8796 48.9915 37.2614C47.0091 40.3222 44.2575 42.9066 40.9644 44.8013C41.0327 45.8139 41.0958 46.8365 41.1538 47.8694C46.4818 45.2005 50.6863 40.9855 53.1037 35.8896C55.5211 30.7935 56.0139 25.1066 54.5038 19.7262C52.9941 14.3458 49.5675 9.57823 44.7651 6.1759C39.963 2.77355 34.0583 0.930131 27.983 0.93654V0.937307Z" fill="url(#paint7_linear_58_3088)"/>
</g>
<defs>
<linearGradient id="paint0_linear_58_3088" x1="27.8761" y1="73.7997" x2="27.8761" y2="24.659" gradientUnits="userSpaceOnUse">
<stop stop-color="#1153FC"/>
<stop offset="1" stop-color="#5581F1"/>
</linearGradient>
<linearGradient id="paint1_linear_58_3088" x1="28.0764" y1="73.8099" x2="28.0764" y2="24.6667" gradientUnits="userSpaceOnUse">
<stop stop-color="#1153FC"/>
<stop offset="1" stop-color="#5581F1"/>
</linearGradient>
<linearGradient id="paint2_linear_58_3088" x1="28.077" y1="73.8198" x2="28.077" y2="24.6799" gradientUnits="userSpaceOnUse">
<stop stop-color="#1153FC"/>
<stop offset="1" stop-color="#5581F1"/>
</linearGradient>
<linearGradient id="paint3_linear_58_3088" x1="27.9013" y1="73.8062" x2="27.9013" y2="24.6628" gradientUnits="userSpaceOnUse">
<stop stop-color="#1153FC"/>
<stop offset="1" stop-color="#5581F1"/>
</linearGradient>
<linearGradient id="paint4_linear_58_3088" x1="27.911" y1="73.807" x2="27.911" y2="24.6656" gradientUnits="userSpaceOnUse">
<stop stop-color="#1153FC"/>
<stop offset="1" stop-color="#5581F1"/>
</linearGradient>
<linearGradient id="paint5_linear_58_3088" x1="27.9261" y1="73.8078" x2="27.9261" y2="24.6645" gradientUnits="userSpaceOnUse">
<stop stop-color="#1153FC"/>
<stop offset="1" stop-color="#5581F1"/>
</linearGradient>
<linearGradient id="paint6_linear_58_3088" x1="28.0055" y1="73.7828" x2="28.0055" y2="24.6646" gradientUnits="userSpaceOnUse">
<stop stop-color="#1153FC"/>
<stop offset="1" stop-color="#5581F1"/>
</linearGradient>
<linearGradient id="paint7_linear_58_3088" x1="28.031" y1="73.8234" x2="28.031" y2="24.6846" gradientUnits="userSpaceOnUse">
<stop stop-color="#1153FC"/>
<stop offset="1" stop-color="#5581F1"/>
</linearGradient>
</defs>
</svg>
