<svg width="191" height="75" viewBox="0 0 191 75" fill="none" xmlns="http://www.w3.org/2000/svg">
<mask id="mask0_58_3087" style="mask-type:luminance" maskUnits="userSpaceOnUse" x="0" y="0" width="56" height="75">
<path d="M55.3612 0.936523H0.671692V74.9365H55.3612V0.936523Z" fill="white"/>
</mask>
<g mask="url(#mask0_58_3087)">
<path d="M27.8727 23.7787C30.8014 23.7559 33.7088 24.2352 36.4443 25.1917C34.4325 15.9578 31.3296 10.3102 27.8559 10.3145H27.8522C24.3794 10.3206 21.2941 15.9739 19.3079 25.2101C22.0398 24.2481 24.9452 23.7626 27.8727 23.7787Z" fill="url(#paint0_linear_58_3087)"/>
<path d="M28.0751 67.4249L23.6552 67.4303C24.7703 73.7565 26.3467 74.9399 28.0894 74.9376C29.8321 74.9353 31.3977 73.7477 32.4976 67.4199L28.0751 67.4249Z" fill="url(#paint1_linear_58_3087)"/>
<path d="M38.8223 49.4334C38.6413 44.7071 38.2836 39.7401 37.6971 34.5589C37.3965 31.9034 37.053 29.3188 36.6665 26.8051C31.0098 24.8072 24.7407 24.8139 19.0892 26.8239C18.7122 29.3617 18.3763 31.9706 18.0816 34.6506C17.5106 39.871 17.1664 44.8771 16.9968 49.643C12.1142 52.9441 8.74297 59.2055 8.7543 67.4194L16.8683 67.4099C18.3528 67.4099 19.2365 67.0644 19.2365 65.6798L19.2315 65.6537L27.9311 65.6438L36.9154 65.6334C36.9154 67.0993 37.7643 67.3861 39.2551 67.3841L47.3997 67.3749C47.3872 59.0039 43.8657 52.6351 38.8223 49.4334ZM27.8791 29.2203C28.5463 29.2195 29.1989 29.3996 29.7542 29.7378C30.3096 30.0761 30.7427 30.5573 30.9989 31.1207C31.2551 31.684 31.3228 32.3042 31.1935 32.9027C31.0642 33.5012 30.7436 34.0512 30.2724 34.4832C29.8012 34.9152 29.2004 35.2097 28.5461 35.3295C27.8918 35.4493 27.2134 35.389 26.5966 35.1562C25.9798 34.9235 25.4524 34.5287 25.0809 34.0218C24.7095 33.515 24.5108 32.9188 24.51 32.3088C24.509 31.4907 24.8633 30.7059 25.4951 30.1267C26.1269 29.5475 26.9844 29.2215 27.8791 29.2203ZM27.8934 39.2691C28.5605 39.2683 29.213 39.4484 29.7682 39.7869C30.3234 40.1251 30.7564 40.606 31.0125 41.1695C31.2685 41.7326 31.3362 42.3529 31.2069 42.9514C31.0775 43.5498 30.757 44.0995 30.2858 44.5313C29.8146 44.9635 29.214 45.2579 28.5598 45.3777C27.9056 45.4974 27.2272 45.4368 26.6105 45.2042C25.9938 44.9716 25.4664 44.577 25.0951 44.0699C24.7237 43.5632 24.5251 42.9671 24.5242 42.3572C24.5232 41.5392 24.8776 40.7542 25.5094 40.1754C26.1412 39.5961 26.9987 39.2702 27.8934 39.2691ZM27.916 55.4867C27.2488 55.4875 26.5964 55.3075 26.0412 54.9689C25.486 54.6307 25.053 54.1498 24.7969 53.5863C24.5408 53.0232 24.4732 52.4029 24.6025 51.8045C24.7319 51.206 25.0524 50.6564 25.5236 50.2242C25.9948 49.7923 26.5954 49.4979 27.2496 49.3782C27.9038 49.2584 28.5822 49.3187 29.1988 49.5517C29.8156 49.7843 30.343 50.1789 30.7143 50.6859C31.0857 51.1926 31.2843 51.7887 31.2851 52.3987C31.2857 52.8036 31.199 53.2047 31.03 53.5794C30.8609 53.9536 30.6129 54.2941 30.3 54.5808C29.9871 54.8676 29.6155 55.0952 29.2064 55.2507C28.7972 55.4061 28.3586 55.4867 27.9156 55.4871L27.916 55.4867Z" fill="url(#paint2_linear_58_3087)"/>
<path d="M27.8845 30.5068C27.3679 30.5143 26.8753 30.7074 26.513 31.0442C26.1508 31.3811 25.9481 31.8348 25.9488 32.3072C25.9495 32.7796 26.1534 33.2329 26.5166 33.5689C26.8797 33.9049 27.3729 34.0968 27.8896 34.1031C28.4112 34.1025 28.9111 33.9125 29.2795 33.5748C29.6478 33.2372 29.8544 32.7796 29.8537 32.3027C29.8531 31.8258 29.6452 31.3686 29.2759 31.0319C28.9066 30.6951 28.4061 30.5062 27.8845 30.5068Z" fill="url(#paint3_linear_58_3087)"/>
<path d="M27.8978 40.556H27.894C27.3773 40.5633 26.8847 40.7564 26.5225 41.0934C26.1603 41.4305 25.9576 41.8842 25.9583 42.3563C25.9589 42.8288 26.1628 43.2821 26.526 43.618C26.8892 43.9543 27.3824 44.1462 27.899 44.1523C28.4207 44.1519 28.9207 43.9619 29.2892 43.6242C29.6577 43.2868 29.8644 42.8288 29.8638 42.3521C29.8632 41.875 29.6555 41.4178 29.2862 41.0812C28.917 40.7441 28.4165 40.5553 27.8948 40.5557L27.8978 40.556Z" fill="url(#paint4_linear_58_3087)"/>
<path d="M27.9092 50.6045C27.3926 50.6118 26.8999 50.8049 26.5378 51.1419C26.1755 51.4789 25.9728 51.9326 25.9735 52.4047C25.9741 52.8773 26.1781 53.3306 26.5413 53.6665C26.9044 54.0027 27.3976 54.1946 27.9143 54.2008C28.4359 54.2 28.9358 54.0104 29.3042 53.6726C29.6726 53.3348 29.8792 52.8773 29.8787 52.4005C29.878 51.9238 29.6703 51.4666 29.301 51.1296C28.9317 50.793 28.4308 50.6041 27.9092 50.6045Z" fill="url(#paint5_linear_58_3087)"/>
<path d="M38.5288 24.9814C36.8663 17.3524 33.6643 8.25514 27.848 8.25514H27.7905C23.143 8.30466 19.5808 13.9396 17.2016 25.004L17.1966 25.0278L16.5316 28.4878C16.2625 30.0528 16.0232 31.6772 15.8179 33.3305C15.777 33.6593 15.7374 33.9907 15.6991 34.3246C15.4447 36.5425 15.2444 38.8717 15.1017 41.2631C14.3817 40.7553 13.6975 40.2064 13.0533 39.6195C10.0006 36.832 7.95281 33.2578 7.18449 29.3762C6.41617 25.4945 6.964 21.4909 8.7546 17.902C10.5452 14.313 13.4929 11.3103 17.2026 9.29637C20.9123 7.28239 25.2068 6.35344 29.5103 6.63395C33.8137 6.91447 37.9206 8.3911 41.2803 10.8659C44.6402 13.3407 47.092 16.6954 48.3074 20.4803C49.5232 24.2651 49.4443 28.2994 48.0816 32.042C46.7184 35.7848 44.1369 39.0571 40.6825 41.4205C40.5331 38.9677 40.3219 36.5759 40.0528 34.2966C40.0133 33.9639 39.9729 33.6326 39.9315 33.3025C39.7215 31.6519 39.4797 30.0271 39.206 28.466L38.5288 24.9814Z" fill="url(#paint6_linear_58_3087)"/>
<path d="M27.983 0.937307C21.9418 0.952193 16.0758 2.79502 11.3004 6.17825C6.52501 9.56149 3.10879 14.2948 1.58476 19.6397C0.0607381 24.9846 0.514627 30.6405 2.87562 35.7247C5.23661 40.8089 9.3719 45.0359 14.6363 47.7454C14.6922 46.7041 14.7544 45.6742 14.8227 44.6566C11.6386 42.7754 8.97587 40.2439 7.04413 37.2614C4.86102 33.8796 3.69485 30.0301 3.6639 26.1033C3.63295 22.1765 4.73832 18.3121 6.86793 14.9019C8.9975 11.4917 12.0755 8.65707 15.7899 6.68543C19.5043 4.71382 23.7229 3.67536 28.0178 3.67536C32.3128 3.67536 36.5314 4.71382 40.2457 6.68543C43.9599 8.65707 47.0381 11.4917 49.1678 14.9019C51.2972 18.3121 52.4026 22.1765 52.3715 26.1033C52.3409 30.0301 51.1746 33.8796 48.9915 37.2614C47.0091 40.3222 44.2575 42.9066 40.9644 44.8013C41.0327 45.8139 41.0958 46.8365 41.1538 47.8694C46.4818 45.2005 50.6863 40.9855 53.1037 35.8896C55.5211 30.7935 56.0139 25.1066 54.5038 19.7262C52.9941 14.3458 49.5675 9.57823 44.7651 6.1759C39.963 2.77355 34.0583 0.930131 27.983 0.93654V0.937307Z" fill="url(#paint7_linear_58_3087)"/>
</g>
<path d="M70.4962 43.6436V32.0072H75.0871C75.9697 32.0072 76.7216 32.1758 77.3428 32.5129C77.964 32.8462 78.4375 33.3102 78.7633 33.9049C79.0928 34.4958 79.2576 35.1776 79.2576 35.9504C79.2576 36.7231 79.0909 37.4049 78.7576 37.9958C78.4242 38.5867 77.9413 39.047 77.3087 39.3765C76.6799 39.7061 75.9186 39.8708 75.0246 39.8708H72.0985V37.8992H74.6269C75.1004 37.8992 75.4905 37.8178 75.7973 37.6549C76.108 37.4883 76.339 37.2591 76.4905 36.9674C76.6458 36.672 76.7235 36.3329 76.7235 35.9504C76.7235 35.564 76.6458 35.2269 76.4905 34.939C76.339 34.6473 76.108 34.422 75.7973 34.2629C75.4867 34.1 75.0928 34.0186 74.6155 34.0186H72.9564V43.6436H70.4962ZM80.8101 43.6436V34.9163H83.1567V36.439H83.2476C83.4067 35.8973 83.6738 35.4883 84.0488 35.2117C84.4238 34.9314 84.8556 34.7913 85.3442 34.7913C85.4654 34.7913 85.5961 34.7989 85.7363 34.814C85.8764 34.8292 85.9995 34.85 86.1056 34.8765V37.0242C85.992 36.9901 85.8348 36.9598 85.634 36.9333C85.4332 36.9068 85.2495 36.8936 85.0829 36.8936C84.7268 36.8936 84.4086 36.9712 84.1283 37.1265C83.8518 37.278 83.6321 37.4901 83.4692 37.7629C83.3101 38.0356 83.2306 38.35 83.2306 38.7061V43.6436H80.8101ZM90.8939 43.814C90.0114 43.814 89.2481 43.6265 88.6042 43.2515C87.964 42.8727 87.4697 42.3462 87.1212 41.672C86.7727 40.9939 86.5985 40.2079 86.5985 39.314C86.5985 38.4125 86.7727 37.6246 87.1212 36.9504C87.4697 36.2723 87.964 35.7458 88.6042 35.3708C89.2481 34.992 90.0114 34.8026 90.8939 34.8026C91.7765 34.8026 92.5379 34.992 93.178 35.3708C93.822 35.7458 94.3182 36.2723 94.6667 36.9504C95.0152 37.6246 95.1894 38.4125 95.1894 39.314C95.1894 40.2079 95.0152 40.9939 94.6667 41.672C94.3182 42.3462 93.822 42.8727 93.178 43.2515C92.5379 43.6265 91.7765 43.814 90.8939 43.814ZM90.9053 41.939C91.3068 41.939 91.642 41.8254 91.911 41.5981C92.1799 41.367 92.3826 41.0526 92.5189 40.6549C92.6591 40.2572 92.7292 39.8045 92.7292 39.297C92.7292 38.7894 92.6591 38.3367 92.5189 37.939C92.3826 37.5413 92.1799 37.2269 91.911 36.9958C91.642 36.7648 91.3068 36.6492 90.9053 36.6492C90.5 36.6492 90.1591 36.7648 89.8826 36.9958C89.6098 37.2269 89.4034 37.5413 89.2633 37.939C89.1269 38.3367 89.0587 38.7894 89.0587 39.297C89.0587 39.8045 89.1269 40.2572 89.2633 40.6549C89.4034 41.0526 89.6098 41.367 89.8826 41.5981C90.1591 41.8254 90.5 41.939 90.9053 41.939ZM100.695 47.0981C99.911 47.0981 99.2386 46.9901 98.678 46.7742C98.1212 46.5621 97.678 46.2723 97.3485 45.9049C97.0189 45.5375 96.8049 45.1246 96.7064 44.6663L98.9451 44.3651C99.0133 44.5394 99.1212 44.7023 99.2689 44.8538C99.4167 45.0053 99.6117 45.1265 99.8542 45.2174C100.1 45.3121 100.4 45.3595 100.752 45.3595C101.278 45.3595 101.712 45.2307 102.053 44.9731C102.398 44.7193 102.57 44.2932 102.57 43.6947V42.0981H102.468C102.362 42.3405 102.203 42.5697 101.991 42.7856C101.778 43.0015 101.506 43.1776 101.172 43.314C100.839 43.4504 100.441 43.5186 99.9792 43.5186C99.3239 43.5186 98.7273 43.367 98.1894 43.064C97.6553 42.7572 97.2292 42.2894 96.911 41.6606C96.5966 41.028 96.4394 40.2288 96.4394 39.2629C96.4394 38.2742 96.6004 37.4485 96.9223 36.7856C97.2443 36.1227 97.6723 35.6265 98.2064 35.297C98.7443 34.9674 99.3333 34.8026 99.9735 34.8026C100.462 34.8026 100.871 34.886 101.201 35.0526C101.53 35.2155 101.795 35.4201 101.996 35.6663C102.201 35.9087 102.358 36.1473 102.468 36.3822H102.559V34.9163H104.962V43.7288C104.962 44.4712 104.78 45.0924 104.417 45.5924C104.053 46.0924 103.549 46.4674 102.905 46.7174C102.265 46.9712 101.528 47.0981 100.695 47.0981ZM100.746 41.7004C101.136 41.7004 101.466 41.6038 101.735 41.4106C102.008 41.2136 102.216 40.9333 102.36 40.5697C102.508 40.2023 102.581 39.7629 102.581 39.2515C102.581 38.7401 102.509 38.297 102.366 37.922C102.222 37.5432 102.013 37.2496 101.741 37.0413C101.468 36.8329 101.136 36.7288 100.746 36.7288C100.348 36.7288 100.013 36.8367 99.7405 37.0526C99.4678 37.2648 99.2614 37.5602 99.1212 37.939C98.9811 38.3178 98.911 38.7553 98.911 39.2515C98.911 39.7553 98.9811 40.1909 99.1212 40.5583C99.2652 40.922 99.4716 41.2042 99.7405 41.4049C100.013 41.6019 100.348 41.7004 100.746 41.7004ZM106.888 43.6436V34.9163H109.235V36.439H109.326C109.485 35.8973 109.752 35.4883 110.127 35.2117C110.502 34.9314 110.934 34.7913 111.422 34.7913C111.544 34.7913 111.674 34.7989 111.814 34.814C111.955 34.8292 112.078 34.85 112.184 34.8765V37.0242C112.07 36.9901 111.913 36.9598 111.712 36.9333C111.511 36.9068 111.328 36.8936 111.161 36.8936C110.805 36.8936 110.487 36.9712 110.206 37.1265C109.93 37.278 109.71 37.4901 109.547 37.7629C109.388 38.0356 109.309 38.35 109.309 38.7061V43.6436H106.888ZM117.006 43.814C116.108 43.814 115.336 43.6322 114.688 43.2686C114.044 42.9011 113.548 42.3822 113.199 41.7117C112.851 41.0375 112.677 40.2401 112.677 39.3197C112.677 38.422 112.851 37.6341 113.199 36.9561C113.548 36.278 114.038 35.7496 114.671 35.3708C115.307 34.992 116.054 34.8026 116.91 34.8026C117.485 34.8026 118.021 34.8954 118.518 35.0811C119.018 35.2629 119.453 35.5375 119.824 35.9049C120.199 36.2723 120.491 36.7345 120.699 37.2913C120.908 37.8443 121.012 38.492 121.012 39.2345V39.8992H113.643V38.3992H118.733C118.733 38.0508 118.658 37.742 118.506 37.4731C118.355 37.2042 118.144 36.9939 117.875 36.8424C117.61 36.6871 117.302 36.6095 116.949 36.6095C116.582 36.6095 116.256 36.6947 115.972 36.8651C115.692 37.0318 115.472 37.2572 115.313 37.5413C115.154 37.8216 115.072 38.1341 115.069 38.4788V39.9049C115.069 40.3367 115.148 40.7098 115.307 41.0242C115.47 41.3386 115.699 41.5811 115.995 41.7515C116.29 41.922 116.641 42.0072 117.046 42.0072C117.315 42.0072 117.561 41.9693 117.785 41.8936C118.008 41.8178 118.199 41.7042 118.358 41.5526C118.518 41.4011 118.639 41.2155 118.722 40.9958L120.961 41.1436C120.847 41.6814 120.614 42.1511 120.262 42.5526C119.913 42.9504 119.463 43.261 118.91 43.4845C118.36 43.7042 117.726 43.814 117.006 43.814ZM129.853 37.4049L127.637 37.5413C127.599 37.3519 127.518 37.1814 127.393 37.0299C127.268 36.8746 127.103 36.7515 126.898 36.6606C126.697 36.5659 126.457 36.5186 126.177 36.5186C125.802 36.5186 125.485 36.5981 125.228 36.7572C124.97 36.9125 124.841 37.1208 124.841 37.3822C124.841 37.5905 124.925 37.7667 125.091 37.9106C125.258 38.0545 125.544 38.1701 125.949 38.2572L127.529 38.5754C128.377 38.7496 129.01 39.0299 129.427 39.4163C129.843 39.8026 130.052 40.3102 130.052 40.939C130.052 41.511 129.883 42.0129 129.546 42.4447C129.213 42.8765 128.754 43.2136 128.171 43.4561C127.591 43.6947 126.923 43.814 126.165 43.814C125.01 43.814 124.089 43.5735 123.404 43.0924C122.722 42.6076 122.322 41.9485 122.205 41.1151L124.586 40.9901C124.658 41.3424 124.832 41.6114 125.108 41.797C125.385 41.9788 125.739 42.0697 126.171 42.0697C126.595 42.0697 126.936 41.9883 127.194 41.8254C127.455 41.6587 127.588 41.4447 127.591 41.1833C127.588 40.9636 127.495 40.7837 127.313 40.6436C127.131 40.4996 126.851 40.3898 126.472 40.314L124.961 40.0129C124.108 39.8424 123.474 39.547 123.057 39.1265C122.644 38.7061 122.438 38.1701 122.438 37.5186C122.438 36.9579 122.589 36.475 122.893 36.0697C123.199 35.6644 123.629 35.3519 124.182 35.1322C124.739 34.9125 125.391 34.8026 126.137 34.8026C127.239 34.8026 128.107 35.0356 128.739 35.5015C129.375 35.9674 129.747 36.6019 129.853 37.4049ZM138.837 37.4049L136.621 37.5413C136.583 37.3519 136.502 37.1814 136.377 37.0299C136.252 36.8746 136.087 36.7515 135.883 36.6606C135.682 36.5659 135.441 36.5186 135.161 36.5186C134.786 36.5186 134.47 36.5981 134.212 36.7572C133.955 36.9125 133.826 37.1208 133.826 37.3822C133.826 37.5905 133.909 37.7667 134.076 37.9106C134.242 38.0545 134.528 38.1701 134.934 38.2572L136.513 38.5754C137.362 38.7496 137.994 39.0299 138.411 39.4163C138.828 39.8026 139.036 40.3102 139.036 40.939C139.036 41.511 138.867 42.0129 138.53 42.4447C138.197 42.8765 137.739 43.2136 137.155 43.4561C136.576 43.6947 135.907 43.814 135.15 43.814C133.994 43.814 133.074 43.5735 132.388 43.0924C131.706 42.6076 131.307 41.9485 131.189 41.1151L133.57 40.9901C133.642 41.3424 133.816 41.6114 134.093 41.797C134.369 41.9788 134.723 42.0697 135.155 42.0697C135.58 42.0697 135.92 41.9883 136.178 41.8254C136.439 41.6587 136.572 41.4447 136.576 41.1833C136.572 40.9636 136.479 40.7837 136.297 40.6436C136.116 40.4996 135.835 40.3898 135.456 40.314L133.945 40.0129C133.093 39.8424 132.458 39.547 132.042 39.1265C131.629 38.7061 131.422 38.1701 131.422 37.5186C131.422 36.9579 131.574 36.475 131.877 36.0697C132.184 35.6644 132.614 35.3519 133.167 35.1322C133.723 34.9125 134.375 34.8026 135.121 34.8026C136.223 34.8026 137.091 35.0356 137.723 35.5015C138.36 35.9674 138.731 36.6019 138.837 37.4049ZM144.503 43.814C143.621 43.814 142.857 43.6265 142.214 43.2515C141.573 42.8727 141.079 42.3462 140.731 41.672C140.382 40.9939 140.208 40.2079 140.208 39.314C140.208 38.4125 140.382 37.6246 140.731 36.9504C141.079 36.2723 141.573 35.7458 142.214 35.3708C142.857 34.992 143.621 34.8026 144.503 34.8026C145.386 34.8026 146.147 34.992 146.787 35.3708C147.431 35.7458 147.928 36.2723 148.276 36.9504C148.625 37.6246 148.799 38.4125 148.799 39.314C148.799 40.2079 148.625 40.9939 148.276 41.672C147.928 42.3462 147.431 42.8727 146.787 43.2515C146.147 43.6265 145.386 43.814 144.503 43.814ZM144.515 41.939C144.916 41.939 145.251 41.8254 145.52 41.5981C145.789 41.367 145.992 41.0526 146.128 40.6549C146.268 40.2572 146.339 39.8045 146.339 39.297C146.339 38.7894 146.268 38.3367 146.128 37.939C145.992 37.5413 145.789 37.2269 145.52 36.9958C145.251 36.7648 144.916 36.6492 144.515 36.6492C144.109 36.6492 143.768 36.7648 143.492 36.9958C143.219 37.2269 143.013 37.5413 142.873 37.939C142.736 38.3367 142.668 38.7894 142.668 39.297C142.668 39.8045 142.736 40.2572 142.873 40.6549C143.013 41.0526 143.219 41.367 143.492 41.5981C143.768 41.8254 144.109 41.939 144.515 41.939Z" fill="#1153FC" fill-opacity="0.9"/>
<defs>
<linearGradient id="paint0_linear_58_3087" x1="27.8761" y1="73.7997" x2="27.8761" y2="24.659" gradientUnits="userSpaceOnUse">
<stop stop-color="#1153FC"/>
<stop offset="1" stop-color="#5581F1"/>
</linearGradient>
<linearGradient id="paint1_linear_58_3087" x1="28.0764" y1="73.8099" x2="28.0764" y2="24.6667" gradientUnits="userSpaceOnUse">
<stop stop-color="#1153FC"/>
<stop offset="1" stop-color="#5581F1"/>
</linearGradient>
<linearGradient id="paint2_linear_58_3087" x1="28.077" y1="73.8198" x2="28.077" y2="24.6799" gradientUnits="userSpaceOnUse">
<stop stop-color="#1153FC"/>
<stop offset="1" stop-color="#5581F1"/>
</linearGradient>
<linearGradient id="paint3_linear_58_3087" x1="27.9013" y1="73.8062" x2="27.9013" y2="24.6628" gradientUnits="userSpaceOnUse">
<stop stop-color="#1153FC"/>
<stop offset="1" stop-color="#5581F1"/>
</linearGradient>
<linearGradient id="paint4_linear_58_3087" x1="27.911" y1="73.807" x2="27.911" y2="24.6656" gradientUnits="userSpaceOnUse">
<stop stop-color="#1153FC"/>
<stop offset="1" stop-color="#5581F1"/>
</linearGradient>
<linearGradient id="paint5_linear_58_3087" x1="27.9261" y1="73.8078" x2="27.9261" y2="24.6645" gradientUnits="userSpaceOnUse">
<stop stop-color="#1153FC"/>
<stop offset="1" stop-color="#5581F1"/>
</linearGradient>
<linearGradient id="paint6_linear_58_3087" x1="28.0055" y1="73.7828" x2="28.0055" y2="24.6646" gradientUnits="userSpaceOnUse">
<stop stop-color="#1153FC"/>
<stop offset="1" stop-color="#5581F1"/>
</linearGradient>
<linearGradient id="paint7_linear_58_3087" x1="28.031" y1="73.8234" x2="28.031" y2="24.6846" gradientUnits="userSpaceOnUse">
<stop stop-color="#1153FC"/>
<stop offset="1" stop-color="#5581F1"/>
</linearGradient>
</defs>
</svg>
